  0
SECTION
  2
HEADER
  9
$ACADVER
  1
AC1009
  9
$EXTMIN
 10
0.0
 20
0.0
 30
0.0
  9
$EXTMAX
 10
1000.0
 20
1000.0
 30
0.0
  9
$FILLMODE
 70
 0
  9
$SPLFRAME
 70
 1
  0
ENDSEC
  0
SECTION
  2
TABLES
  0
TABLE
  2
LAYER
 70
1
  0
LAYER
  2
0
 70
     0
 62
     7
  6
CONTINUOUS
  0
ENDTAB
  0
ENDSEC
  0
SECTION
  2
ENTITIES
  0
POLYLINE
  8
0
 62
     0
 66
     1
 10
0
 20
0
 30
0.0
 70
     1
 40
0
 41
0
  0
VERTEX
  8
0
 10
2.50885
 20
1.61806
 30
0.0
 40
0
 41
0
  0
VERTEX
  8
0
 10
2.54725
 20
1.4591
 30
0.0
 40
0
 41
0
  0
VERTEX
  8
0
 10
2.54183
 20
1.45285
 30
0.0
 40
0
 41
0
  0
VERTEX
  8
0
 10
2.51361
 20
1.4285
 30
0.0
 40
0
 41
0
  0
VERTEX
  8
0
 10
2.48383
 20
1.4126
 30
0.0
 40
0
 41
0
  0
VERTEX
  8
0
 10
2.47771
 20
1.4106
 30
0.0
 40
0
 41
0
  0
VERTEX
  8
0
 10
2.43901
 20
1.60303
 30
0.0
 40
0
 41
0
  0
VERTEX
  8
0
 10
2.40414
 20
1.4075
 30
0.0
 40
0
 41
0
  0
VERTEX
  8
0
 10
2.3974
 20
1.40901
 30
0.0
 40
0
 41
0
  0
VERTEX
  8
0
 10
2.36475
 20
1.42329
 30
0.0
 40
0
 41
0
  0
VERTEX
  8
0
 10
2.33371
 20
1.4471
 30
0.0
 40
0
 41
0
  0
VERTEX
  8
0
 10
2.32785
 20
1.4534
 30
0.0
 40
0
 41
0
  0
VERTEX
  8
0
 10
2.36762
 20
1.61806
 30
0.0
 40
0
 41
0
  0
VERTEX
  8
0
 10
2.29096
 20
1.50515
 30
0.0
 40
0
 41
0
  0
VERTEX
  8
0
 10
2.28629
 20
1.51357
 30
0.0
 40
0
 41
0
  0
VERTEX
  8
0
 10
2.26465
 20
1.56293
 30
0.0
 40
0
 41
0
  0
VERTEX
  8
0
 10
2.2455
 20
1.62261
 30
0.0
 40
0
 41
0
  0
VERTEX
  8
0
 10
2.24208
 20
1.63613
 30
0.0
 40
0
 41
0
  0
VERTEX
  8
0
 10
2.20367
 20
1.76367
 30
0.0
 40
0
 41
0
  0
VERTEX
  8
0
 10
2.20133
 20
1.75521
 30
0.0
 40
0
 41
0
  0
VERTEX
  8
0
 10
2.18935
 20
1.73112
 30
0.0
 40
0
 41
0
  0
VERTEX
  8
0
 10
2.16976
 20
1.71306
 30
0.0
 40
0
 41
0
  0
VERTEX
  8
0
 10
2.14665
 20
1.70708
 30
0.0
 40
0
 41
0
  0
VERTEX
  8
0
 10
2.12164
 20
1.71078
 30
0.0
 40
0
 41
0
  0
VERTEX
  8
0
 10
2.09646
 20
1.7219
 30
0.0
 40
0
 41
0
  0
VERTEX
  8
0
 10
2.07275
 20
1.73796
 30
0.0
 40
0
 41
0
  0
VERTEX
  8
0
 10
2.05225
 20
1.75662
 30
0.0
 40
0
 41
0
  0
VERTEX
  8
0
 10
2.0401
 20
1.77051
 30
0.0
 40
0
 41
0
  0
VERTEX
  8
0
 10
2.03662
 20
1.7755
 30
0.0
 40
0
 41
0
  0
VERTEX
  8
0
 10
2.01454
 20
1.80729
 30
0.0
 40
0
 41
0
  0
VERTEX
  8
0
 10
1.95747
 20
1.90881
 30
0.0
 40
0
 41
0
  0
VERTEX
  8
0
 10
1.89979
 20
2.0434
 30
0.0
 40
0
 41
0
  0
VERTEX
  8
0
 10
1.86279
 20
2.17063
 30
0.0
 40
0
 41
0
  0
VERTEX
  8
0
 10
1.84776
 20
2.25385
 30
0.0
 40
0
 41
0
  0
VERTEX
  8
0
 10
1.84576
 20
2.28174
 30
0.0
 40
0
 41
0
  0
VERTEX
  8
0
 10
1.84549
 20
2.27653
 30
0.0
 40
0
 41
0
  0
VERTEX
  8
0
 10
1.84429
 20
2.22185
 30
0.0
 40
0
 41
0
  0
VERTEX
  8
0
 10
1.84435
 20
2.2161
 30
0.0
 40
0
 41
0
  0
VERTEX
  8
0
 10
1.8444
 20
2.18772
 30
0.0
 40
0
 41
0
  0
VERTEX
  8
0
 10
1.85618
 20
2.10254
 30
0.0
 40
0
 41
0
  0
VERTEX
  8
0
 10
1.89154
 20
1.96696
 30
0.0
 40
0
 41
0
  0
VERTEX
  8
0
 10
1.95139
 20
1.82075
 30
0.0
 40
0
 41
0
  0
VERTEX
  8
0
 10
2.01264
 20
1.70969
 30
0.0
 40
0
 41
0
  0
VERTEX
  8
0
 10
2.03662
 20
1.67513
 30
0.0
 40
0
 41
0
  0
VERTEX
  8
0
 10
2.03982
 20
1.67051
 30
0.0
 40
0
 41
0
  0
VERTEX
  8
0
 10
2.05007
 20
1.65696
 30
0.0
 40
0
 41
0
  0
VERTEX
  8
0
 10
2.06803
 20
1.63531
 30
0.0
 40
0
 41
0
  0
VERTEX
  8
0
 10
2.08914
 20
1.61263
 30
0.0
 40
0
 41
0
  0
VERTEX
  8
0
 10
2.11219
 20
1.59125
 30
0.0
 40
0
 41
0
  0
VERTEX
  8
0
 10
2.13596
 20
1.57374
 30
0.0
 40
0
 41
0
  0
VERTEX
  8
0
 10
2.15918
 20
1.56244
 30
0.0
 40
0
 41
0
  0
VERTEX
  8
0
 10
2.18056
 20
1.55985
 30
0.0
 40
0
 41
0
  0
VERTEX
  8
0
 10
2.19532
 20
1.56511
 30
0.0
 40
0
 41
0
  0
VERTEX
  8
0
 10
2.19889
 20
1.56831
 30
0.0
 40
0
 41
0
  0
VERTEX
  8
0
 10
2.19835
 20
1.56451
 30
0.0
 40
0
 41
0
  0
VERTEX
  8
0
 10
2.18517
 20
1.52724
 30
0.0
 40
0
 41
0
  0
VERTEX
  8
0
 10
2.18338
 20
1.52371
 30
0.0
 40
0
 41
0
  0
VERTEX
  8
0
 10
2.10672
 20
1.37353
 30
0.0
 40
0
 41
0
  0
VERTEX
  8
0
 10
2.10672
 20
1.49681
 30
0.0
 40
0
 41
0
  0
VERTEX
  8
0
 10
2.10379
 20
1.49636
 30
0.0
 40
0
 41
0
  0
VERTEX
  8
0
 10
2.07264
 20
1.4924
 30
0.0
 40
0
 41
0
  0
VERTEX
  8
0
 10
2.06933
 20
1.49208
 30
0.0
 40
0
 41
0
  0
VERTEX
  8
0
 10
2.05974
 20
1.49115
 30
0.0
 40
0
 41
0
  0
VERTEX
  8
0
 10
2.00657
 20
1.48796
 30
0.0
 40
0
 41
0
  0
VERTEX
  8
0
 10
1.95144
 20
1.4866
 30
0.0
 40
0
 41
0
  0
VERTEX
  8
0
 10
1.93311
 20
1.4866
 30
0.0
 40
0
 41
0
  0
VERTEX
  8
0
 10
1.93311
 20
1.26969
 30
0.0
 40
0
 41
0
  0
VERTEX
  8
0
 10
2.93701
 20
1.26969
 30
0.0
 40
0
 41
0
  0
VERTEX
  8
0
 10
2.93701
 20
1.4866
 30
0.0
 40
0
 41
0
  0
VERTEX
  8
0
 10
2.91829
 20
1.48703
 30
0.0
 40
0
 41
0
  0
VERTEX
  8
0
 10
2.84174
 20
1.48981
 30
0.0
 40
0
 41
0
  0
VERTEX
  8
0
 10
2.78792
 20
1.49338
 30
0.0
 40
0
 41
0
  0
VERTEX
  8
0
 10
2.7806
 20
1.49419
 30
0.0
 40
0
 41
0
  0
VERTEX
  8
0
 10
2.77924
 20
1.49436
 30
0.0
 40
0
 41
0
  0
VERTEX
  8
0
 10
2.76628
 20
1.49588
 30
0.0
 40
0
 41
0
  0
VERTEX
  8
0
 10
2.76503
 20
1.49604
 30
0.0
 40
0
 41
0
  0
VERTEX
  8
0
 10
2.76503
 20
1.37353
 30
0.0
 40
0
 41
0
  0
VERTEX
  8
0
 10
2.68587
 20
1.52854
 30
0.0
 40
0
 41
0
  0
VERTEX
  8
0
 10
2.68425
 20
1.53174
 30
0.0
 40
0
 41
0
  0
VERTEX
  8
0
 10
2.67464
 20
1.56201
 30
0.0
 40
0
 41
0
  0
VERTEX
  8
0
 10
2.67415
 20
1.56565
 30
0.0
 40
0
 41
0
  0
VERTEX
  8
0
 10
2.6779
 20
1.56299
 30
0.0
 40
0
 41
0
  0
VERTEX
  8
0
 10
2.69265
 20
1.55963
 30
0.0
 40
0
 41
0
  0
VERTEX
  8
0
 10
2.71386
 20
1.56369
 30
0.0
 40
0
 41
0
  0
VERTEX
  8
0
 10
2.7366
 20
1.57563
 30
0.0
 40
0
 41
0
  0
VERTEX
  8
0
 10
2.75976
 20
1.59326
 30
0.0
 40
0
 41
0
  0
VERTEX
  8
0
 10
2.78213
 20
1.61431
 30
0.0
 40
0
 41
0
  0
VERTEX
  8
0
 10
2.80257
 20
1.63644
 30
0.0
 40
0
 41
0
  0
VERTEX
  8
0
 10
2.81993
 20
1.6575
 30
0.0
 40
0
 41
0
  0
VERTEX
  8
0
 10
2.82992
 20
1.67063
 30
0.0
 40
0
 41
0
  0
VERTEX
  8
0
 10
2.83306
 20
1.67513
 30
0.0
 40
0
 41
0
  0
VERTEX
  8
0
 10
2.85699
 20
1.70969
 30
0.0
 40
0
 41
0
  0
VERTEX
  8
0
 10
2.91818
 20
1.82075
 30
0.0
 40
0
 41
0
  0
VERTEX
  8
0
 10
2.97803
 20
1.96696
 30
0.0
 40
0
 41
0
  0
VERTEX
  8
0
 10
3.01346
 20
2.10254
 30
0.0
 40
0
 41
0
  0
VERTEX
  8
0
 10
3.02522
 20
2.18772
 30
0.0
 40
0
 41
0
  0
VERTEX
  8
0
 10
3.02533
 20
2.2161
 30
0.0
 40
0
 41
0
  0
VERTEX
  8
0
 10
3.02533
 20
2.22185
 30
0.0
 40
0
 41
0
  0
VERTEX
  8
0
 10
3.02414
 20
2.27653
 30
0.0
 40
0
 41
0
  0
VERTEX
  8
0
 10
3.02393
 20
2.28174
 30
0.0
 40
0
 41
0
  0
VERTEX
  8
0
 10
3.02186
 20
2.25379
 30
0.0
 40
0
 41
0
  0
VERTEX
  8
0
 10
3.00683
 20
2.17063
 30
0.0
 40
0
 41
0
  0
VERTEX
  8
0
 10
2.96983
 20
2.0434
 30
0.0
 40
0
 41
0
  0
VERTEX
  8
0
 10
2.91211
 20
1.90881
 30
0.0
 40
0
 41
0
  0
VERTEX
  8
0
 10
2.85508
 20
1.80724
 30
0.0
 40
0
 41
0
  0
VERTEX
  8
0
 10
2.83306
 20
1.7755
 30
0.0
 40
0
 41
0
  0
VERTEX
  8
0
 10
2.82954
 20
1.77051
 30
0.0
 40
0
 41
0
  0
VERTEX
  8
0
 10
2.81739
 20
1.75662
 30
0.0
 40
0
 41
0
  0
VERTEX
  8
0
 10
2.79688
 20
1.73796
 30
0.0
 40
0
 41
0
  0
VERTEX
  8
0
 10
2.77317
 20
1.7219
 30
0.0
 40
0
 41
0
  0
VERTEX
  8
0
 10
2.74799
 20
1.71078
 30
0.0
 40
0
 41
0
  0
VERTEX
  8
0
 10
2.72299
 20
1.70708
 30
0.0
 40
0
 41
0
  0
VERTEX
  8
0
 10
2.69982
 20
1.71306
 30
0.0
 40
0
 41
0
  0
VERTEX
  8
0
 10
2.68028
 20
1.73112
 30
0.0
 40
0
 41
0
  0
VERTEX
  8
0
 10
2.66829
 20
1.75521
 30
0.0
 40
0
 41
0
  0
VERTEX
  8
0
 10
2.66601
 20
1.76367
 30
0.0
 40
0
 41
0
  0
VERTEX
  8
0
 10
2.62756
 20
1.63613
 30
0.0
 40
0
 41
0
  0
VERTEX
  8
0
 10
2.62429
 20
1.62332
 30
0.0
 40
0
 41
0
  0
VERTEX
  8
0
 10
2.60633
 20
1.56646
 30
0.0
 40
0
 41
0
  0
VERTEX
  8
0
 10
2.5861
 20
1.51882
 30
0.0
 40
0
 41
0
  0
VERTEX
  8
0
 10
2.58176
 20
1.51064
 30
0.0
 40
0
 41
0
  0
VERTEX
  8
0
 10
2.50885
 20
1.61806
 30
0.0
 40
0
 41
0
  0
SEQEND
 8
0
  0
POLYLINE
  8
0
 62
     0
 66
     1
 10
0
 20
0
 30
0.0
 70
     1
 40
0
 41
0
  0
VERTEX
  8
0
 10
3.25988
 20
2.96218
 30
0.0
 40
0
 41
0
  0
VERTEX
  8
0
 10
3.25988
 20
2.30892
 30
0.0
 40
0
 41
0
  0
VERTEX
  8
0
 10
3.03033
 20
2.30892
 30
0.0
 40
0
 41
0
  0
VERTEX
  8
0
 10
3.03033
 20
2.34467
 30
0.0
 40
0
 41
0
  0
VERTEX
  8
0
 10
3.02138
 20
2.44119
 30
0.0
 40
0
 41
0
  0
VERTEX
  8
0
 10
3.01958
 20
2.45182
 30
0.0
 40
0
 41
0
  0
VERTEX
  8
0
 10
2.90674
 20
2.25586
 30
0.0
 40
0
 41
0
  0
VERTEX
  8
0
 10
2.98525
 20
2.58111
 30
0.0
 40
0
 41
0
  0
VERTEX
  8
0
 10
2.97922
 20
2.59511
 30
0.0
 40
0
 41
0
  0
VERTEX
  8
0
 10
2.94049
 20
2.65278
 30
0.0
 40
0
 41
0
  0
VERTEX
  8
0
 10
2.88965
 20
2.69515
 30
0.0
 40
0
 41
0
  0
VERTEX
  8
0
 10
2.87765
 20
2.70144
 30
0.0
 40
0
 41
0
  0
VERTEX
  8
0
 10
2.79031
 20
2.43099
 30
0.0
 40
0
 41
0
  0
VERTEX
  8
0
 10
2.78674
 20
2.7309
 30
0.0
 40
0
 41
0
  0
VERTEX
  8
0
 10
2.77772
 20
2.73247
 30
0.0
 40
0
 41
0
  0
VERTEX
  8
0
 10
2.6766
 20
2.73807
 30
0.0
 40
0
 41
0
  0
VERTEX
  8
0
 10
2.66536
 20
2.73762
 30
0.0
 40
0
 41
0
  0
VERTEX
  8
0
 10
2.66581
 20
2.00097
 30
0.0
 40
0
 41
0
  0
VERTEX
  8
0
 10
2.66581
 20
1.98996
 30
0.0
 40
0
 41
0
  0
VERTEX
  8
0
 10
2.65647
 20
1.95682
 30
0.0
 40
0
 41
0
  0
VERTEX
  8
0
 10
2.63232
 20
1.92736
 30
0.0
 40
0
 41
0
  0
VERTEX
  8
0
 10
2.59933
 20
1.91639
 30
0.0
 40
0
 41
0
  0
VERTEX
  8
0
 10
2.5709
 20
1.92269
 30
0.0
 40
0
 41
0
  0
VERTEX
  8
0
 10
2.56342
 20
1.92768
 30
0.0
 40
0
 41
0
  0
VERTEX
  8
0
 10
2.55638
 20
1.9324
 30
0.0
 40
0
 41
0
  0
VERTEX
  8
0
 10
2.54042
 20
1.954
 30
0.0
 40
0
 41
0
  0
VERTEX
  8
0
 10
2.53119
 20
1.98936
 30
0.0
 40
0
 41
0
  0
VERTEX
  8
0
 10
2.53825
 20
2.02686
 30
0.0
 40
0
 41
0
  0
VERTEX
  8
0
 10
2.55621
 20
2.05328
 30
0.0
 40
0
 41
0
  0
VERTEX
  8
0
 10
2.56424
 20
2.05935
 30
0.0
 40
0
 41
0
  0
VERTEX
  8
0
 10
2.60178
 20
2.06646
 30
0.0
 40
0
 41
0
  0
VERTEX
  8
0
 10
2.62218
 20
2.05474
 30
0.0
 40
0
 41
0
  0
VERTEX
  8
0
 10
2.62349
 20
2.06429
 30
0.0
 40
0
 41
0
  0
VERTEX
  8
0
 10
2.62131
 20
2.09375
 30
0.0
 40
0
 41
0
  0
VERTEX
  8
0
 10
2.60721
 20
2.11865
 30
0.0
 40
0
 41
0
  0
VERTEX
  8
0
 10
2.58247
 20
2.13222
 30
0.0
 40
0
 41
0
  0
VERTEX
  8
0
 10
2.55783
 20
2.13672
 30
0.0
 40
0
 41
0
  0
VERTEX
  8
0
 10
2.54958
 20
2.13699
 30
0.0
 40
0
 41
0
  0
VERTEX
  8
0
 10
2.53674
 20
2.14501
 30
0.0
 40
0
 41
0
  0
VERTEX
  8
0
 10
2.49328
 20
2.16103
 30
0.0
 40
0
 41
0
  0
VERTEX
  8
0
 10
2.43924
 20
2.16422
 30
0.0
 40
0
 41
0
  0
VERTEX
  8
0
 10
2.38971
 20
2.14931
 30
0.0
 40
0
 41
0
  0
VERTEX
  8
0
 10
2.34679
 20
2.11897
 30
0.0
 40
0
 41
0
  0
VERTEX
  8
0
 10
2.31287
 20
2.07607
 30
0.0
 40
0
 41
0
  0
VERTEX
  8
0
 10
2.2901
 20
2.02322
 30
0.0
 40
0
 41
0
  0
VERTEX
  8
0
 10
2.28071
 20
1.96322
 30
0.0
 40
0
 41
0
  0
VERTEX
  8
0
 10
2.28342
 20
1.91439
 30
0.0
 40
0
 41
0
  0
VERTEX
  8
0
 10
2.28694
 20
1.89865
 30
0.0
 40
0
 41
0
  0
VERTEX
  8
0
 10
2.28842
 20
1.89204
 30
0.0
 40
0
 41
0
  0
VERTEX
  8
0
 10
2.28743
 20
1.86942
 30
0.0
 40
0
 41
0
  0
VERTEX
  8
0
 10
2.27533
 20
1.85781
 30
0.0
 40
0
 41
0
  0
VERTEX
  8
0
 10
2.27126
 20
1.85672
 30
0.0
 40
0
 41
0
  0
VERTEX
  8
0
 10
2.26443
 20
1.85493
 30
0.0
 40
0
 41
0
  0
VERTEX
  8
0
 10
2.24169
 20
1.85769
 30
0.0
 40
0
 41
0
  0
VERTEX
  8
0
 10
2.2206
 20
1.87494
 30
0.0
 40
0
 41
0
  0
VERTEX
  8
0
 10
2.20796
 20
1.90321
 30
0.0
 40
0
 41
0
  0
VERTEX
  8
0
 10
2.20378
 20
1.92871
 30
0.0
 40
0
 41
0
  0
VERTEX
  8
0
 10
2.20378
 20
1.93718
 30
0.0
 40
0
 41
0
  0
VERTEX
  8
0
 10
2.20432
 20
2.73762
 30
0.0
 40
0
 41
0
  0
VERTEX
  8
0
 10
2.19303
 20
2.73807
 30
0.0
 40
0
 41
0
  0
VERTEX
  8
0
 10
2.0919
 20
2.73247
 30
0.0
 40
0
 41
0
  0
VERTEX
  8
0
 10
2.08296
 20
2.7309
 30
0.0
 40
0
 41
0
  0
VERTEX
  8
0
 10
2.07937
 20
2.43099
 30
0.0
 40
0
 41
0
  0
VERTEX
  8
0
 10
1.99203
 20
2.70144
 30
0.0
 40
0
 41
0
  0
VERTEX
  8
0
 10
1.97999
 20
2.69515
 30
0.0
 40
0
 41
0
  0
VERTEX
  8
0
 10
1.92919
 20
2.65272
 30
0.0
 40
0
 41
0
  0
VERTEX
  8
0
 10
1.8904
 20
2.59506
 30
0.0
 40
0
 41
0
  0
VERTEX
  8
0
 10
1.88444
 20
2.58111
 30
0.0
 40
0
 41
0
  0
VERTEX
  8
0
 10
1.96289
 20
2.25586
 30
0.0
 40
0
 41
0
  0
VERTEX
  8
0
 10
1.85064
 20
2.4509
 30
0.0
 40
0
 41
0
  0
VERTEX
  8
0
 10
1.84879
 20
2.44032
 30
0.0
 40
0
 41
0
  0
VERTEX
  8
0
 10
1.83979
 20
2.34179
 30
0.0
 40
0
 41
0
  0
VERTEX
  8
0
 10
1.83979
 20
2.30892
 30
0.0
 40
0
 41
0
  0
VERTEX
  8
0
 10
1.61274
 20
2.30892
 30
0.0
 40
0
 41
0
  0
VERTEX
  8
0
 10
1.61274
 20
2.96218
 30
0.0
 40
0
 41
0
  0
VERTEX
  8
0
 10
3.25988
 20
2.96218
 30
0.0
 40
0
 41
0
  0
SEQEND
 8
0
  0
POLYLINE
  8
0
 62
     0
 66
     1
 10
0
 20
0
 30
0.0
 70
     1
 40
0
 41
0
  0
VERTEX
  8
0
 10
0.244032
 20
1.04964
 30
0.0
 40
0
 41
0
  0
VERTEX
  8
0
 10
0.230903
 20
1.04964
 30
0.0
 40
0
 41
0
  0
VERTEX
  8
0
 10
0.213542
 20
1.04964
 30
0.0
 40
0
 41
0
  0
VERTEX
  8
0
 10
0.161621
 20
1.03765
 30
0.0
 40
0
 41
0
  0
VERTEX
  8
0
 10
0.120334
 20
1.00971
 30
0.0
 40
0
 41
0
  0
VERTEX
  8
0
 10
0.114258
 20
1.00174
 30
0.0
 40
0
 41
0
  0
VERTEX
  8
0
 10
0.108181
 20
0.993761
 30
0.0
 40
0
 41
0
  0
VERTEX
  8
0
 10
0.0865343
 20
0.938965
 30
0.0
 40
0
 41
0
  0
VERTEX
  8
0
 10
0.0765517
 20
0.864312
 30
0.0
 40
0
 41
0
  0
VERTEX
  8
0
 10
0.0763346
 20
0.846408
 30
0.0
 40
0
 41
0
  0
VERTEX
  8
0
 10
0
 20
0.846408
 30
0.0
 40
0
 41
0
  0
VERTEX
  8
0
 10
0
 20
1.12305
 30
0.0
 40
0
 41
0
  0
VERTEX
  8
0
 10
0.629015
 20
1.12305
 30
0.0
 40
0
 41
0
  0
VERTEX
  8
0
 10
0.629015
 20
0.846408
 30
0.0
 40
0
 41
0
  0
VERTEX
  8
0
 10
0.552681
 20
0.846408
 30
0.0
 40
0
 41
0
  0
VERTEX
  8
0
 10
0.552518
 20
0.864094
 30
0.0
 40
0
 41
0
  0
VERTEX
  8
0
 10
0.542806
 20
0.938097
 30
0.0
 40
0
 41
0
  0
VERTEX
  8
0
 10
0.521322
 20
0.992947
 30
0.0
 40
0
 41
0
  0
VERTEX
  8
0
 10
0.515246
 20
1.00103
 30
0.0
 40
0
 41
0
  0
VERTEX
  8
0
 10
0.509169
 20
1.00917
 30
0.0
 40
0
 41
0
  0
VERTEX
  8
0
 10
0.467936
 20
1.03749
 30
0.0
 40
0
 41
0
  0
VERTEX
  8
0
 10
0.416288
 20
1.04964
 30
0.0
 40
0
 41
0
  0
VERTEX
  8
0
 10
0.399089
 20
1.04964
 30
0.0
 40
0
 41
0
  0
VERTEX
  8
0
 10
0.384494
 20
1.04964
 30
0.0
 40
0
 41
0
  0
VERTEX
  8
0
 10
0.384494
 20
0.592719
 30
0.0
 40
0
 41
0
  0
VERTEX
  8
0
 10
0.384494
 20
0.584526
 30
0.0
 40
0
 41
0
  0
VERTEX
  8
0
 10
0.387207
 20
0.559787
 30
0.0
 40
0
 41
0
  0
VERTEX
  8
0
 10
0.393608
 20
0.543457
 30
0.0
 40
0
 41
0
  0
VERTEX
  8
0
 10
0.395454
 20
0.541667
 30
0.0
 40
0
 41
0
  0
VERTEX
  8
0
 10
0.397244
 20
0.539876
 30
0.0
 40
0
 41
0
  0
VERTEX
  8
0
 10
0.414822
 20
0.533638
 30
0.0
 40
0
 41
0
  0
VERTEX
  8
0
 10
0.442003
 20
0.530979
 30
0.0
 40
0
 41
0
  0
VERTEX
  8
0
 10
0.451118
 20
0.530979
 30
0.0
 40
0
 41
0
  0
VERTEX
  8
0
 10
0.507975
 20
0.530979
 30
0.0
 40
0
 41
0
  0
VERTEX
  8
0
 10
0.507975
 20
0.455132
 30
0.0
 40
0
 41
0
  0
VERTEX
  8
0
 10
0.120551
 20
0.455132
 30
0.0
 40
0
 41
0
  0
VERTEX
  8
0
 10
0.120551
 20
0.530979
 30
0.0
 40
0
 41
0
  0
VERTEX
  8
0
 10
0.178386
 20
0.530979
 30
0.0
 40
0
 41
0
  0
VERTEX
  8
0
 10
0.187338
 20
0.530979
 30
0.0
 40
0
 41
0
  0
VERTEX
  8
0
 10
0.214247
 20
0.533583
 30
0.0
 40
0
 41
0
  0
VERTEX
  8
0
 10
0.231554
 20
0.53966
 30
0.0
 40
0
 41
0
  0
VERTEX
  8
0
 10
0.233344
 20
0.541396
 30
0.0
 40
0
 41
0
  0
VERTEX
  8
0
 10
0.235081
 20
0.543186
 30
0.0
 40
0
 41
0
  0
VERTEX
  8
0
 10
0.241319
 20
0.559517
 30
0.0
 40
0
 41
0
  0
VERTEX
  8
0
 10
0.244032
 20
0.584418
 30
0.0
 40
0
 41
0
  0
VERTEX
  8
0
 10
0.244032
 20
0.592719
 30
0.0
 40
0
 41
0
  0
VERTEX
  8
0
 10
0.244032
 20
1.04964
 30
0.0
 40
0
 41
0
  0
SEQEND
 8
0
  0
POLYLINE
  8
0
 62
     0
 66
     1
 10
0
 20
0
 30
0.0
 70
     1
 40
0
 41
0
  0
VERTEX
  8
0
 10
0.968587
 20
0.750706
 30
0.0
 40
0
 41
0
  0
VERTEX
  8
0
 10
0.967828
 20
0.761556
 30
0.0
 40
0
 41
0
  0
VERTEX
  8
0
 10
0.959744
 20
0.807075
 30
0.0
 40
0
 41
0
  0
VERTEX
  8
0
 10
0.945747
 20
0.840929
 30
0.0
 40
0
 41
0
  0
VERTEX
  8
0
 10
0.942057
 20
0.845921
 30
0.0
 40
0
 41
0
  0
VERTEX
  8
0
 10
0.938368
 20
0.850965
 30
0.0
 40
0
 41
0
  0
VERTEX
  8
0
 10
0.914768
 20
0.868599
 30
0.0
 40
0
 41
0
  0
VERTEX
  8
0
 10
0.886556
 20
0.876085
 30
0.0
 40
0
 41
0
  0
VERTEX
  8
0
 10
0.877171
 20
0.876085
 30
0.0
 40
0
 41
0
  0
VERTEX
  8
0
 10
0.867242
 20
0.876085
 30
0.0
 40
0
 41
0
  0
VERTEX
  8
0
 10
0.837511
 20
0.868164
 30
0.0
 40
0
 41
0
  0
VERTEX
  8
0
 10
0.810547
 20
0.849556
 30
0.0
 40
0
 41
0
  0
VERTEX
  8
0
 10
0.80599
 20
0.844239
 30
0.0
 40
0
 41
0
  0
VERTEX
  8
0
 10
0.801378
 20
0.838976
 30
0.0
 40
0
 41
0
  0
VERTEX
  8
0
 10
0.783149
 20
0.804958
 30
0.0
 40
0
 41
0
  0
VERTEX
  8
0
 10
0.771213
 20
0.761014
 30
0.0
 40
0
 41
0
  0
VERTEX
  8
0
 10
0.769749
 20
0.750706
 30
0.0
 40
0
 41
0
  0
VERTEX
  8
0
 10
0.968587
 20
0.750706
 30
0.0
 40
0
 41
0
  0
SEQEND
 8
0
  0
POLYLINE
  8
0
 62
     0
 66
     1
 10
0
 20
0
 30
0.0
 70
     1
 40
0
 41
0
  0
VERTEX
  8
0
 10
1.01378
 20
0.623318
 30
0.0
 40
0
 41
0
  0
VERTEX
  8
0
 10
1.09738
 20
0.623318
 30
0.0
 40
0
 41
0
  0
VERTEX
  8
0
 10
1.09559
 20
0.608942
 30
0.0
 40
0
 41
0
  0
VERTEX
  8
0
 10
1.07471
 20
0.546007
 30
0.0
 40
0
 41
0
  0
VERTEX
  8
0
 10
1.03787
 20
0.495281
 30
0.0
 40
0
 41
0
  0
VERTEX
  8
0
 10
1.0281
 20
0.486979
 30
0.0
 40
0
 41
0
  0
VERTEX
  8
0
 10
1.01834
 20
0.478678
 30
0.0
 40
0
 41
0
  0
VERTEX
  8
0
 10
0.961317
 20
0.449653
 30
0.0
 40
0
 41
0
  0
VERTEX
  8
0
 10
0.898926
 20
0.437175
 30
0.0
 40
0
 41
0
  0
VERTEX
  8
0
 10
0.878147
 20
0.437175
 30
0.0
 40
0
 41
0
  0
VERTEX
  8
0
 10
0.864637
 20
0.437175
 30
0.0
 40
0
 41
0
  0
VERTEX
  8
0
 10
0.824164
 20
0.441515
 30
0.0
 40
0
 41
0
  0
VERTEX
  8
0
 10
0.775933
 20
0.454372
 30
0.0
 40
0
 41
0
  0
VERTEX
  8
0
 10
0.733453
 20
0.475857
 30
0.0
 40
0
 41
0
  0
VERTEX
  8
0
 10
0.705078
 20
0.497558
 30
0.0
 40
0
 41
0
  0
VERTEX
  8
0
 10
0.696832
 20
0.505914
 30
0.0
 40
0
 41
0
  0
VERTEX
  8
0
 10
0.688531
 20
0.514378
 30
0.0
 40
0
 41
0
  0
VERTEX
  8
0
 10
0.667264
 20
0.54324
 30
0.0
 40
0
 41
0
  0
VERTEX
  8
0
 10
0.646158
 20
0.586317
 30
0.0
 40
0
 41
0
  0
VERTEX
  8
0
 10
0.633464
 20
0.635254
 30
0.0
 40
0
 41
0
  0
VERTEX
  8
0
 10
0.629286
 20
0.676269
 30
0.0
 40
0
 41
0
  0
VERTEX
  8
0
 10
0.629286
 20
0.689942
 30
0.0
 40
0
 41
0
  0
VERTEX
  8
0
 10
0.629286
 20
0.703504
 30
0.0
 40
0
 41
0
  0
VERTEX
  8
0
 10
0.633518
 20
0.744086
 30
0.0
 40
0
 41
0
  0
VERTEX
  8
0
 10
0.646322
 20
0.792697
 30
0.0
 40
0
 41
0
  0
VERTEX
  8
0
 10
0.667643
 20
0.835829
 30
0.0
 40
0
 41
0
  0
VERTEX
  8
0
 10
0.689236
 20
0.864908
 30
0.0
 40
0
 41
0
  0
VERTEX
  8
0
 10
0.697592
 20
0.873426
 30
0.0
 40
0
 41
0
  0
VERTEX
  8
0
 10
0.705892
 20
0.881944
 30
0.0
 40
0
 41
0
  0
VERTEX
  8
0
 10
0.734429
 20
0.903971
 30
0.0
 40
0
 41
0
  0
VERTEX
  8
0
 10
0.776856
 20
0.925726
 30
0.0
 40
0
 41
0
  0
VERTEX
  8
0
 10
0.824707
 20
0.938803
 30
0.0
 40
0
 41
0
  0
VERTEX
  8
0
 10
0.864746
 20
0.943143
 30
0.0
 40
0
 41
0
  0
VERTEX
  8
0
 10
0.878147
 20
0.943143
 30
0.0
 40
0
 41
0
  0
VERTEX
  8
0
 10
0.890842
 20
0.943143
 30
0.0
 40
0
 41
0
  0
VERTEX
  8
0
 10
0.92909
 20
0.938965
 30
0.0
 40
0
 41
0
  0
VERTEX
  8
0
 10
0.973633
 20
0.926378
 30
0.0
 40
0
 41
0
  0
VERTEX
  8
0
 10
1.01177
 20
0.905328
 30
0.0
 40
0
 41
0
  0
VERTEX
  8
0
 10
1.03651
 20
0.88406
 30
0.0
 40
0
 41
0
  0
VERTEX
  8
0
 10
1.04346
 20
0.875868
 30
0.0
 40
0
 41
0
  0
VERTEX
  8
0
 10
1.05062
 20
0.86735
 30
0.0
 40
0
 41
0
  0
VERTEX
  8
0
 10
1.06831
 20
0.838379
 30
0.0
 40
0
 41
0
  0
VERTEX
  8
0
 10
1.08605
 20
0.793294
 30
0.0
 40
0
 41
0
  0
VERTEX
  8
0
 10
1.09673
 20
0.74056
 30
0.0
 40
0
 41
0
  0
VERTEX
  8
0
 10
1.10032
 20
0.695313
 30
0.0
 40
0
 41
0
  0
VERTEX
  8
0
 10
1.10032
 20
0.680176
 30
0.0
 40
0
 41
0
  0
VERTEX
  8
0
 10
0.764919
 20
0.680176
 30
0.0
 40
0
 41
0
  0
VERTEX
  8
0
 10
0.765354
 20
0.666938
 30
0.0
 40
0
 41
0
  0
VERTEX
  8
0
 10
0.774794
 20
0.609972
 30
0.0
 40
0
 41
0
  0
VERTEX
  8
0
 10
0.793511
 20
0.565647
 30
0.0
 40
0
 41
0
  0
VERTEX
  8
0
 10
0.798665
 20
0.558649
 30
0.0
 40
0
 41
0
  0
VERTEX
  8
0
 10
0.803819
 20
0.551704
 30
0.0
 40
0
 41
0
  0
VERTEX
  8
0
 10
0.835775
 20
0.527344
 30
0.0
 40
0
 41
0
  0
VERTEX
  8
0
 10
0.873047
 20
0.516872
 30
0.0
 40
0
 41
0
  0
VERTEX
  8
0
 10
0.885471
 20
0.516872
 30
0.0
 40
0
 41
0
  0
VERTEX
  8
0
 10
0.898004
 20
0.516872
 30
0.0
 40
0
 41
0
  0
VERTEX
  8
0
 10
0.935764
 20
0.523058
 30
0.0
 40
0
 41
0
  0
VERTEX
  8
0
 10
0.967285
 20
0.537326
 30
0.0
 40
0
 41
0
  0
VERTEX
  8
0
 10
0.972222
 20
0.541396
 30
0.0
 40
0
 41
0
  0
VERTEX
  8
0
 10
0.977106
 20
0.545518
 30
0.0
 40
0
 41
0
  0
VERTEX
  8
0
 10
0.997288
 20
0.574164
 30
0.0
 40
0
 41
0
  0
VERTEX
  8
0
 10
1.01172
 20
0.613769
 30
0.0
 40
0
 41
0
  0
VERTEX
  8
0
 10
1.01378
 20
0.623318
 30
0.0
 40
0
 41
0
  0
SEQEND
 8
0
  0
POLYLINE
  8
0
 62
     0
 66
     1
 10
0
 20
0
 30
0.0
 70
     1
 40
0
 41
0
  0
VERTEX
  8
0
 10
1.14128
 20
0.455132
 30
0.0
 40
0
 41
0
  0
VERTEX
  8
0
 10
1.14128
 20
0.521701
 30
0.0
 40
0
 41
0
  0
VERTEX
  8
0
 10
1.17437
 20
0.521701
 30
0.0
 40
0
 41
0
  0
VERTEX
  8
0
 10
1.18142
 20
0.521701
 30
0.0
 40
0
 41
0
  0
VERTEX
  8
0
 10
1.20264
 20
0.524414
 30
0.0
 40
0
 41
0
  0
VERTEX
  8
0
 10
1.21767
 20
0.530653
 30
0.0
 40
0
 41
0
  0
VERTEX
  8
0
 10
1.21956
 20
0.532389
 30
0.0
 40
0
 41
0
  0
VERTEX
  8
0
 10
1.22141
 20
0.534179
 30
0.0
 40
0
 41
0
  0
VERTEX
  8
0
 10
1.22792
 20
0.550076
 30
0.0
 40
0
 41
0
  0
VERTEX
  8
0
 10
1.23074
 20
0.573676
 30
0.0
 40
0
 41
0
  0
VERTEX
  8
0
 10
1.23074
 20
0.581489
 30
0.0
 40
0
 41
0
  0
VERTEX
  8
0
 10
1.23074
 20
0.798774
 30
0.0
 40
0
 41
0
  0
VERTEX
  8
0
 10
1.23074
 20
0.80664
 30
0.0
 40
0
 41
0
  0
VERTEX
  8
0
 10
1.22792
 20
0.83024
 30
0.0
 40
0
 41
0
  0
VERTEX
  8
0
 10
1.22141
 20
0.845921
 30
0.0
 40
0
 41
0
  0
VERTEX
  8
0
 10
1.21956
 20
0.847657
 30
0.0
 40
0
 41
0
  0
VERTEX
  8
0
 10
1.21767
 20
0.849393
 30
0.0
 40
0
 41
0
  0
VERTEX
  8
0
 10
1.20264
 20
0.855524
 30
0.0
 40
0
 41
0
  0
VERTEX
  8
0
 10
1.18142
 20
0.858128
 30
0.0
 40
0
 41
0
  0
VERTEX
  8
0
 10
1.17437
 20
0.858128
 30
0.0
 40
0
 41
0
  0
VERTEX
  8
0
 10
1.14128
 20
0.858128
 30
0.0
 40
0
 41
0
  0
VERTEX
  8
0
 10
1.14128
 20
0.925185
 30
0.0
 40
0
 41
0
  0
VERTEX
  8
0
 10
1.35129
 20
0.925185
 30
0.0
 40
0
 41
0
  0
VERTEX
  8
0
 10
1.35129
 20
0.842557
 30
0.0
 40
0
 41
0
  0
VERTEX
  8
0
 10
1.35775
 20
0.850694
 30
0.0
 40
0
 41
0
  0
VERTEX
  8
0
 10
1.42438
 20
0.911458
 30
0.0
 40
0
 41
0
  0
VERTEX
  8
0
 10
1.43126
 20
0.915474
 30
0.0
 40
0
 41
0
  0
VERTEX
  8
0
 10
1.4381
 20
0.919542
 30
0.0
 40
0
 41
0
  0
VERTEX
  8
0
 10
1.49544
 20
0.939779
 30
0.0
 40
0
 41
0
  0
VERTEX
  8
0
 10
1.5146
 20
0.939779
 30
0.0
 40
0
 41
0
  0
VERTEX
  8
0
 10
1.53201
 20
0.939779
 30
0.0
 40
0
 41
0
  0
VERTEX
  8
0
 10
1.58436
 20
0.92985
 30
0.0
 40
0
 41
0
  0
VERTEX
  8
0
 10
1.62538
 20
0.906575
 30
0.0
 40
0
 41
0
  0
VERTEX
  8
0
 10
1.63129
 20
0.899903
 30
0.0
 40
0
 41
0
  0
VERTEX
  8
0
 10
1.63721
 20
0.893283
 30
0.0
 40
0
 41
0
  0
VERTEX
  8
0
 10
1.65787
 20
0.846679
 30
0.0
 40
0
 41
0
  0
VERTEX
  8
0
 10
1.66678
 20
0.786729
 30
0.0
 40
0
 41
0
  0
VERTEX
  8
0
 10
1.66678
 20
0.76671
 30
0.0
 40
0
 41
0
  0
VERTEX
  8
0
 10
1.66678
 20
0.581489
 30
0.0
 40
0
 41
0
  0
VERTEX
  8
0
 10
1.66678
 20
0.573676
 30
0.0
 40
0
 41
0
  0
VERTEX
  8
0
 10
1.6696
 20
0.550076
 30
0.0
 40
0
 41
0
  0
VERTEX
  8
0
 10
1.67626
 20
0.534179
 30
0.0
 40
0
 41
0
  0
VERTEX
  8
0
 10
1.67817
 20
0.532389
 30
0.0
 40
0
 41
0
  0
VERTEX
  8
0
 10
1.68007
 20
0.530653
 30
0.0
 40
0
 41
0
  0
VERTEX
  8
0
 10
1.69526
 20
0.524414
 30
0.0
 40
0
 41
0
  0
VERTEX
  8
0
 10
1.71653
 20
0.521701
 30
0.0
 40
0
 41
0
  0
VERTEX
  8
0
 10
1.72364
 20
0.521701
 30
0.0
 40
0
 41
0
  0
VERTEX
  8
0
 10
1.75282
 20
0.521701
 30
0.0
 40
0
 41
0
  0
VERTEX
  8
0
 10
1.75282
 20
0.455132
 30
0.0
 40
0
 41
0
  0
VERTEX
  8
0
 10
1.46989
 20
0.455132
 30
0.0
 40
0
 41
0
  0
VERTEX
  8
0
 10
1.46989
 20
0.521701
 30
0.0
 40
0
 41
0
  0
VERTEX
  8
0
 10
1.48986
 20
0.521701
 30
0.0
 40
0
 41
0
  0
VERTEX
  8
0
 10
1.4969
 20
0.521701
 30
0.0
 40
0
 41
0
  0
VERTEX
  8
0
 10
1.51818
 20
0.524414
 30
0.0
 40
0
 41
0
  0
VERTEX
  8
0
 10
1.53336
 20
0.530653
 30
0.0
 40
0
 41
0
  0
VERTEX
  8
0
 10
1.53526
 20
0.532389
 30
0.0
 40
0
 41
0
  0
VERTEX
  8
0
 10
1.53717
 20
0.534179
 30
0.0
 40
0
 41
0
  0
VERTEX
  8
0
 10
1.54383
 20
0.550076
 30
0.0
 40
0
 41
0
  0
VERTEX
  8
0
 10
1.54671
 20
0.573676
 30
0.0
 40
0
 41
0
  0
VERTEX
  8
0
 10
1.54671
 20
0.581489
 30
0.0
 40
0
 41
0
  0
VERTEX
  8
0
 10
1.54671
 20
0.76671
 30
0.0
 40
0
 41
0
  0
VERTEX
  8
0
 10
1.54671
 20
0.777886
 30
0.0
 40
0
 41
0
  0
VERTEX
  8
0
 10
1.54238
 20
0.811307
 30
0.0
 40
0
 41
0
  0
VERTEX
  8
0
 10
1.53233
 20
0.837403
 30
0.0
 40
0
 41
0
  0
VERTEX
  8
0
 10
1.52946
 20
0.841092
 30
0.0
 40
0
 41
0
  0
VERTEX
  8
0
 10
1.52653
 20
0.844835
 30
0.0
 40
0
 41
0
  0
VERTEX
  8
0
 10
1.50662
 20
0.85791
 30
0.0
 40
0
 41
0
  0
VERTEX
  8
0
 10
1.48122
 20
0.863444
 30
0.0
 40
0
 41
0
  0
VERTEX
  8
0
 10
1.47282
 20
0.863444
 30
0.0
 40
0
 41
0
  0
VERTEX
  8
0
 10
1.46018
 20
0.863444
 30
0.0
 40
0
 41
0
  0
VERTEX
  8
0
 10
1.42236
 20
0.852756
 30
0.0
 40
0
 41
0
  0
VERTEX
  8
0
 10
1.38926
 20
0.827854
 30
0.0
 40
0
 41
0
  0
VERTEX
  8
0
 10
1.38384
 20
0.820692
 30
0.0
 40
0
 41
0
  0
VERTEX
  8
0
 10
1.37842
 20
0.813585
 30
0.0
 40
0
 41
0
  0
VERTEX
  8
0
 10
1.35943
 20
0.769911
 30
0.0
 40
0
 41
0
  0
VERTEX
  8
0
 10
1.35129
 20
0.719781
 30
0.0
 40
0
 41
0
  0
VERTEX
  8
0
 10
1.35129
 20
0.703017
 30
0.0
 40
0
 41
0
  0
VERTEX
  8
0
 10
1.35129
 20
0.581489
 30
0.0
 40
0
 41
0
  0
VERTEX
  8
0
 10
1.35129
 20
0.573676
 30
0.0
 40
0
 41
0
  0
VERTEX
  8
0
 10
1.35411
 20
0.550076
 30
0.0
 40
0
 41
0
  0
VERTEX
  8
0
 10
1.36079
 20
0.534179
 30
0.0
 40
0
 41
0
  0
VERTEX
  8
0
 10
1.36268
 20
0.532389
 30
0.0
 40
0
 41
0
  0
VERTEX
  8
0
 10
1.36458
 20
0.530653
 30
0.0
 40
0
 41
0
  0
VERTEX
  8
0
 10
1.37978
 20
0.524414
 30
0.0
 40
0
 41
0
  0
VERTEX
  8
0
 10
1.40104
 20
0.521701
 30
0.0
 40
0
 41
0
  0
VERTEX
  8
0
 10
1.40815
 20
0.521701
 30
0.0
 40
0
 41
0
  0
VERTEX
  8
0
 10
1.42811
 20
0.521701
 30
0.0
 40
0
 41
0
  0
VERTEX
  8
0
 10
1.42811
 20
0.455132
 30
0.0
 40
0
 41
0
  0
VERTEX
  8
0
 10
1.14128
 20
0.455132
 30
0.0
 40
0
 41
0
  0
SEQEND
 8
0
  0
POLYLINE
  8
0
 62
     0
 66
     1
 10
0
 20
0
 30
0.0
 70
     1
 40
0
 41
0
  0
VERTEX
  8
0
 10
1.78418
 20
0.455132
 30
0.0
 40
0
 41
0
  0
VERTEX
  8
0
 10
1.78418
 20
0.521701
 30
0.0
 40
0
 41
0
  0
VERTEX
  8
0
 10
1.81722
 20
0.521701
 30
0.0
 40
0
 41
0
  0
VERTEX
  8
0
 10
1.82428
 20
0.521701
 30
0.0
 40
0
 41
0
  0
VERTEX
  8
0
 10
1.84554
 20
0.524414
 30
0.0
 40
0
 41
0
  0
VERTEX
  8
0
 10
1.86057
 20
0.530653
 30
0.0
 40
0
 41
0
  0
VERTEX
  8
0
 10
1.86247
 20
0.532389
 30
0.0
 40
0
 41
0
  0
VERTEX
  8
0
 10
1.86431
 20
0.534179
 30
0.0
 40
0
 41
0
  0
VERTEX
  8
0
 10
1.87082
 20
0.550076
 30
0.0
 40
0
 41
0
  0
VERTEX
  8
0
 10
1.87364
 20
0.573676
 30
0.0
 40
0
 41
0
  0
VERTEX
  8
0
 10
1.87364
 20
0.581489
 30
0.0
 40
0
 41
0
  0
VERTEX
  8
0
 10
1.87364
 20
0.798774
 30
0.0
 40
0
 41
0
  0
VERTEX
  8
0
 10
1.87364
 20
0.80664
 30
0.0
 40
0
 41
0
  0
VERTEX
  8
0
 10
1.87082
 20
0.83024
 30
0.0
 40
0
 41
0
  0
VERTEX
  8
0
 10
1.86431
 20
0.845921
 30
0.0
 40
0
 41
0
  0
VERTEX
  8
0
 10
1.86247
 20
0.847657
 30
0.0
 40
0
 41
0
  0
VERTEX
  8
0
 10
1.86057
 20
0.849393
 30
0.0
 40
0
 41
0
  0
VERTEX
  8
0
 10
1.84554
 20
0.855524
 30
0.0
 40
0
 41
0
  0
VERTEX
  8
0
 10
1.82428
 20
0.858128
 30
0.0
 40
0
 41
0
  0
VERTEX
  8
0
 10
1.81722
 20
0.858128
 30
0.0
 40
0
 41
0
  0
VERTEX
  8
0
 10
1.78418
 20
0.858128
 30
0.0
 40
0
 41
0
  0
VERTEX
  8
0
 10
1.78418
 20
0.925185
 30
0.0
 40
0
 41
0
  0
VERTEX
  8
0
 10
1.99419
 20
0.925185
 30
0.0
 40
0
 41
0
  0
VERTEX
  8
0
 10
1.99419
 20
0.842557
 30
0.0
 40
0
 41
0
  0
VERTEX
  8
0
 10
2.00065
 20
0.850694
 30
0.0
 40
0
 41
0
  0
VERTEX
  8
0
 10
2.06728
 20
0.911458
 30
0.0
 40
0
 41
0
  0
VERTEX
  8
0
 10
2.07417
 20
0.915474
 30
0.0
 40
0
 41
0
  0
VERTEX
  8
0
 10
2.081
 20
0.919542
 30
0.0
 40
0
 41
0
  0
VERTEX
  8
0
 10
2.13835
 20
0.939779
 30
0.0
 40
0
 41
0
  0
VERTEX
  8
0
 10
2.1575
 20
0.939779
 30
0.0
 40
0
 41
0
  0
VERTEX
  8
0
 10
2.17492
 20
0.939779
 30
0.0
 40
0
 41
0
  0
VERTEX
  8
0
 10
2.22721
 20
0.92985
 30
0.0
 40
0
 41
0
  0
VERTEX
  8
0
 10
2.26824
 20
0.906575
 30
0.0
 40
0
 41
0
  0
VERTEX
  8
0
 10
2.27414
 20
0.899903
 30
0.0
 40
0
 41
0
  0
VERTEX
  8
0
 10
2.28006
 20
0.893283
 30
0.0
 40
0
 41
0
  0
VERTEX
  8
0
 10
2.30078
 20
0.846679
 30
0.0
 40
0
 41
0
  0
VERTEX
  8
0
 10
2.30968
 20
0.786729
 30
0.0
 40
0
 41
0
  0
VERTEX
  8
0
 10
2.30968
 20
0.76671
 30
0.0
 40
0
 41
0
  0
VERTEX
  8
0
 10
2.30968
 20
0.581489
 30
0.0
 40
0
 41
0
  0
VERTEX
  8
0
 10
2.30968
 20
0.573676
 30
0.0
 40
0
 41
0
  0
VERTEX
  8
0
 10
2.3125
 20
0.550076
 30
0.0
 40
0
 41
0
  0
VERTEX
  8
0
 10
2.31917
 20
0.534179
 30
0.0
 40
0
 41
0
  0
VERTEX
  8
0
 10
2.32107
 20
0.532389
 30
0.0
 40
0
 41
0
  0
VERTEX
  8
0
 10
2.32297
 20
0.530653
 30
0.0
 40
0
 41
0
  0
VERTEX
  8
0
 10
2.33811
 20
0.524414
 30
0.0
 40
0
 41
0
  0
VERTEX
  8
0
 10
2.35943
 20
0.521701
 30
0.0
 40
0
 41
0
  0
VERTEX
  8
0
 10
2.36654
 20
0.521701
 30
0.0
 40
0
 41
0
  0
VERTEX
  8
0
 10
2.39567
 20
0.521701
 30
0.0
 40
0
 41
0
  0
VERTEX
  8
0
 10
2.39567
 20
0.455132
 30
0.0
 40
0
 41
0
  0
VERTEX
  8
0
 10
2.11279
 20
0.455132
 30
0.0
 40
0
 41
0
  0
VERTEX
  8
0
 10
2.11279
 20
0.521701
 30
0.0
 40
0
 41
0
  0
VERTEX
  8
0
 10
2.13271
 20
0.521701
 30
0.0
 40
0
 41
0
  0
VERTEX
  8
0
 10
2.13976
 20
0.521701
 30
0.0
 40
0
 41
0
  0
VERTEX
  8
0
 10
2.16108
 20
0.524414
 30
0.0
 40
0
 41
0
  0
VERTEX
  8
0
 10
2.17626
 20
0.530653
 30
0.0
 40
0
 41
0
  0
VERTEX
  8
0
 10
2.17817
 20
0.532389
 30
0.0
 40
0
 41
0
  0
VERTEX
  8
0
 10
2.18007
 20
0.534179
 30
0.0
 40
0
 41
0
  0
VERTEX
  8
0
 10
2.18674
 20
0.550076
 30
0.0
 40
0
 41
0
  0
VERTEX
  8
0
 10
2.18961
 20
0.573676
 30
0.0
 40
0
 41
0
  0
VERTEX
  8
0
 10
2.18961
 20
0.581489
 30
0.0
 40
0
 41
0
  0
VERTEX
  8
0
 10
2.18961
 20
0.76671
 30
0.0
 40
0
 41
0
  0
VERTEX
  8
0
 10
2.18961
 20
0.777886
 30
0.0
 40
0
 41
0
  0
VERTEX
  8
0
 10
2.18528
 20
0.811307
 30
0.0
 40
0
 41
0
  0
VERTEX
  8
0
 10
2.17518
 20
0.837403
 30
0.0
 40
0
 41
0
  0
VERTEX
  8
0
 10
2.17231
 20
0.841092
 30
0.0
 40
0
 41
0
  0
VERTEX
  8
0
 10
2.16943
 20
0.844835
 30
0.0
 40
0
 41
0
  0
VERTEX
  8
0
 10
2.14953
 20
0.85791
 30
0.0
 40
0
 41
0
  0
VERTEX
  8
0
 10
2.12414
 20
0.863444
 30
0.0
 40
0
 41
0
  0
VERTEX
  8
0
 10
2.11572
 20
0.863444
 30
0.0
 40
0
 41
0
  0
VERTEX
  8
0
 10
2.10308
 20
0.863444
 30
0.0
 40
0
 41
0
  0
VERTEX
  8
0
 10
2.06526
 20
0.852756
 30
0.0
 40
0
 41
0
  0
VERTEX
  8
0
 10
2.03217
 20
0.827854
 30
0.0
 40
0
 41
0
  0
VERTEX
  8
0
 10
2.02675
 20
0.820692
 30
0.0
 40
0
 41
0
  0
VERTEX
  8
0
 10
2.02132
 20
0.813585
 30
0.0
 40
0
 41
0
  0
VERTEX
  8
0
 10
2.00233
 20
0.769911
 30
0.0
 40
0
 41
0
  0
VERTEX
  8
0
 10
1.99419
 20
0.719781
 30
0.0
 40
0
 41
0
  0
VERTEX
  8
0
 10
1.99419
 20
0.703017
 30
0.0
 40
0
 41
0
  0
VERTEX
  8
0
 10
1.99419
 20
0.581489
 30
0.0
 40
0
 41
0
  0
VERTEX
  8
0
 10
1.99419
 20
0.573676
 30
0.0
 40
0
 41
0
  0
VERTEX
  8
0
 10
1.99701
 20
0.550076
 30
0.0
 40
0
 41
0
  0
VERTEX
  8
0
 10
2.00369
 20
0.534179
 30
0.0
 40
0
 41
0
  0
VERTEX
  8
0
 10
2.00558
 20
0.532389
 30
0.0
 40
0
 41
0
  0
VERTEX
  8
0
 10
2.00749
 20
0.530653
 30
0.0
 40
0
 41
0
  0
VERTEX
  8
0
 10
2.02268
 20
0.524414
 30
0.0
 40
0
 41
0
  0
VERTEX
  8
0
 10
2.04394
 20
0.521701
 30
0.0
 40
0
 41
0
  0
VERTEX
  8
0
 10
2.05106
 20
0.521701
 30
0.0
 40
0
 41
0
  0
VERTEX
  8
0
 10
2.07096
 20
0.521701
 30
0.0
 40
0
 41
0
  0
VERTEX
  8
0
 10
2.07096
 20
0.455132
 30
0.0
 40
0
 41
0
  0
VERTEX
  8
0
 10
1.78418
 20
0.455132
 30
0.0
 40
0
 41
0
  0
SEQEND
 8
0
  0
POLYLINE
  8
0
 62
     0
 66
     1
 10
0
 20
0
 30
0.0
 70
     1
 40
0
 41
0
  0
VERTEX
  8
0
 10
2.74235
 20
0.750706
 30
0.0
 40
0
 41
0
  0
VERTEX
  8
0
 10
2.7416
 20
0.761556
 30
0.0
 40
0
 41
0
  0
VERTEX
  8
0
 10
2.73356
 20
0.807075
 30
0.0
 40
0
 41
0
  0
VERTEX
  8
0
 10
2.71957
 20
0.840929
 30
0.0
 40
0
 41
0
  0
VERTEX
  8
0
 10
2.71588
 20
0.845921
 30
0.0
 40
0
 41
0
  0
VERTEX
  8
0
 10
2.71218
 20
0.850965
 30
0.0
 40
0
 41
0
  0
VERTEX
  8
0
 10
2.68858
 20
0.868599
 30
0.0
 40
0
 41
0
  0
VERTEX
  8
0
 10
2.66037
 20
0.876085
 30
0.0
 40
0
 41
0
  0
VERTEX
  8
0
 10
2.65099
 20
0.876085
 30
0.0
 40
0
 41
0
  0
VERTEX
  8
0
 10
2.64106
 20
0.876085
 30
0.0
 40
0
 41
0
  0
VERTEX
  8
0
 10
2.61128
 20
0.868164
 30
0.0
 40
0
 41
0
  0
VERTEX
  8
0
 10
2.58431
 20
0.849556
 30
0.0
 40
0
 41
0
  0
VERTEX
  8
0
 10
2.57975
 20
0.844239
 30
0.0
 40
0
 41
0
  0
VERTEX
  8
0
 10
2.57514
 20
0.838976
 30
0.0
 40
0
 41
0
  0
VERTEX
  8
0
 10
2.55697
 20
0.804958
 30
0.0
 40
0
 41
0
  0
VERTEX
  8
0
 10
2.54497
 20
0.761014
 30
0.0
 40
0
 41
0
  0
VERTEX
  8
0
 10
2.54357
 20
0.750706
 30
0.0
 40
0
 41
0
  0
VERTEX
  8
0
 10
2.74235
 20
0.750706
 30
0.0
 40
0
 41
0
  0
SEQEND
 8
0
  0
POLYLINE
  8
0
 62
     0
 66
     1
 10
0
 20
0
 30
0.0
 70
     1
 40
0
 41
0
  0
VERTEX
  8
0
 10
2.78754
 20
0.623318
 30
0.0
 40
0
 41
0
  0
VERTEX
  8
0
 10
2.87121
 20
0.623318
 30
0.0
 40
0
 41
0
  0
VERTEX
  8
0
 10
2.86942
 20
0.608942
 30
0.0
 40
0
 41
0
  0
VERTEX
  8
0
 10
2.84853
 20
0.546007
 30
0.0
 40
0
 41
0
  0
VERTEX
  8
0
 10
2.81168
 20
0.495281
 30
0.0
 40
0
 41
0
  0
VERTEX
  8
0
 10
2.80192
 20
0.486979
 30
0.0
 40
0
 41
0
  0
VERTEX
  8
0
 10
2.79215
 20
0.478678
 30
0.0
 40
0
 41
0
  0
VERTEX
  8
0
 10
2.73514
 20
0.449653
 30
0.0
 40
0
 41
0
  0
VERTEX
  8
0
 10
2.67275
 20
0.437175
 30
0.0
 40
0
 41
0
  0
VERTEX
  8
0
 10
2.65196
 20
0.437175
 30
0.0
 40
0
 41
0
  0
VERTEX
  8
0
 10
2.63846
 20
0.437175
 30
0.0
 40
0
 41
0
  0
VERTEX
  8
0
 10
2.59793
 20
0.441515
 30
0.0
 40
0
 41
0
  0
VERTEX
  8
0
 10
2.54975
 20
0.454372
 30
0.0
 40
0
 41
0
  0
VERTEX
  8
0
 10
2.50726
 20
0.475857
 30
0.0
 40
0
 41
0
  0
VERTEX
  8
0
 10
2.47889
 20
0.497558
 30
0.0
 40
0
 41
0
  0
VERTEX
  8
0
 10
2.47065
 20
0.505914
 30
0.0
 40
0
 41
0
  0
VERTEX
  8
0
 10
2.46235
 20
0.514378
 30
0.0
 40
0
 41
0
  0
VERTEX
  8
0
 10
2.44108
 20
0.54324
 30
0.0
 40
0
 41
0
  0
VERTEX
  8
0
 10
2.41997
 20
0.586317
 30
0.0
 40
0
 41
0
  0
VERTEX
  8
0
 10
2.40728
 20
0.635254
 30
0.0
 40
0
 41
0
  0
VERTEX
  8
0
 10
2.4031
 20
0.676269
 30
0.0
 40
0
 41
0
  0
VERTEX
  8
0
 10
2.4031
 20
0.689942
 30
0.0
 40
0
 41
0
  0
VERTEX
  8
0
 10
2.4031
 20
0.703504
 30
0.0
 40
0
 41
0
  0
VERTEX
  8
0
 10
2.40733
 20
0.744086
 30
0.0
 40
0
 41
0
  0
VERTEX
  8
0
 10
2.42014
 20
0.792697
 30
0.0
 40
0
 41
0
  0
VERTEX
  8
0
 10
2.44146
 20
0.835829
 30
0.0
 40
0
 41
0
  0
VERTEX
  8
0
 10
2.463
 20
0.864908
 30
0.0
 40
0
 41
0
  0
VERTEX
  8
0
 10
2.47136
 20
0.873426
 30
0.0
 40
0
 41
0
  0
VERTEX
  8
0
 10
2.47965
 20
0.881944
 30
0.0
 40
0
 41
0
  0
VERTEX
  8
0
 10
2.50825
 20
0.903971
 30
0.0
 40
0
 41
0
  0
VERTEX
  8
0
 10
2.55067
 20
0.925726
 30
0.0
 40
0
 41
0
  0
VERTEX
  8
0
 10
2.59853
 20
0.938803
 30
0.0
 40
0
 41
0
  0
VERTEX
  8
0
 10
2.63857
 20
0.943143
 30
0.0
 40
0
 41
0
  0
VERTEX
  8
0
 10
2.65196
 20
0.943143
 30
0.0
 40
0
 41
0
  0
VERTEX
  8
0
 10
2.66465
 20
0.943143
 30
0.0
 40
0
 41
0
  0
VERTEX
  8
0
 10
2.7029
 20
0.938965
 30
0.0
 40
0
 41
0
  0
VERTEX
  8
0
 10
2.74744
 20
0.926378
 30
0.0
 40
0
 41
0
  0
VERTEX
  8
0
 10
2.78554
 20
0.905328
 30
0.0
 40
0
 41
0
  0
VERTEX
  8
0
 10
2.81028
 20
0.88406
 30
0.0
 40
0
 41
0
  0
VERTEX
  8
0
 10
2.81722
 20
0.875868
 30
0.0
 40
0
 41
0
  0
VERTEX
  8
0
 10
2.82437
 20
0.86735
 30
0.0
 40
0
 41
0
  0
VERTEX
  8
0
 10
2.84207
 20
0.838379
 30
0.0
 40
0
 41
0
  0
VERTEX
  8
0
 10
2.85986
 20
0.793294
 30
0.0
 40
0
 41
0
  0
VERTEX
  8
0
 10
2.87056
 20
0.74056
 30
0.0
 40
0
 41
0
  0
VERTEX
  8
0
 10
2.87414
 20
0.695313
 30
0.0
 40
0
 41
0
  0
VERTEX
  8
0
 10
2.87414
 20
0.680176
 30
0.0
 40
0
 41
0
  0
VERTEX
  8
0
 10
2.53868
 20
0.680176
 30
0.0
 40
0
 41
0
  0
VERTEX
  8
0
 10
2.53917
 20
0.666938
 30
0.0
 40
0
 41
0
  0
VERTEX
  8
0
 10
2.54856
 20
0.609972
 30
0.0
 40
0
 41
0
  0
VERTEX
  8
0
 10
2.56733
 20
0.565647
 30
0.0
 40
0
 41
0
  0
VERTEX
  8
0
 10
2.57249
 20
0.558649
 30
0.0
 40
0
 41
0
  0
VERTEX
  8
0
 10
2.57758
 20
0.551704
 30
0.0
 40
0
 41
0
  0
VERTEX
  8
0
 10
2.6096
 20
0.527344
 30
0.0
 40
0
 41
0
  0
VERTEX
  8
0
 10
2.64681
 20
0.516872
 30
0.0
 40
0
 41
0
  0
VERTEX
  8
0
 10
2.65924
 20
0.516872
 30
0.0
 40
0
 41
0
  0
VERTEX
  8
0
 10
2.67182
 20
0.516872
 30
0.0
 40
0
 41
0
  0
VERTEX
  8
0
 10
2.70958
 20
0.523058
 30
0.0
 40
0
 41
0
  0
VERTEX
  8
0
 10
2.7411
 20
0.537326
 30
0.0
 40
0
 41
0
  0
VERTEX
  8
0
 10
2.74604
 20
0.541396
 30
0.0
 40
0
 41
0
  0
VERTEX
  8
0
 10
2.75092
 20
0.545518
 30
0.0
 40
0
 41
0
  0
VERTEX
  8
0
 10
2.77111
 20
0.574164
 30
0.0
 40
0
 41
0
  0
VERTEX
  8
0
 10
2.78549
 20
0.613769
 30
0.0
 40
0
 41
0
  0
VERTEX
  8
0
 10
2.78754
 20
0.623318
 30
0.0
 40
0
 41
0
  0
SEQEND
 8
0
  0
POLYLINE
  8
0
 62
     0
 66
     1
 10
0
 20
0
 30
0.0
 70
     1
 40
0
 41
0
  0
VERTEX
  8
0
 10
2.92583
 20
0.449274
 30
0.0
 40
0
 41
0
  0
VERTEX
  8
0
 10
2.92583
 20
0.641331
 30
0.0
 40
0
 41
0
  0
VERTEX
  8
0
 10
2.99875
 20
0.641331
 30
0.0
 40
0
 41
0
  0
VERTEX
  8
0
 10
3.00108
 20
0.630643
 30
0.0
 40
0
 41
0
  0
VERTEX
  8
0
 10
3.01958
 20
0.58469
 30
0.0
 40
0
 41
0
  0
VERTEX
  8
0
 10
3.04704
 20
0.548828
 30
0.0
 40
0
 41
0
  0
VERTEX
  8
0
 10
3.05393
 20
0.543132
 30
0.0
 40
0
 41
0
  0
VERTEX
  8
0
 10
3.06076
 20
0.537489
 30
0.0
 40
0
 41
0
  0
VERTEX
  8
0
 10
3.10026
 20
0.517632
 30
0.0
 40
0
 41
0
  0
VERTEX
  8
0
 10
3.14296
 20
0.50906
 30
0.0
 40
0
 41
0
  0
VERTEX
  8
0
 10
3.15722
 20
0.50906
 30
0.0
 40
0
 41
0
  0
VERTEX
  8
0
 10
3.16575
 20
0.50906
 30
0.0
 40
0
 41
0
  0
VERTEX
  8
0
 10
3.19135
 20
0.513292
 30
0.0
 40
0
 41
0
  0
VERTEX
  8
0
 10
3.21414
 20
0.523113
 30
0.0
 40
0
 41
0
  0
VERTEX
  8
0
 10
3.21799
 20
0.525879
 30
0.0
 40
0
 41
0
  0
VERTEX
  8
0
 10
3.22179
 20
0.5287
 30
0.0
 40
0
 41
0
  0
VERTEX
  8
0
 10
3.23508
 20
0.545518
 30
0.0
 40
0
 41
0
  0
VERTEX
  8
0
 10
3.24083
 20
0.564507
 30
0.0
 40
0
 41
0
  0
VERTEX
  8
0
 10
3.24083
 20
0.570801
 30
0.0
 40
0
 41
0
  0
VERTEX
  8
0
 10
3.24083
 20
0.579861
 30
0.0
 40
0
 41
0
  0
VERTEX
  8
0
 10
3.22542
 20
0.604764
 30
0.0
 40
0
 41
0
  0
VERTEX
  8
0
 10
3.22239
 20
0.607042
 30
0.0
 40
0
 41
0
  0
VERTEX
  8
0
 10
3.21929
 20
0.609375
 30
0.0
 40
0
 41
0
  0
VERTEX
  8
0
 10
3.19683
 20
0.620389
 30
0.0
 40
0
 41
0
  0
VERTEX
  8
0
 10
3.16499
 20
0.630643
 30
0.0
 40
0
 41
0
  0
VERTEX
  8
0
 10
3.15722
 20
0.632542
 30
0.0
 40
0
 41
0
  0
VERTEX
  8
0
 10
3.08333
 20
0.650065
 30
0.0
 40
0
 41
0
  0
VERTEX
  8
0
 10
3.07042
 20
0.653267
 30
0.0
 40
0
 41
0
  0
VERTEX
  8
0
 10
3.016
 20
0.673232
 30
0.0
 40
0
 41
0
  0
VERTEX
  8
0
 10
2.97487
 20
0.698839
 30
0.0
 40
0
 41
0
  0
VERTEX
  8
0
 10
2.96864
 20
0.704753
 30
0.0
 40
0
 41
0
  0
VERTEX
  8
0
 10
2.9624
 20
0.710721
 30
0.0
 40
0
 41
0
  0
VERTEX
  8
0
 10
2.94054
 20
0.745281
 30
0.0
 40
0
 41
0
  0
VERTEX
  8
0
 10
2.93121
 20
0.782878
 30
0.0
 40
0
 41
0
  0
VERTEX
  8
0
 10
2.93121
 20
0.79541
 30
0.0
 40
0
 41
0
  0
VERTEX
  8
0
 10
2.93121
 20
0.810385
 30
0.0
 40
0
 41
0
  0
VERTEX
  8
0
 10
2.94368
 20
0.855197
 30
0.0
 40
0
 41
0
  0
VERTEX
  8
0
 10
2.97293
 20
0.895562
 30
0.0
 40
0
 41
0
  0
VERTEX
  8
0
 10
2.98128
 20
0.902344
 30
0.0
 40
0
 41
0
  0
VERTEX
  8
0
 10
2.98958
 20
0.909179
 30
0.0
 40
0
 41
0
  0
VERTEX
  8
0
 10
3.03933
 20
0.932997
 30
0.0
 40
0
 41
0
  0
VERTEX
  8
0
 10
3.09494
 20
0.943143
 30
0.0
 40
0
 41
0
  0
VERTEX
  8
0
 10
3.1135
 20
0.943143
 30
0.0
 40
0
 41
0
  0
VERTEX
  8
0
 10
3.13194
 20
0.943143
 30
0.0
 40
0
 41
0
  0
VERTEX
  8
0
 10
3.18153
 20
0.933268
 30
0.0
 40
0
 41
0
  0
VERTEX
  8
0
 10
3.18739
 20
0.931261
 30
0.0
 40
0
 41
0
  0
VERTEX
  8
0
 10
3.19319
 20
0.929308
 30
0.0
 40
0
 41
0
  0
VERTEX
  8
0
 10
3.24989
 20
0.899089
 30
0.0
 40
0
 41
0
  0
VERTEX
  8
0
 10
3.25543
 20
0.895019
 30
0.0
 40
0
 41
0
  0
VERTEX
  8
0
 10
3.27729
 20
0.931967
 30
0.0
 40
0
 41
0
  0
VERTEX
  8
0
 10
3.33421
 20
0.931967
 30
0.0
 40
0
 41
0
  0
VERTEX
  8
0
 10
3.33421
 20
0.757975
 30
0.0
 40
0
 41
0
  0
VERTEX
  8
0
 10
3.2666
 20
0.757975
 30
0.0
 40
0
 41
0
  0
VERTEX
  8
0
 10
3.26406
 20
0.766982
 30
0.0
 40
0
 41
0
  0
VERTEX
  8
0
 10
3.24567
 20
0.80599
 30
0.0
 40
0
 41
0
  0
VERTEX
  8
0
 10
3.21951
 20
0.837076
 30
0.0
 40
0
 41
0
  0
VERTEX
  8
0
 10
3.21317
 20
0.842068
 30
0.0
 40
0
 41
0
  0
VERTEX
  8
0
 10
3.20676
 20
0.847114
 30
0.0
 40
0
 41
0
  0
VERTEX
  8
0
 10
3.17096
 20
0.864692
 30
0.0
 40
0
 41
0
  0
VERTEX
  8
0
 10
3.13368
 20
0.872233
 30
0.0
 40
0
 41
0
  0
VERTEX
  8
0
 10
3.12125
 20
0.872233
 30
0.0
 40
0
 41
0
  0
VERTEX
  8
0
 10
3.11333
 20
0.872233
 30
0.0
 40
0
 41
0
  0
VERTEX
  8
0
 10
3.08957
 20
0.868544
 30
0.0
 40
0
 41
0
  0
VERTEX
  8
0
 10
3.06896
 20
0.859864
 30
0.0
 40
0
 41
0
  0
VERTEX
  8
0
 10
3.0656
 20
0.857368
 30
0.0
 40
0
 41
0
  0
VERTEX
  8
0
 10
3.06222
 20
0.854926
 30
0.0
 40
0
 41
0
  0
VERTEX
  8
0
 10
3.05046
 20
0.839735
 30
0.0
 40
0
 41
0
  0
VERTEX
  8
0
 10
3.04546
 20
0.822157
 30
0.0
 40
0
 41
0
  0
VERTEX
  8
0
 10
3.04546
 20
0.816297
 30
0.0
 40
0
 41
0
  0
VERTEX
  8
0
 10
3.04546
 20
0.808485
 30
0.0
 40
0
 41
0
  0
VERTEX
  8
0
 10
3.05681
 20
0.787001
 30
0.0
 40
0
 41
0
  0
VERTEX
  8
0
 10
3.05908
 20
0.784939
 30
0.0
 40
0
 41
0
  0
VERTEX
  8
0
 10
3.06131
 20
0.782878
 30
0.0
 40
0
 41
0
  0
VERTEX
  8
0
 10
3.09657
 20
0.766872
 30
0.0
 40
0
 41
0
  0
VERTEX
  8
0
 10
3.10135
 20
0.765733
 30
0.0
 40
0
 41
0
  0
VERTEX
  8
0
 10
3.19179
 20
0.744846
 30
0.0
 40
0
 41
0
  0
VERTEX
  8
0
 10
3.20632
 20
0.741374
 30
0.0
 40
0
 41
0
  0
VERTEX
  8
0
 10
3.26731
 20
0.719943
 30
0.0
 40
0
 41
0
  0
VERTEX
  8
0
 10
3.31244
 20
0.693197
 30
0.0
 40
0
 41
0
  0
VERTEX
  8
0
 10
3.31913
 20
0.687011
 30
0.0
 40
0
 41
0
  0
VERTEX
  8
0
 10
3.32574
 20
0.680881
 30
0.0
 40
0
 41
0
  0
VERTEX
  8
0
 10
3.34901
 20
0.644532
 30
0.0
 40
0
 41
0
  0
VERTEX
  8
0
 10
3.359
 20
0.604221
 30
0.0
 40
0
 41
0
  0
VERTEX
  8
0
 10
3.359
 20
0.590767
 30
0.0
 40
0
 41
0
  0
VERTEX
  8
0
 10
3.359
 20
0.574924
 30
0.0
 40
0
 41
0
  0
VERTEX
  8
0
 10
3.34631
 20
0.527344
 30
0.0
 40
0
 41
0
  0
VERTEX
  8
0
 10
3.31685
 20
0.485786
 30
0.0
 40
0
 41
0
  0
VERTEX
  8
0
 10
3.30843
 20
0.47895
 30
0.0
 40
0
 41
0
  0
VERTEX
  8
0
 10
3.29997
 20
0.472168
 30
0.0
 40
0
 41
0
  0
VERTEX
  8
0
 10
3.24821
 20
0.448351
 30
0.0
 40
0
 41
0
  0
VERTEX
  8
0
 10
3.18869
 20
0.438097
 30
0.0
 40
0
 41
0
  0
VERTEX
  8
0
 10
3.16889
 20
0.438097
 30
0.0
 40
0
 41
0
  0
VERTEX
  8
0
 10
3.14844
 20
0.438097
 30
0.0
 40
0
 41
0
  0
VERTEX
  8
0
 10
3.09347
 20
0.44846
 30
0.0
 40
0
 41
0
  0
VERTEX
  8
0
 10
3.08724
 20
0.450521
 30
0.0
 40
0
 41
0
  0
VERTEX
  8
0
 10
3.081
 20
0.452582
 30
0.0
 40
0
 41
0
  0
VERTEX
  8
0
 10
3.0166
 20
0.486436
 30
0.0
 40
0
 41
0
  0
VERTEX
  8
0
 10
3.00999
 20
0.491103
 30
0.0
 40
0
 41
0
  0
VERTEX
  8
0
 10
2.99197
 20
0.449274
 30
0.0
 40
0
 41
0
  0
VERTEX
  8
0
 10
2.92583
 20
0.449274
 30
0.0
 40
0
 41
0
  0
SEQEND
 8
0
  0
POLYLINE
  8
0
 62
     0
 66
     1
 10
0
 20
0
 30
0.0
 70
     1
 40
0
 41
0
  0
VERTEX
  8
0
 10
3.40479
 20
0.449274
 30
0.0
 40
0
 41
0
  0
VERTEX
  8
0
 10
3.40479
 20
0.641331
 30
0.0
 40
0
 41
0
  0
VERTEX
  8
0
 10
3.47771
 20
0.641331
 30
0.0
 40
0
 41
0
  0
VERTEX
  8
0
 10
3.48004
 20
0.630643
 30
0.0
 40
0
 41
0
  0
VERTEX
  8
0
 10
3.49854
 20
0.58469
 30
0.0
 40
0
 41
0
  0
VERTEX
  8
0
 10
3.52599
 20
0.548828
 30
0.0
 40
0
 41
0
  0
VERTEX
  8
0
 10
3.53288
 20
0.543132
 30
0.0
 40
0
 41
0
  0
VERTEX
  8
0
 10
3.53971
 20
0.537489
 30
0.0
 40
0
 41
0
  0
VERTEX
  8
0
 10
3.57921
 20
0.517632
 30
0.0
 40
0
 41
0
  0
VERTEX
  8
0
 10
3.6219
 20
0.50906
 30
0.0
 40
0
 41
0
  0
VERTEX
  8
0
 10
3.63618
 20
0.50906
 30
0.0
 40
0
 41
0
  0
VERTEX
  8
0
 10
3.64469
 20
0.50906
 30
0.0
 40
0
 41
0
  0
VERTEX
  8
0
 10
3.67031
 20
0.513292
 30
0.0
 40
0
 41
0
  0
VERTEX
  8
0
 10
3.69308
 20
0.523113
 30
0.0
 40
0
 41
0
  0
VERTEX
  8
0
 10
3.69694
 20
0.525879
 30
0.0
 40
0
 41
0
  0
VERTEX
  8
0
 10
3.70074
 20
0.5287
 30
0.0
 40
0
 41
0
  0
VERTEX
  8
0
 10
3.71403
 20
0.545518
 30
0.0
 40
0
 41
0
  0
VERTEX
  8
0
 10
3.71978
 20
0.564507
 30
0.0
 40
0
 41
0
  0
VERTEX
  8
0
 10
3.71978
 20
0.570801
 30
0.0
 40
0
 41
0
  0
VERTEX
  8
0
 10
3.71978
 20
0.579861
 30
0.0
 40
0
 41
0
  0
VERTEX
  8
0
 10
3.70432
 20
0.604764
 30
0.0
 40
0
 41
0
  0
VERTEX
  8
0
 10
3.70128
 20
0.607042
 30
0.0
 40
0
 41
0
  0
VERTEX
  8
0
 10
3.69819
 20
0.609375
 30
0.0
 40
0
 41
0
  0
VERTEX
  8
0
 10
3.67572
 20
0.620389
 30
0.0
 40
0
 41
0
  0
VERTEX
  8
0
 10
3.64393
 20
0.630643
 30
0.0
 40
0
 41
0
  0
VERTEX
  8
0
 10
3.63618
 20
0.632542
 30
0.0
 40
0
 41
0
  0
VERTEX
  8
0
 10
3.56228
 20
0.650065
 30
0.0
 40
0
 41
0
  0
VERTEX
  8
0
 10
3.54937
 20
0.653267
 30
0.0
 40
0
 41
0
  0
VERTEX
  8
0
 10
3.4949
 20
0.673232
 30
0.0
 40
0
 41
0
  0
VERTEX
  8
0
 10
3.45378
 20
0.698839
 30
0.0
 40
0
 41
0
  0
VERTEX
  8
0
 10
3.44754
 20
0.704753
 30
0.0
 40
0
 41
0
  0
VERTEX
  8
0
 10
3.44129
 20
0.710721
 30
0.0
 40
0
 41
0
  0
VERTEX
  8
0
 10
3.41943
 20
0.745281
 30
0.0
 40
0
 41
0
  0
VERTEX
  8
0
 10
3.4101
 20
0.782878
 30
0.0
 40
0
 41
0
  0
VERTEX
  8
0
 10
3.4101
 20
0.79541
 30
0.0
 40
0
 41
0
  0
VERTEX
  8
0
 10
3.4101
 20
0.810385
 30
0.0
 40
0
 41
0
  0
VERTEX
  8
0
 10
3.42258
 20
0.855197
 30
0.0
 40
0
 41
0
  0
VERTEX
  8
0
 10
3.45182
 20
0.895562
 30
0.0
 40
0
 41
0
  0
VERTEX
  8
0
 10
3.46018
 20
0.902344
 30
0.0
 40
0
 41
0
  0
VERTEX
  8
0
 10
3.46847
 20
0.909179
 30
0.0
 40
0
 41
0
  0
VERTEX
  8
0
 10
3.51824
 20
0.932997
 30
0.0
 40
0
 41
0
  0
VERTEX
  8
0
 10
3.57383
 20
0.943143
 30
0.0
 40
0
 41
0
  0
VERTEX
  8
0
 10
3.59239
 20
0.943143
 30
0.0
 40
0
 41
0
  0
VERTEX
  8
0
 10
3.61083
 20
0.943143
 30
0.0
 40
0
 41
0
  0
VERTEX
  8
0
 10
3.66043
 20
0.933268
 30
0.0
 40
0
 41
0
  0
VERTEX
  8
0
 10
3.66629
 20
0.931261
 30
0.0
 40
0
 41
0
  0
VERTEX
  8
0
 10
3.6721
 20
0.929308
 30
0.0
 40
0
 41
0
  0
VERTEX
  8
0
 10
3.72879
 20
0.899089
 30
0.0
 40
0
 41
0
  0
VERTEX
  8
0
 10
3.73432
 20
0.895019
 30
0.0
 40
0
 41
0
  0
VERTEX
  8
0
 10
3.75624
 20
0.931967
 30
0.0
 40
0
 41
0
  0
VERTEX
  8
0
 10
3.8131
 20
0.931967
 30
0.0
 40
0
 41
0
  0
VERTEX
  8
0
 10
3.8131
 20
0.757975
 30
0.0
 40
0
 41
0
  0
VERTEX
  8
0
 10
3.74556
 20
0.757975
 30
0.0
 40
0
 41
0
  0
VERTEX
  8
0
 10
3.743
 20
0.766982
 30
0.0
 40
0
 41
0
  0
VERTEX
  8
0
 10
3.72461
 20
0.80599
 30
0.0
 40
0
 41
0
  0
VERTEX
  8
0
 10
3.69846
 20
0.837076
 30
0.0
 40
0
 41
0
  0
VERTEX
  8
0
 10
3.69206
 20
0.842068
 30
0.0
 40
0
 41
0
  0
VERTEX
  8
0
 10
3.68565
 20
0.847114
 30
0.0
 40
0
 41
0
  0
VERTEX
  8
0
 10
3.64985
 20
0.864692
 30
0.0
 40
0
 41
0
  0
VERTEX
  8
0
 10
3.61257
 20
0.872233
 30
0.0
 40
0
 41
0
  0
VERTEX
  8
0
 10
3.60021
 20
0.872233
 30
0.0
 40
0
 41
0
  0
VERTEX
  8
0
 10
3.59229
 20
0.872233
 30
0.0
 40
0
 41
0
  0
VERTEX
  8
0
 10
3.56853
 20
0.868544
 30
0.0
 40
0
 41
0
  0
VERTEX
  8
0
 10
3.5479
 20
0.859864
 30
0.0
 40
0
 41
0
  0
VERTEX
  8
0
 10
3.54454
 20
0.857368
 30
0.0
 40
0
 41
0
  0
VERTEX
  8
0
 10
3.54118
 20
0.854926
 30
0.0
 40
0
 41
0
  0
VERTEX
  8
0
 10
3.5294
 20
0.839735
 30
0.0
 40
0
 41
0
  0
VERTEX
  8
0
 10
3.52436
 20
0.822157
 30
0.0
 40
0
 41
0
  0
VERTEX
  8
0
 10
3.52436
 20
0.816297
 30
0.0
 40
0
 41
0
  0
VERTEX
  8
0
 10
3.52436
 20
0.808485
 30
0.0
 40
0
 41
0
  0
VERTEX
  8
0
 10
3.53569
 20
0.787001
 30
0.0
 40
0
 41
0
  0
VERTEX
  8
0
 10
3.53797
 20
0.784939
 30
0.0
 40
0
 41
0
  0
VERTEX
  8
0
 10
3.54021
 20
0.782878
 30
0.0
 40
0
 41
0
  0
VERTEX
  8
0
 10
3.57547
 20
0.766872
 30
0.0
 40
0
 41
0
  0
VERTEX
  8
0
 10
3.58024
 20
0.765733
 30
0.0
 40
0
 41
0
  0
VERTEX
  8
0
 10
3.67068
 20
0.744846
 30
0.0
 40
0
 41
0
  0
VERTEX
  8
0
 10
3.68522
 20
0.741374
 30
0.0
 40
0
 41
0
  0
VERTEX
  8
0
 10
3.74621
 20
0.719943
 30
0.0
 40
0
 41
0
  0
VERTEX
  8
0
 10
3.79135
 20
0.693197
 30
0.0
 40
0
 41
0
  0
VERTEX
  8
0
 10
3.79801
 20
0.687011
 30
0.0
 40
0
 41
0
  0
VERTEX
  8
0
 10
3.80464
 20
0.680881
 30
0.0
 40
0
 41
0
  0
VERTEX
  8
0
 10
3.8279
 20
0.644532
 30
0.0
 40
0
 41
0
  0
VERTEX
  8
0
 10
3.83789
 20
0.604221
 30
0.0
 40
0
 41
0
  0
VERTEX
  8
0
 10
3.83789
 20
0.590767
 30
0.0
 40
0
 41
0
  0
VERTEX
  8
0
 10
3.83789
 20
0.574924
 30
0.0
 40
0
 41
0
  0
VERTEX
  8
0
 10
3.82519
 20
0.527344
 30
0.0
 40
0
 41
0
  0
VERTEX
  8
0
 10
3.79574
 20
0.485786
 30
0.0
 40
0
 41
0
  0
VERTEX
  8
0
 10
3.78733
 20
0.47895
 30
0.0
 40
0
 41
0
  0
VERTEX
  8
0
 10
3.77886
 20
0.472168
 30
0.0
 40
0
 41
0
  0
VERTEX
  8
0
 10
3.72715
 20
0.448351
 30
0.0
 40
0
 41
0
  0
VERTEX
  8
0
 10
3.66764
 20
0.438097
 30
0.0
 40
0
 41
0
  0
VERTEX
  8
0
 10
3.64785
 20
0.438097
 30
0.0
 40
0
 41
0
  0
VERTEX
  8
0
 10
3.62739
 20
0.438097
 30
0.0
 40
0
 41
0
  0
VERTEX
  8
0
 10
3.57238
 20
0.44846
 30
0.0
 40
0
 41
0
  0
VERTEX
  8
0
 10
3.56619
 20
0.450521
 30
0.0
 40
0
 41
0
  0
VERTEX
  8
0
 10
3.55994
 20
0.452582
 30
0.0
 40
0
 41
0
  0
VERTEX
  8
0
 10
3.4955
 20
0.486436
 30
0.0
 40
0
 41
0
  0
VERTEX
  8
0
 10
3.48888
 20
0.491103
 30
0.0
 40
0
 41
0
  0
VERTEX
  8
0
 10
3.47086
 20
0.449274
 30
0.0
 40
0
 41
0
  0
VERTEX
  8
0
 10
3.40479
 20
0.449274
 30
0.0
 40
0
 41
0
  0
SEQEND
 8
0
  0
POLYLINE
  8
0
 62
     0
 66
     1
 10
0
 20
0
 30
0.0
 70
     1
 40
0
 41
0
  0
VERTEX
  8
0
 10
4.22006
 20
0.750706
 30
0.0
 40
0
 41
0
  0
VERTEX
  8
0
 10
4.21929
 20
0.761556
 30
0.0
 40
0
 41
0
  0
VERTEX
  8
0
 10
4.21126
 20
0.807075
 30
0.0
 40
0
 41
0
  0
VERTEX
  8
0
 10
4.19726
 20
0.840929
 30
0.0
 40
0
 41
0
  0
VERTEX
  8
0
 10
4.19358
 20
0.845921
 30
0.0
 40
0
 41
0
  0
VERTEX
  8
0
 10
4.18989
 20
0.850965
 30
0.0
 40
0
 41
0
  0
VERTEX
  8
0
 10
4.16624
 20
0.868599
 30
0.0
 40
0
 41
0
  0
VERTEX
  8
0
 10
4.13807
 20
0.876085
 30
0.0
 40
0
 41
0
  0
VERTEX
  8
0
 10
4.12869
 20
0.876085
 30
0.0
 40
0
 41
0
  0
VERTEX
  8
0
 10
4.11876
 20
0.876085
 30
0.0
 40
0
 41
0
  0
VERTEX
  8
0
 10
4.08897
 20
0.868164
 30
0.0
 40
0
 41
0
  0
VERTEX
  8
0
 10
4.06201
 20
0.849556
 30
0.0
 40
0
 41
0
  0
VERTEX
  8
0
 10
4.05746
 20
0.844239
 30
0.0
 40
0
 41
0
  0
VERTEX
  8
0
 10
4.05285
 20
0.838976
 30
0.0
 40
0
 41
0
  0
VERTEX
  8
0
 10
4.03467
 20
0.804958
 30
0.0
 40
0
 41
0
  0
VERTEX
  8
0
 10
4.02268
 20
0.761014
 30
0.0
 40
0
 41
0
  0
VERTEX
  8
0
 10
4.02126
 20
0.750706
 30
0.0
 40
0
 41
0
  0
VERTEX
  8
0
 10
4.22006
 20
0.750706
 30
0.0
 40
0
 41
0
  0
SEQEND
 8
0
  0
POLYLINE
  8
0
 62
     0
 66
     1
 10
0
 20
0
 30
0.0
 70
     1
 40
0
 41
0
  0
VERTEX
  8
0
 10
4.26531
 20
0.623318
 30
0.0
 40
0
 41
0
  0
VERTEX
  8
0
 10
4.3489
 20
0.623318
 30
0.0
 40
0
 41
0
  0
VERTEX
  8
0
 10
4.34711
 20
0.608942
 30
0.0
 40
0
 41
0
  0
VERTEX
  8
0
 10
4.32622
 20
0.546007
 30
0.0
 40
0
 41
0
  0
VERTEX
  8
0
 10
4.28939
 20
0.495281
 30
0.0
 40
0
 41
0
  0
VERTEX
  8
0
 10
4.27962
 20
0.486979
 30
0.0
 40
0
 41
0
  0
VERTEX
  8
0
 10
4.26986
 20
0.478678
 30
0.0
 40
0
 41
0
  0
VERTEX
  8
0
 10
4.21283
 20
0.449653
 30
0.0
 40
0
 41
0
  0
VERTEX
  8
0
 10
4.15044
 20
0.437175
 30
0.0
 40
0
 41
0
  0
VERTEX
  8
0
 10
4.12967
 20
0.437175
 30
0.0
 40
0
 41
0
  0
VERTEX
  8
0
 10
4.11615
 20
0.437175
 30
0.0
 40
0
 41
0
  0
VERTEX
  8
0
 10
4.07563
 20
0.441515
 30
0.0
 40
0
 41
0
  0
VERTEX
  8
0
 10
4.02746
 20
0.454372
 30
0.0
 40
0
 41
0
  0
VERTEX
  8
0
 10
3.98497
 20
0.475857
 30
0.0
 40
0
 41
0
  0
VERTEX
  8
0
 10
3.9566
 20
0.497558
 30
0.0
 40
0
 41
0
  0
VERTEX
  8
0
 10
3.94835
 20
0.505914
 30
0.0
 40
0
 41
0
  0
VERTEX
  8
0
 10
3.94006
 20
0.514378
 30
0.0
 40
0
 41
0
  0
VERTEX
  8
0
 10
3.91872
 20
0.54324
 30
0.0
 40
0
 41
0
  0
VERTEX
  8
0
 10
3.89762
 20
0.586317
 30
0.0
 40
0
 41
0
  0
VERTEX
  8
0
 10
3.88493
 20
0.635254
 30
0.0
 40
0
 41
0
  0
VERTEX
  8
0
 10
3.88075
 20
0.676269
 30
0.0
 40
0
 41
0
  0
VERTEX
  8
0
 10
3.88075
 20
0.689942
 30
0.0
 40
0
 41
0
  0
VERTEX
  8
0
 10
3.88075
 20
0.703504
 30
0.0
 40
0
 41
0
  0
VERTEX
  8
0
 10
3.88499
 20
0.744086
 30
0.0
 40
0
 41
0
  0
VERTEX
  8
0
 10
3.89779
 20
0.792697
 30
0.0
 40
0
 41
0
  0
VERTEX
  8
0
 10
3.91917
 20
0.835829
 30
0.0
 40
0
 41
0
  0
VERTEX
  8
0
 10
3.94069
 20
0.864908
 30
0.0
 40
0
 41
0
  0
VERTEX
  8
0
 10
3.94906
 20
0.873426
 30
0.0
 40
0
 41
0
  0
VERTEX
  8
0
 10
3.95736
 20
0.881944
 30
0.0
 40
0
 41
0
  0
VERTEX
  8
0
 10
3.98594
 20
0.903971
 30
0.0
 40
0
 41
0
  0
VERTEX
  8
0
 10
4.02832
 20
0.925726
 30
0.0
 40
0
 41
0
  0
VERTEX
  8
0
 10
4.07622
 20
0.938803
 30
0.0
 40
0
 41
0
  0
VERTEX
  8
0
 10
4.11626
 20
0.943143
 30
0.0
 40
0
 41
0
  0
VERTEX
  8
0
 10
4.12967
 20
0.943143
 30
0.0
 40
0
 41
0
  0
VERTEX
  8
0
 10
4.14236
 20
0.943143
 30
0.0
 40
0
 41
0
  0
VERTEX
  8
0
 10
4.18061
 20
0.938965
 30
0.0
 40
0
 41
0
  0
VERTEX
  8
0
 10
4.22515
 20
0.926378
 30
0.0
 40
0
 41
0
  0
VERTEX
  8
0
 10
4.26324
 20
0.905328
 30
0.0
 40
0
 41
0
  0
VERTEX
  8
0
 10
4.28797
 20
0.88406
 30
0.0
 40
0
 41
0
  0
VERTEX
  8
0
 10
4.29492
 20
0.875868
 30
0.0
 40
0
 41
0
  0
VERTEX
  8
0
 10
4.30208
 20
0.86735
 30
0.0
 40
0
 41
0
  0
VERTEX
  8
0
 10
4.31976
 20
0.838379
 30
0.0
 40
0
 41
0
  0
VERTEX
  8
0
 10
4.33757
 20
0.793294
 30
0.0
 40
0
 41
0
  0
VERTEX
  8
0
 10
4.34819
 20
0.74056
 30
0.0
 40
0
 41
0
  0
VERTEX
  8
0
 10
4.35178
 20
0.695313
 30
0.0
 40
0
 41
0
  0
VERTEX
  8
0
 10
4.35178
 20
0.680176
 30
0.0
 40
0
 41
0
  0
VERTEX
  8
0
 10
4.01639
 20
0.680176
 30
0.0
 40
0
 41
0
  0
VERTEX
  8
0
 10
4.01687
 20
0.666938
 30
0.0
 40
0
 41
0
  0
VERTEX
  8
0
 10
4.02626
 20
0.609972
 30
0.0
 40
0
 41
0
  0
VERTEX
  8
0
 10
4.04503
 20
0.565647
 30
0.0
 40
0
 41
0
  0
VERTEX
  8
0
 10
4.05018
 20
0.558649
 30
0.0
 40
0
 41
0
  0
VERTEX
  8
0
 10
4.05528
 20
0.551704
 30
0.0
 40
0
 41
0
  0
VERTEX
  8
0
 10
4.08729
 20
0.527344
 30
0.0
 40
0
 41
0
  0
VERTEX
  8
0
 10
4.12451
 20
0.516872
 30
0.0
 40
0
 41
0
  0
VERTEX
  8
0
 10
4.13693
 20
0.516872
 30
0.0
 40
0
 41
0
  0
VERTEX
  8
0
 10
4.14953
 20
0.516872
 30
0.0
 40
0
 41
0
  0
VERTEX
  8
0
 10
4.18728
 20
0.523058
 30
0.0
 40
0
 41
0
  0
VERTEX
  8
0
 10
4.21881
 20
0.537326
 30
0.0
 40
0
 41
0
  0
VERTEX
  8
0
 10
4.22374
 20
0.541396
 30
0.0
 40
0
 41
0
  0
VERTEX
  8
0
 10
4.22863
 20
0.545518
 30
0.0
 40
0
 41
0
  0
VERTEX
  8
0
 10
4.24881
 20
0.574164
 30
0.0
 40
0
 41
0
  0
VERTEX
  8
0
 10
4.26324
 20
0.613769
 30
0.0
 40
0
 41
0
  0
VERTEX
  8
0
 10
4.26531
 20
0.623318
 30
0.0
 40
0
 41
0
  0
SEQEND
 8
0
  0
POLYLINE
  8
0
 62
     0
 66
     1
 10
0
 20
0
 30
0.0
 70
     1
 40
0
 41
0
  0
VERTEX
  8
0
 10
4.73996
 20
0.750706
 30
0.0
 40
0
 41
0
  0
VERTEX
  8
0
 10
4.73921
 20
0.761556
 30
0.0
 40
0
 41
0
  0
VERTEX
  8
0
 10
4.73112
 20
0.807075
 30
0.0
 40
0
 41
0
  0
VERTEX
  8
0
 10
4.71712
 20
0.840929
 30
0.0
 40
0
 41
0
  0
VERTEX
  8
0
 10
4.71343
 20
0.845921
 30
0.0
 40
0
 41
0
  0
VERTEX
  8
0
 10
4.70975
 20
0.850965
 30
0.0
 40
0
 41
0
  0
VERTEX
  8
0
 10
4.68614
 20
0.868599
 30
0.0
 40
0
 41
0
  0
VERTEX
  8
0
 10
4.65793
 20
0.876085
 30
0.0
 40
0
 41
0
  0
VERTEX
  8
0
 10
4.64854
 20
0.876085
 30
0.0
 40
0
 41
0
  0
VERTEX
  8
0
 10
4.63861
 20
0.876085
 30
0.0
 40
0
 41
0
  0
VERTEX
  8
0
 10
4.60883
 20
0.868164
 30
0.0
 40
0
 41
0
  0
VERTEX
  8
0
 10
4.58187
 20
0.849556
 30
0.0
 40
0
 41
0
  0
VERTEX
  8
0
 10
4.57731
 20
0.844239
 30
0.0
 40
0
 41
0
  0
VERTEX
  8
0
 10
4.57269
 20
0.838976
 30
0.0
 40
0
 41
0
  0
VERTEX
  8
0
 10
4.55453
 20
0.804958
 30
0.0
 40
0
 41
0
  0
VERTEX
  8
0
 10
4.54258
 20
0.761014
 30
0.0
 40
0
 41
0
  0
VERTEX
  8
0
 10
4.54113
 20
0.750706
 30
0.0
 40
0
 41
0
  0
VERTEX
  8
0
 10
4.73996
 20
0.750706
 30
0.0
 40
0
 41
0
  0
SEQEND
 8
0
  0
POLYLINE
  8
0
 62
     0
 66
     1
 10
0
 20
0
 30
0.0
 70
     1
 40
0
 41
0
  0
VERTEX
  8
0
 10
4.78515
 20
0.623318
 30
0.0
 40
0
 41
0
  0
VERTEX
  8
0
 10
4.86876
 20
0.623318
 30
0.0
 40
0
 41
0
  0
VERTEX
  8
0
 10
4.86697
 20
0.608942
 30
0.0
 40
0
 41
0
  0
VERTEX
  8
0
 10
4.84608
 20
0.546007
 30
0.0
 40
0
 41
0
  0
VERTEX
  8
0
 10
4.80925
 20
0.495281
 30
0.0
 40
0
 41
0
  0
VERTEX
  8
0
 10
4.79949
 20
0.486979
 30
0.0
 40
0
 41
0
  0
VERTEX
  8
0
 10
4.78971
 20
0.478678
 30
0.0
 40
0
 41
0
  0
VERTEX
  8
0
 10
4.73269
 20
0.449653
 30
0.0
 40
0
 41
0
  0
VERTEX
  8
0
 10
4.67031
 20
0.437175
 30
0.0
 40
0
 41
0
  0
VERTEX
  8
0
 10
4.64953
 20
0.437175
 30
0.0
 40
0
 41
0
  0
VERTEX
  8
0
 10
4.63601
 20
0.437175
 30
0.0
 40
0
 41
0
  0
VERTEX
  8
0
 10
4.59549
 20
0.441515
 30
0.0
 40
0
 41
0
  0
VERTEX
  8
0
 10
4.54731
 20
0.454372
 30
0.0
 40
0
 41
0
  0
VERTEX
  8
0
 10
4.50483
 20
0.475857
 30
0.0
 40
0
 41
0
  0
VERTEX
  8
0
 10
4.47646
 20
0.497558
 30
0.0
 40
0
 41
0
  0
VERTEX
  8
0
 10
4.46821
 20
0.505914
 30
0.0
 40
0
 41
0
  0
VERTEX
  8
0
 10
4.4599
 20
0.514378
 30
0.0
 40
0
 41
0
  0
VERTEX
  8
0
 10
4.43864
 20
0.54324
 30
0.0
 40
0
 41
0
  0
VERTEX
  8
0
 10
4.41754
 20
0.586317
 30
0.0
 40
0
 41
0
  0
VERTEX
  8
0
 10
4.40483
 20
0.635254
 30
0.0
 40
0
 41
0
  0
VERTEX
  8
0
 10
4.40067
 20
0.676269
 30
0.0
 40
0
 41
0
  0
VERTEX
  8
0
 10
4.40067
 20
0.689942
 30
0.0
 40
0
 41
0
  0
VERTEX
  8
0
 10
4.40067
 20
0.703504
 30
0.0
 40
0
 41
0
  0
VERTEX
  8
0
 10
4.40489
 20
0.744086
 30
0.0
 40
0
 41
0
  0
VERTEX
  8
0
 10
4.41769
 20
0.792697
 30
0.0
 40
0
 41
0
  0
VERTEX
  8
0
 10
4.43901
 20
0.835829
 30
0.0
 40
0
 41
0
  0
VERTEX
  8
0
 10
4.46061
 20
0.864908
 30
0.0
 40
0
 41
0
  0
VERTEX
  8
0
 10
4.46897
 20
0.873426
 30
0.0
 40
0
 41
0
  0
VERTEX
  8
0
 10
4.47726
 20
0.881944
 30
0.0
 40
0
 41
0
  0
VERTEX
  8
0
 10
4.50581
 20
0.903971
 30
0.0
 40
0
 41
0
  0
VERTEX
  8
0
 10
4.54824
 20
0.925726
 30
0.0
 40
0
 41
0
  0
VERTEX
  8
0
 10
4.59608
 20
0.938803
 30
0.0
 40
0
 41
0
  0
VERTEX
  8
0
 10
4.63612
 20
0.943143
 30
0.0
 40
0
 41
0
  0
VERTEX
  8
0
 10
4.64953
 20
0.943143
 30
0.0
 40
0
 41
0
  0
VERTEX
  8
0
 10
4.66222
 20
0.943143
 30
0.0
 40
0
 41
0
  0
VERTEX
  8
0
 10
4.70047
 20
0.938965
 30
0.0
 40
0
 41
0
  0
VERTEX
  8
0
 10
4.74501
 20
0.926378
 30
0.0
 40
0
 41
0
  0
VERTEX
  8
0
 10
4.7831
 20
0.905328
 30
0.0
 40
0
 41
0
  0
VERTEX
  8
0
 10
4.80783
 20
0.88406
 30
0.0
 40
0
 41
0
  0
VERTEX
  8
0
 10
4.81478
 20
0.875868
 30
0.0
 40
0
 41
0
  0
VERTEX
  8
0
 10
4.82194
 20
0.86735
 30
0.0
 40
0
 41
0
  0
VERTEX
  8
0
 10
4.83963
 20
0.838379
 30
0.0
 40
0
 41
0
  0
VERTEX
  8
0
 10
4.85742
 20
0.793294
 30
0.0
 40
0
 41
0
  0
VERTEX
  8
0
 10
4.86811
 20
0.74056
 30
0.0
 40
0
 41
0
  0
VERTEX
  8
0
 10
4.87169
 20
0.695313
 30
0.0
 40
0
 41
0
  0
VERTEX
  8
0
 10
4.87169
 20
0.680176
 30
0.0
 40
0
 41
0
  0
VERTEX
  8
0
 10
4.53624
 20
0.680176
 30
0.0
 40
0
 41
0
  0
VERTEX
  8
0
 10
4.53674
 20
0.666938
 30
0.0
 40
0
 41
0
  0
VERTEX
  8
0
 10
4.54611
 20
0.609972
 30
0.0
 40
0
 41
0
  0
VERTEX
  8
0
 10
4.56489
 20
0.565647
 30
0.0
 40
0
 41
0
  0
VERTEX
  8
0
 10
4.57004
 20
0.558649
 30
0.0
 40
0
 41
0
  0
VERTEX
  8
0
 10
4.57514
 20
0.551704
 30
0.0
 40
0
 41
0
  0
VERTEX
  8
0
 10
4.60715
 20
0.527344
 30
0.0
 40
0
 41
0
  0
VERTEX
  8
0
 10
4.64437
 20
0.516872
 30
0.0
 40
0
 41
0
  0
VERTEX
  8
0
 10
4.65679
 20
0.516872
 30
0.0
 40
0
 41
0
  0
VERTEX
  8
0
 10
4.66938
 20
0.516872
 30
0.0
 40
0
 41
0
  0
VERTEX
  8
0
 10
4.70714
 20
0.523058
 30
0.0
 40
0
 41
0
  0
VERTEX
  8
0
 10
4.73867
 20
0.537326
 30
0.0
 40
0
 41
0
  0
VERTEX
  8
0
 10
4.7436
 20
0.541396
 30
0.0
 40
0
 41
0
  0
VERTEX
  8
0
 10
4.74849
 20
0.545518
 30
0.0
 40
0
 41
0
  0
VERTEX
  8
0
 10
4.76867
 20
0.574164
 30
0.0
 40
0
 41
0
  0
VERTEX
  8
0
 10
4.7831
 20
0.613769
 30
0.0
 40
0
 41
0
  0
VERTEX
  8
0
 10
4.78515
 20
0.623318
 30
0.0
 40
0
 41
0
  0
SEQEND
 8
0
  0
POLYLINE
  8
0
 62
     0
 66
     1
 10
0
 20
0
 30
0.0
 70
     1
 40
0
 41
0
  0
VERTEX
  8
0
 10
1.79829
 20
0.298394
 30
0.0
 40
0
 41
0
  0
VERTEX
  8
0
 10
1.79189
 20
0.298394
 30
0.0
 40
0
 41
0
  0
VERTEX
  8
0
 10
1.78347
 20
0.298394
 30
0.0
 40
0
 41
0
  0
VERTEX
  8
0
 10
1.75825
 20
0.292589
 30
0.0
 40
0
 41
0
  0
VERTEX
  8
0
 10
1.73817
 20
0.279025
 30
0.0
 40
0
 41
0
  0
VERTEX
  8
0
 10
1.73525
 20
0.275119
 30
0.0
 40
0
 41
0
  0
VERTEX
  8
0
 10
1.73226
 20
0.271268
 30
0.0
 40
0
 41
0
  0
VERTEX
  8
0
 10
1.72179
 20
0.244683
 30
0.0
 40
0
 41
0
  0
VERTEX
  8
0
 10
1.71696
 20
0.208442
 30
0.0
 40
0
 41
0
  0
VERTEX
  8
0
 10
1.71685
 20
0.199707
 30
0.0
 40
0
 41
0
  0
VERTEX
  8
0
 10
1.67979
 20
0.199707
 30
0.0
 40
0
 41
0
  0
VERTEX
  8
0
 10
1.67979
 20
0.334039
 30
0.0
 40
0
 41
0
  0
VERTEX
  8
0
 10
1.98525
 20
0.334039
 30
0.0
 40
0
 41
0
  0
VERTEX
  8
0
 10
1.98525
 20
0.199707
 30
0.0
 40
0
 41
0
  0
VERTEX
  8
0
 10
1.94819
 20
0.199707
 30
0.0
 40
0
 41
0
  0
VERTEX
  8
0
 10
1.94808
 20
0.208279
 30
0.0
 40
0
 41
0
  0
VERTEX
  8
0
 10
1.94336
 20
0.244249
 30
0.0
 40
0
 41
0
  0
VERTEX
  8
0
 10
1.93294
 20
0.270888
 30
0.0
 40
0
 41
0
  0
VERTEX
  8
0
 10
1.93001
 20
0.274794
 30
0.0
 40
0
 41
0
  0
VERTEX
  8
0
 10
1.92703
 20
0.278754
 30
0.0
 40
0
 41
0
  0
VERTEX
  8
0
 10
1.90701
 20
0.292481
 30
0.0
 40
0
 41
0
  0
VERTEX
  8
0
 10
1.88194
 20
0.298394
 30
0.0
 40
0
 41
0
  0
VERTEX
  8
0
 10
1.87358
 20
0.298394
 30
0.0
 40
0
 41
0
  0
VERTEX
  8
0
 10
1.86649
 20
0.298394
 30
0.0
 40
0
 41
0
  0
VERTEX
  8
0
 10
1.86649
 20
0.0764974
 30
0.0
 40
0
 41
0
  0
VERTEX
  8
0
 10
1.86649
 20
0.0703125
 30
0.0
 40
0
 41
0
  0
VERTEX
  8
0
 10
1.87088
 20
0.0525717
 30
0.0
 40
0
 41
0
  0
VERTEX
  8
0
 10
1.87181
 20
0.0517036
 30
0.0
 40
0
 41
0
  0
VERTEX
  8
0
 10
1.87267
 20
0.0508356
 30
0.0
 40
0
 41
0
  0
VERTEX
  8
0
 10
1.89225
 20
0.0464953
 30
0.0
 40
0
 41
0
  0
VERTEX
  8
0
 10
1.89882
 20
0.0464953
 30
0.0
 40
0
 41
0
  0
VERTEX
  8
0
 10
1.92643
 20
0.0464953
 30
0.0
 40
0
 41
0
  0
VERTEX
  8
0
 10
1.92643
 20
0.00965712
 30
0.0
 40
0
 41
0
  0
VERTEX
  8
0
 10
1.73833
 20
0.00965712
 30
0.0
 40
0
 41
0
  0
VERTEX
  8
0
 10
1.73833
 20
0.0464953
 30
0.0
 40
0
 41
0
  0
VERTEX
  8
0
 10
1.76639
 20
0.0464953
 30
0.0
 40
0
 41
0
  0
VERTEX
  8
0
 10
1.77306
 20
0.0464953
 30
0.0
 40
0
 41
0
  0
VERTEX
  8
0
 10
1.79221
 20
0.0507813
 30
0.0
 40
0
 41
0
  0
VERTEX
  8
0
 10
1.79308
 20
0.051595
 30
0.0
 40
0
 41
0
  0
VERTEX
  8
0
 10
1.79394
 20
0.0524631
 30
0.0
 40
0
 41
0
  0
VERTEX
  8
0
 10
1.79829
 20
0.0705296
 30
0.0
 40
0
 41
0
  0
VERTEX
  8
0
 10
1.79829
 20
0.0764974
 30
0.0
 40
0
 41
0
  0
VERTEX
  8
0
 10
1.79829
 20
0.298394
 30
0.0
 40
0
 41
0
  0
SEQEND
 8
0
  0
POLYLINE
  8
0
 62
     0
 66
     1
 10
0
 20
0
 30
0.0
 70
     1
 40
0
 41
0
  0
VERTEX
  8
0
 10
2.06515
 20
0.00965712
 30
0.0
 40
0
 41
0
  0
VERTEX
  8
0
 10
2.06515
 20
0.0464953
 30
0.0
 40
0
 41
0
  0
VERTEX
  8
0
 10
2.0841
 20
0.0464953
 30
0.0
 40
0
 41
0
  0
VERTEX
  8
0
 10
2.09071
 20
0.0464953
 30
0.0
 40
0
 41
0
  0
VERTEX
  8
0
 10
2.10986
 20
0.0507813
 30
0.0
 40
0
 41
0
  0
VERTEX
  8
0
 10
2.11074
 20
0.051595
 30
0.0
 40
0
 41
0
  0
VERTEX
  8
0
 10
2.1116
 20
0.0524631
 30
0.0
 40
0
 41
0
  0
VERTEX
  8
0
 10
2.11594
 20
0.0705296
 30
0.0
 40
0
 41
0
  0
VERTEX
  8
0
 10
2.11594
 20
0.0764974
 30
0.0
 40
0
 41
0
  0
VERTEX
  8
0
 10
2.11594
 20
0.267469
 30
0.0
 40
0
 41
0
  0
VERTEX
  8
0
 10
2.11594
 20
0.273708
 30
0.0
 40
0
 41
0
  0
VERTEX
  8
0
 10
2.1116
 20
0.291558
 30
0.0
 40
0
 41
0
  0
VERTEX
  8
0
 10
2.11074
 20
0.292372
 30
0.0
 40
0
 41
0
  0
VERTEX
  8
0
 10
2.10986
 20
0.29324
 30
0.0
 40
0
 41
0
  0
VERTEX
  8
0
 10
2.0905
 20
0.297418
 30
0.0
 40
0
 41
0
  0
VERTEX
  8
0
 10
2.0841
 20
0.297418
 30
0.0
 40
0
 41
0
  0
VERTEX
  8
0
 10
2.06515
 20
0.297418
 30
0.0
 40
0
 41
0
  0
VERTEX
  8
0
 10
2.06515
 20
0.334039
 30
0.0
 40
0
 41
0
  0
VERTEX
  8
0
 10
2.38433
 20
0.334039
 30
0.0
 40
0
 41
0
  0
VERTEX
  8
0
 10
2.38433
 20
0.204915
 30
0.0
 40
0
 41
0
  0
VERTEX
  8
0
 10
2.3475
 20
0.204915
 30
0.0
 40
0
 41
0
  0
VERTEX
  8
0
 10
2.34722
 20
0.214193
 30
0.0
 40
0
 41
0
  0
VERTEX
  8
0
 10
2.34229
 20
0.251139
 30
0.0
 40
0
 41
0
  0
VERTEX
  8
0
 10
2.33219
 20
0.275825
 30
0.0
 40
0
 41
0
  0
VERTEX
  8
0
 10
2.32943
 20
0.278917
 30
0.0
 40
0
 41
0
  0
VERTEX
  8
0
 10
2.32667
 20
0.28201
 30
0.0
 40
0
 41
0
  0
VERTEX
  8
0
 10
2.30425
 20
0.292806
 30
0.0
 40
0
 41
0
  0
VERTEX
  8
0
 10
2.27257
 20
0.297418
 30
0.0
 40
0
 41
0
  0
VERTEX
  8
0
 10
2.26204
 20
0.297418
 30
0.0
 40
0
 41
0
  0
VERTEX
  8
0
 10
2.18414
 20
0.297418
 30
0.0
 40
0
 41
0
  0
VERTEX
  8
0
 10
2.18414
 20
0.197808
 30
0.0
 40
0
 41
0
  0
VERTEX
  8
0
 10
2.20258
 20
0.197808
 30
0.0
 40
0
 41
0
  0
VERTEX
  8
0
 10
2.20888
 20
0.197808
 30
0.0
 40
0
 41
0
  0
VERTEX
  8
0
 10
2.22775
 20
0.200467
 30
0.0
 40
0
 41
0
  0
VERTEX
  8
0
 10
2.24089
 20
0.206597
 30
0.0
 40
0
 41
0
  0
VERTEX
  8
0
 10
2.24246
 20
0.208333
 30
0.0
 40
0
 41
0
  0
VERTEX
  8
0
 10
2.24403
 20
0.210124
 30
0.0
 40
0
 41
0
  0
VERTEX
  8
0
 10
2.25011
 20
0.22564
 30
0.0
 40
0
 41
0
  0
VERTEX
  8
0
 10
2.25385
 20
0.250325
 30
0.0
 40
0
 41
0
  0
VERTEX
  8
0
 10
2.25429
 20
0.256619
 30
0.0
 40
0
 41
0
  0
VERTEX
  8
0
 10
2.29107
 20
0.256836
 30
0.0
 40
0
 41
0
  0
VERTEX
  8
0
 10
2.29107
 20
0.094184
 30
0.0
 40
0
 41
0
  0
VERTEX
  8
0
 10
2.25429
 20
0.0944553
 30
0.0
 40
0
 41
0
  0
VERTEX
  8
0
 10
2.2539
 20
0.101454
 30
0.0
 40
0
 41
0
  0
VERTEX
  8
0
 10
2.25028
 20
0.128852
 30
0.0
 40
0
 41
0
  0
VERTEX
  8
0
 10
2.24425
 20
0.146376
 30
0.0
 40
0
 41
0
  0
VERTEX
  8
0
 10
2.24268
 20
0.148383
 30
0.0
 40
0
 41
0
  0
VERTEX
  8
0
 10
2.2411
 20
0.150444
 30
0.0
 40
0
 41
0
  0
VERTEX
  8
0
 10
2.22803
 20
0.157497
 30
0.0
 40
0
 41
0
  0
VERTEX
  8
0
 10
2.20925
 20
0.160536
 30
0.0
 40
0
 41
0
  0
VERTEX
  8
0
 10
2.20301
 20
0.160536
 30
0.0
 40
0
 41
0
  0
VERTEX
  8
0
 10
2.18414
 20
0.160536
 30
0.0
 40
0
 41
0
  0
VERTEX
  8
0
 10
2.18414
 20
0.0464953
 30
0.0
 40
0
 41
0
  0
VERTEX
  8
0
 10
2.26915
 20
0.0464953
 30
0.0
 40
0
 41
0
  0
VERTEX
  8
0
 10
2.2781
 20
0.0464953
 30
0.0
 40
0
 41
0
  0
VERTEX
  8
0
 10
2.30496
 20
0.0514324
 30
0.0
 40
0
 41
0
  0
VERTEX
  8
0
 10
2.32476
 20
0.0629883
 30
0.0
 40
0
 41
0
  0
VERTEX
  8
0
 10
2.32742
 20
0.0662435
 30
0.0
 40
0
 41
0
  0
VERTEX
  8
0
 10
2.33003
 20
0.0695529
 30
0.0
 40
0
 41
0
  0
VERTEX
  8
0
 10
2.34033
 20
0.0962999
 30
0.0
 40
0
 41
0
  0
VERTEX
  8
0
 10
2.34679
 20
0.136882
 30
0.0
 40
0
 41
0
  0
VERTEX
  8
0
 10
2.3475
 20
0.147081
 30
0.0
 40
0
 41
0
  0
VERTEX
  8
0
 10
2.38433
 20
0.147081
 30
0.0
 40
0
 41
0
  0
VERTEX
  8
0
 10
2.38433
 20
0.00965712
 30
0.0
 40
0
 41
0
  0
VERTEX
  8
0
 10
2.06515
 20
0.00965712
 30
0.0
 40
0
 41
0
  0
SEQEND
 8
0
  0
POLYLINE
  8
0
 62
     0
 66
     1
 10
0
 20
0
 30
0.0
 70
     1
 40
0
 41
0
  0
VERTEX
  8
0
 10
2.72228
 20
0.135254
 30
0.0
 40
0
 41
0
  0
VERTEX
  8
0
 10
2.76378
 20
0.135254
 30
0.0
 40
0
 41
0
  0
VERTEX
  8
0
 10
2.76297
 20
0.124512
 30
0.0
 40
0
 41
0
  0
VERTEX
  8
0
 10
2.75146
 20
0.0779622
 30
0.0
 40
0
 41
0
  0
VERTEX
  8
0
 10
2.72982
 20
0.0411783
 30
0.0
 40
0
 41
0
  0
VERTEX
  8
0
 10
2.72401
 20
0.0352647
 30
0.0
 40
0
 41
0
  0
VERTEX
  8
0
 10
2.71815
 20
0.0294054
 30
0.0
 40
0
 41
0
  0
VERTEX
  8
0
 10
2.68278
 20
0.00884332
 30
0.0
 40
0
 41
0
  0
VERTEX
  8
0
 10
2.64258
 20
0
 30
0.0
 40
0
 41
0
  0
VERTEX
  8
0
 10
2.62924
 20
0
 30
0.0
 40
0
 41
0
  0
VERTEX
  8
0
 10
2.61313
 20
0
 30
0.0
 40
0
 41
0
  0
VERTEX
  8
0
 10
2.56956
 20
0.00927735
 30
0.0
 40
0
 41
0
  0
VERTEX
  8
0
 10
2.56478
 20
0.011122
 30
0.0
 40
0
 41
0
  0
VERTEX
  8
0
 10
2.55994
 20
0.0129666
 30
0.0
 40
0
 41
0
  0
VERTEX
  8
0
 10
2.51708
 20
0.0412869
 30
0.0
 40
0
 41
0
  0
VERTEX
  8
0
 10
2.51335
 20
0.0450846
 30
0.0
 40
0
 41
0
  0
VERTEX
  8
0
 10
2.50917
 20
0.0492622
 30
0.0
 40
0
 41
0
  0
VERTEX
  8
0
 10
2.4776
 20
0.096951
 30
0.0
 40
0
 41
0
  0
VERTEX
  8
0
 10
2.47547
 20
0.102322
 30
0.0
 40
0
 41
0
  0
VERTEX
  8
0
 10
2.47331
 20
0.107747
 30
0.0
 40
0
 41
0
  0
VERTEX
  8
0
 10
2.46263
 20
0.156033
 30
0.0
 40
0
 41
0
  0
VERTEX
  8
0
 10
2.46263
 20
0.172092
 30
0.0
 40
0
 41
0
  0
VERTEX
  8
0
 10
2.46263
 20
0.18929
 30
0.0
 40
0
 41
0
  0
VERTEX
  8
0
 10
2.47299
 20
0.235678
 30
0.0
 40
0
 41
0
  0
VERTEX
  8
0
 10
2.4751
 20
0.240886
 30
0.0
 40
0
 41
0
  0
VERTEX
  8
0
 10
2.47715
 20
0.246149
 30
0.0
 40
0
 41
0
  0
VERTEX
  8
0
 10
2.50863
 20
0.29324
 30
0.0
 40
0
 41
0
  0
VERTEX
  8
0
 10
2.51286
 20
0.297418
 30
0.0
 40
0
 41
0
  0
VERTEX
  8
0
 10
2.51665
 20
0.301269
 30
0.0
 40
0
 41
0
  0
VERTEX
  8
0
 10
2.55935
 20
0.330078
 30
0.0
 40
0
 41
0
  0
VERTEX
  8
0
 10
2.56407
 20
0.332032
 30
0.0
 40
0
 41
0
  0
VERTEX
  8
0
 10
2.56879
 20
0.333985
 30
0.0
 40
0
 41
0
  0
VERTEX
  8
0
 10
2.61094
 20
0.343696
 30
0.0
 40
0
 41
0
  0
VERTEX
  8
0
 10
2.625
 20
0.343696
 30
0.0
 40
0
 41
0
  0
VERTEX
  8
0
 10
2.63721
 20
0.343696
 30
0.0
 40
0
 41
0
  0
VERTEX
  8
0
 10
2.67014
 20
0.336914
 30
0.0
 40
0
 41
0
  0
VERTEX
  8
0
 10
2.67399
 20
0.335558
 30
0.0
 40
0
 41
0
  0
VERTEX
  8
0
 10
2.67779
 20
0.334201
 30
0.0
 40
0
 41
0
  0
VERTEX
  8
0
 10
2.7155
 20
0.31326
 30
0.0
 40
0
 41
0
  0
VERTEX
  8
0
 10
2.71918
 20
0.310439
 30
0.0
 40
0
 41
0
  0
VERTEX
  8
0
 10
2.72885
 20
0.339464
 30
0.0
 40
0
 41
0
  0
VERTEX
  8
0
 10
2.76378
 20
0.339464
 30
0.0
 40
0
 41
0
  0
VERTEX
  8
0
 10
2.76378
 20
0.206543
 30
0.0
 40
0
 41
0
  0
VERTEX
  8
0
 10
2.72651
 20
0.206543
 30
0.0
 40
0
 41
0
  0
VERTEX
  8
0
 10
2.72553
 20
0.214301
 30
0.0
 40
0
 41
0
  0
VERTEX
  8
0
 10
2.71619
 20
0.247831
 30
0.0
 40
0
 41
0
  0
VERTEX
  8
0
 10
2.70063
 20
0.274306
 30
0.0
 40
0
 41
0
  0
VERTEX
  8
0
 10
2.69661
 20
0.278538
 30
0.0
 40
0
 41
0
  0
VERTEX
  8
0
 10
2.69254
 20
0.282824
 30
0.0
 40
0
 41
0
  0
VERTEX
  8
0
 10
2.66889
 20
0.297689
 30
0.0
 40
0
 41
0
  0
VERTEX
  8
0
 10
2.64285
 20
0.304036
 30
0.0
 40
0
 41
0
  0
VERTEX
  8
0
 10
2.63422
 20
0.304036
 30
0.0
 40
0
 41
0
  0
VERTEX
  8
0
 10
2.62424
 20
0.304036
 30
0.0
 40
0
 41
0
  0
VERTEX
  8
0
 10
2.5944
 20
0.295139
 30
0.0
 40
0
 41
0
  0
VERTEX
  8
0
 10
2.56842
 20
0.27436
 30
0.0
 40
0
 41
0
  0
VERTEX
  8
0
 10
2.56424
 20
0.268392
 30
0.0
 40
0
 41
0
  0
VERTEX
  8
0
 10
2.56
 20
0.262478
 30
0.0
 40
0
 41
0
  0
VERTEX
  8
0
 10
2.54519
 20
0.225911
 30
0.0
 40
0
 41
0
  0
VERTEX
  8
0
 10
2.53885
 20
0.183757
 30
0.0
 40
0
 41
0
  0
VERTEX
  8
0
 10
2.53885
 20
0.169706
 30
0.0
 40
0
 41
0
  0
VERTEX
  8
0
 10
2.53885
 20
0.156467
 30
0.0
 40
0
 41
0
  0
VERTEX
  8
0
 10
2.54514
 20
0.116591
 30
0.0
 40
0
 41
0
  0
VERTEX
  8
0
 10
2.55985
 20
0.0825738
 30
0.0
 40
0
 41
0
  0
VERTEX
  8
0
 10
2.56407
 20
0.0770942
 30
0.0
 40
0
 41
0
  0
VERTEX
  8
0
 10
2.56825
 20
0.0716689
 30
0.0
 40
0
 41
0
  0
VERTEX
  8
0
 10
2.59446
 20
0.0525717
 30
0.0
 40
0
 41
0
  0
VERTEX
  8
0
 10
2.62494
 20
0.0443793
 30
0.0
 40
0
 41
0
  0
VERTEX
  8
0
 10
2.63514
 20
0.0443793
 30
0.0
 40
0
 41
0
  0
VERTEX
  8
0
 10
2.64318
 20
0.0443793
 30
0.0
 40
0
 41
0
  0
VERTEX
  8
0
 10
2.66737
 20
0.0502387
 30
0.0
 40
0
 41
0
  0
VERTEX
  8
0
 10
2.68924
 20
0.0638021
 30
0.0
 40
0
 41
0
  0
VERTEX
  8
0
 10
2.69299
 20
0.067654
 30
0.0
 40
0
 41
0
  0
VERTEX
  8
0
 10
2.69667
 20
0.0715603
 30
0.0
 40
0
 41
0
  0
VERTEX
  8
0
 10
2.71137
 20
0.0961914
 30
0.0
 40
0
 41
0
  0
VERTEX
  8
0
 10
2.72108
 20
0.127875
 30
0.0
 40
0
 41
0
  0
VERTEX
  8
0
 10
2.72228
 20
0.135254
 30
0.0
 40
0
 41
0
  0
SEQEND
 8
0
  0
POLYLINE
  8
0
 62
     0
 66
     1
 10
0
 20
0
 30
0.0
 70
     1
 40
0
 41
0
  0
VERTEX
  8
0
 10
2.82172
 20
0.00965712
 30
0.0
 40
0
 41
0
  0
VERTEX
  8
0
 10
2.82172
 20
0.0464953
 30
0.0
 40
0
 41
0
  0
VERTEX
  8
0
 10
2.8406
 20
0.0464953
 30
0.0
 40
0
 41
0
  0
VERTEX
  8
0
 10
2.84722
 20
0.0464953
 30
0.0
 40
0
 41
0
  0
VERTEX
  8
0
 10
2.86637
 20
0.0507813
 30
0.0
 40
0
 41
0
  0
VERTEX
  8
0
 10
2.86724
 20
0.051595
 30
0.0
 40
0
 41
0
  0
VERTEX
  8
0
 10
2.86811
 20
0.0524631
 30
0.0
 40
0
 41
0
  0
VERTEX
  8
0
 10
2.87244
 20
0.0705296
 30
0.0
 40
0
 41
0
  0
VERTEX
  8
0
 10
2.87244
 20
0.0764974
 30
0.0
 40
0
 41
0
  0
VERTEX
  8
0
 10
2.87244
 20
0.267469
 30
0.0
 40
0
 41
0
  0
VERTEX
  8
0
 10
2.87244
 20
0.273708
 30
0.0
 40
0
 41
0
  0
VERTEX
  8
0
 10
2.86811
 20
0.291558
 30
0.0
 40
0
 41
0
  0
VERTEX
  8
0
 10
2.86724
 20
0.292372
 30
0.0
 40
0
 41
0
  0
VERTEX
  8
0
 10
2.86637
 20
0.29324
 30
0.0
 40
0
 41
0
  0
VERTEX
  8
0
 10
2.847
 20
0.297418
 30
0.0
 40
0
 41
0
  0
VERTEX
  8
0
 10
2.8406
 20
0.297418
 30
0.0
 40
0
 41
0
  0
VERTEX
  8
0
 10
2.82172
 20
0.297418
 30
0.0
 40
0
 41
0
  0
VERTEX
  8
0
 10
2.82172
 20
0.334039
 30
0.0
 40
0
 41
0
  0
VERTEX
  8
0
 10
2.99567
 20
0.334039
 30
0.0
 40
0
 41
0
  0
VERTEX
  8
0
 10
2.99567
 20
0.297418
 30
0.0
 40
0
 41
0
  0
VERTEX
  8
0
 10
2.97304
 20
0.297418
 30
0.0
 40
0
 41
0
  0
VERTEX
  8
0
 10
2.96625
 20
0.297418
 30
0.0
 40
0
 41
0
  0
VERTEX
  8
0
 10
2.94683
 20
0.293078
 30
0.0
 40
0
 41
0
  0
VERTEX
  8
0
 10
2.94596
 20
0.29221
 30
0.0
 40
0
 41
0
  0
VERTEX
  8
0
 10
2.94504
 20
0.291396
 30
0.0
 40
0
 41
0
  0
VERTEX
  8
0
 10
2.94069
 20
0.273492
 30
0.0
 40
0
 41
0
  0
VERTEX
  8
0
 10
2.94069
 20
0.267469
 30
0.0
 40
0
 41
0
  0
VERTEX
  8
0
 10
2.94069
 20
0.195692
 30
0.0
 40
0
 41
0
  0
VERTEX
  8
0
 10
3.08089
 20
0.195692
 30
0.0
 40
0
 41
0
  0
VERTEX
  8
0
 10
3.08089
 20
0.267469
 30
0.0
 40
0
 41
0
  0
VERTEX
  8
0
 10
3.08089
 20
0.273708
 30
0.0
 40
0
 41
0
  0
VERTEX
  8
0
 10
3.07656
 20
0.291558
 30
0.0
 40
0
 41
0
  0
VERTEX
  8
0
 10
3.07568
 20
0.292372
 30
0.0
 40
0
 41
0
  0
VERTEX
  8
0
 10
3.07482
 20
0.29324
 30
0.0
 40
0
 41
0
  0
VERTEX
  8
0
 10
3.05544
 20
0.297418
 30
0.0
 40
0
 41
0
  0
VERTEX
  8
0
 10
3.04904
 20
0.297418
 30
0.0
 40
0
 41
0
  0
VERTEX
  8
0
 10
3.02615
 20
0.297418
 30
0.0
 40
0
 41
0
  0
VERTEX
  8
0
 10
3.02615
 20
0.334039
 30
0.0
 40
0
 41
0
  0
VERTEX
  8
0
 10
3.20036
 20
0.334039
 30
0.0
 40
0
 41
0
  0
VERTEX
  8
0
 10
3.20036
 20
0.297418
 30
0.0
 40
0
 41
0
  0
VERTEX
  8
0
 10
3.18143
 20
0.297418
 30
0.0
 40
0
 41
0
  0
VERTEX
  8
0
 10
3.17464
 20
0.297418
 30
0.0
 40
0
 41
0
  0
VERTEX
  8
0
 10
3.15528
 20
0.293078
 30
0.0
 40
0
 41
0
  0
VERTEX
  8
0
 10
3.1544
 20
0.29221
 30
0.0
 40
0
 41
0
  0
VERTEX
  8
0
 10
3.15349
 20
0.291396
 30
0.0
 40
0
 41
0
  0
VERTEX
  8
0
 10
3.14908
 20
0.273492
 30
0.0
 40
0
 41
0
  0
VERTEX
  8
0
 10
3.14908
 20
0.267469
 30
0.0
 40
0
 41
0
  0
VERTEX
  8
0
 10
3.14908
 20
0.0764974
 30
0.0
 40
0
 41
0
  0
VERTEX
  8
0
 10
3.14908
 20
0.0703125
 30
0.0
 40
0
 41
0
  0
VERTEX
  8
0
 10
3.15349
 20
0.0525717
 30
0.0
 40
0
 41
0
  0
VERTEX
  8
0
 10
3.1544
 20
0.0517036
 30
0.0
 40
0
 41
0
  0
VERTEX
  8
0
 10
3.15528
 20
0.0508356
 30
0.0
 40
0
 41
0
  0
VERTEX
  8
0
 10
3.17486
 20
0.0464953
 30
0.0
 40
0
 41
0
  0
VERTEX
  8
0
 10
3.18143
 20
0.0464953
 30
0.0
 40
0
 41
0
  0
VERTEX
  8
0
 10
3.20036
 20
0.0464953
 30
0.0
 40
0
 41
0
  0
VERTEX
  8
0
 10
3.20036
 20
0.00965712
 30
0.0
 40
0
 41
0
  0
VERTEX
  8
0
 10
3.02615
 20
0.00965712
 30
0.0
 40
0
 41
0
  0
VERTEX
  8
0
 10
3.02615
 20
0.0464953
 30
0.0
 40
0
 41
0
  0
VERTEX
  8
0
 10
3.04904
 20
0.0464953
 30
0.0
 40
0
 41
0
  0
VERTEX
  8
0
 10
3.05567
 20
0.0464953
 30
0.0
 40
0
 41
0
  0
VERTEX
  8
0
 10
3.07482
 20
0.0507813
 30
0.0
 40
0
 41
0
  0
VERTEX
  8
0
 10
3.07568
 20
0.051595
 30
0.0
 40
0
 41
0
  0
VERTEX
  8
0
 10
3.07656
 20
0.0524631
 30
0.0
 40
0
 41
0
  0
VERTEX
  8
0
 10
3.08089
 20
0.0705296
 30
0.0
 40
0
 41
0
  0
VERTEX
  8
0
 10
3.08089
 20
0.0764974
 30
0.0
 40
0
 41
0
  0
VERTEX
  8
0
 10
3.08089
 20
0.156739
 30
0.0
 40
0
 41
0
  0
VERTEX
  8
0
 10
2.94069
 20
0.156739
 30
0.0
 40
0
 41
0
  0
VERTEX
  8
0
 10
2.94069
 20
0.0764974
 30
0.0
 40
0
 41
0
  0
VERTEX
  8
0
 10
2.94069
 20
0.0703125
 30
0.0
 40
0
 41
0
  0
VERTEX
  8
0
 10
2.94504
 20
0.0525717
 30
0.0
 40
0
 41
0
  0
VERTEX
  8
0
 10
2.94596
 20
0.0517036
 30
0.0
 40
0
 41
0
  0
VERTEX
  8
0
 10
2.94683
 20
0.0508356
 30
0.0
 40
0
 41
0
  0
VERTEX
  8
0
 10
2.96647
 20
0.0464953
 30
0.0
 40
0
 41
0
  0
VERTEX
  8
0
 10
2.97304
 20
0.0464953
 30
0.0
 40
0
 41
0
  0
VERTEX
  8
0
 10
2.99567
 20
0.0464953
 30
0.0
 40
0
 41
0
  0
VERTEX
  8
0
 10
2.99567
 20
0.00965712
 30
0.0
 40
0
 41
0
  0
VERTEX
  8
0
 10
2.82172
 20
0.00965712
 30
0.0
 40
0
 41
0
  0
SEQEND
 8
0
  0
ENDSEC
  0
EOF
