  0
SECTION
  2
HEADER
  9
$ACADVER
  1
AC1009
  9
$EXTMIN
 10
0.0
 20
0.0
 30
0.0
  9
$EXTMAX
 10
1000.0
 20
1000.0
 30
0.0
  9
$FILLMODE
 70
 0
  9
$SPLFRAME
 70
 1
  0
ENDSEC
  0
SECTION
  2
TABLES
  0
TABLE
  2
LAYER
 70
1
  0
LAYER
  2
0
 70
     0
 62
     7
  6
CONTINUOUS
  0
ENDTAB
  0
ENDSEC
  0
SECTION
  2
ENTITIES
  0
POLYLINE
  8
0
 62
     187
 66
     1
 10
0
 20
0
 30
0.0
 70
     1
 40
0
 41
0
  0
VERTEX
  8
0
 10
0.0104167
 20
0.407064
 30
0.0
 40
0
 41
0
  0
VERTEX
  8
0
 10
0.0104167
 20
0.253907
 30
0.0
 40
0
 41
0
  0
VERTEX
  8
0
 10
0.0636393
 20
0.253907
 30
0.0
 40
0
 41
0
  0
VERTEX
  8
0
 10
0.0636393
 20
0.262261
 30
0.0
 40
0
 41
0
  0
VERTEX
  8
0
 10
0.0657553
 20
0.284776
 30
0.0
 40
0
 41
0
  0
VERTEX
  8
0
 10
0.0661893
 20
0.287272
 30
0.0
 40
0
 41
0
  0
VERTEX
  8
0
 10
0.0925022
 20
0.241536
 30
0.0
 40
0
 41
0
  0
VERTEX
  8
0
 10
0.0741103
 20
0.317763
 30
0.0
 40
0
 41
0
  0
VERTEX
  8
0
 10
0.0754665
 20
0.321072
 30
0.0
 40
0
 41
0
  0
VERTEX
  8
0
 10
0.0964626
 20
0.344456
 30
0.0
 40
0
 41
0
  0
VERTEX
  8
0
 10
0.0992839
 20
0.345921
 30
0.0
 40
0
 41
0
  0
VERTEX
  8
0
 10
0.119792
 20
0.282607
 30
0.0
 40
0
 41
0
  0
VERTEX
  8
0
 10
0.120605
 20
0.352865
 30
0.0
 40
0
 41
0
  0
VERTEX
  8
0
 10
0.122667
 20
0.353244
 30
0.0
 40
0
 41
0
  0
VERTEX
  8
0
 10
0.146376
 20
0.354546
 30
0.0
 40
0
 41
0
  0
VERTEX
  8
0
 10
0.149035
 20
0.354438
 30
0.0
 40
0
 41
0
  0
VERTEX
  8
0
 10
0.148926
 20
0.166883
 30
0.0
 40
0
 41
0
  0
VERTEX
  8
0
 10
0.148926
 20
0.163249
 30
0.0
 40
0
 41
0
  0
VERTEX
  8
0
 10
0.152832
 20
0.152235
 30
0.0
 40
0
 41
0
  0
VERTEX
  8
0
 10
0.162218
 20
0.147353
 30
0.0
 40
0
 41
0
  0
VERTEX
  8
0
 10
0.164768
 20
0.148004
 30
0.0
 40
0
 41
0
  0
VERTEX
  8
0
 10
0.16569
 20
0.148275
 30
0.0
 40
0
 41
0
  0
VERTEX
  8
0
 10
0.168782
 20
0.156304
 30
0.0
 40
0
 41
0
  0
VERTEX
  8
0
 10
0.168457
 20
0.157824
 30
0.0
 40
0
 41
0
  0
VERTEX
  8
0
 10
0.166883
 20
0.164768
 30
0.0
 40
0
 41
0
  0
VERTEX
  8
0
 10
0.169162
 20
0.187011
 30
0.0
 40
0
 41
0
  0
VERTEX
  8
0
 10
0.182454
 20
0.209472
 30
0.0
 40
0
 41
0
  0
VERTEX
  8
0
 10
0.204101
 20
0.220107
 30
0.0
 40
0
 41
0
  0
VERTEX
  8
0
 10
0.22461
 20
0.217068
 30
0.0
 40
0
 41
0
  0
VERTEX
  8
0
 10
0.229981
 20
0.213704
 30
0.0
 40
0
 41
0
  0
VERTEX
  8
0
 10
0.232801
 20
0.213596
 30
0.0
 40
0
 41
0
  0
VERTEX
  8
0
 10
0.24349
 20
0.209418
 30
0.0
 40
0
 41
0
  0
VERTEX
  8
0
 10
0.24745
 20
0.197917
 30
0.0
 40
0
 41
0
  0
VERTEX
  8
0
 10
0.246962
 20
0.194336
 30
0.0
 40
0
 41
0
  0
VERTEX
  8
0
 10
0.242188
 20
0.197157
 30
0.0
 40
0
 41
0
  0
VERTEX
  8
0
 10
0.233399
 20
0.195421
 30
0.0
 40
0
 41
0
  0
VERTEX
  8
0
 10
0.230524
 20
0.193306
 30
0.0
 40
0
 41
0
  0
VERTEX
  8
0
 10
0.22564
 20
0.17909
 30
0.0
 40
0
 41
0
  0
VERTEX
  8
0
 10
0.230957
 20
0.166178
 30
0.0
 40
0
 41
0
  0
VERTEX
  8
0
 10
0.233236
 20
0.16466
 30
0.0
 40
0
 41
0
  0
VERTEX
  8
0
 10
0.236003
 20
0.162815
 30
0.0
 40
0
 41
0
  0
VERTEX
  8
0
 10
0.249349
 20
0.164606
 30
0.0
 40
0
 41
0
  0
VERTEX
  8
0
 10
0.257215
 20
0.177518
 30
0.0
 40
0
 41
0
  0
VERTEX
  8
0
 10
0.257215
 20
0.181803
 30
0.0
 40
0
 41
0
  0
VERTEX
  8
0
 10
0.257107
 20
0.354438
 30
0.0
 40
0
 41
0
  0
VERTEX
  8
0
 10
0.259711
 20
0.354546
 30
0.0
 40
0
 41
0
  0
VERTEX
  8
0
 10
0.283421
 20
0.353244
 30
0.0
 40
0
 41
0
  0
VERTEX
  8
0
 10
0.285536
 20
0.352865
 30
0.0
 40
0
 41
0
  0
VERTEX
  8
0
 10
0.286404
 20
0.282607
 30
0.0
 40
0
 41
0
  0
VERTEX
  8
0
 10
0.306858
 20
0.345921
 30
0.0
 40
0
 41
0
  0
VERTEX
  8
0
 10
0.309679
 20
0.344456
 30
0.0
 40
0
 41
0
  0
VERTEX
  8
0
 10
0.330675
 20
0.321072
 30
0.0
 40
0
 41
0
  0
VERTEX
  8
0
 10
0.332086
 20
0.317763
 30
0.0
 40
0
 41
0
  0
VERTEX
  8
0
 10
0.313693
 20
0.241536
 30
0.0
 40
0
 41
0
  0
VERTEX
  8
0
 10
0.340115
 20
0.287435
 30
0.0
 40
0
 41
0
  0
VERTEX
  8
0
 10
0.340494
 20
0.284993
 30
0.0
 40
0
 41
0
  0
VERTEX
  8
0
 10
0.342665
 20
0.261719
 30
0.0
 40
0
 41
0
  0
VERTEX
  8
0
 10
0.342665
 20
0.253907
 30
0.0
 40
0
 41
0
  0
VERTEX
  8
0
 10
0.396431
 20
0.253907
 30
0.0
 40
0
 41
0
  0
VERTEX
  8
0
 10
0.396431
 20
0.407064
 30
0.0
 40
0
 41
0
  0
VERTEX
  8
0
 10
0.0104167
 20
0.407064
 30
0.0
 40
0
 41
0
  0
SEQEND
 8
0
  0
POLYLINE
  8
0
 62
     187
 66
     1
 10
0
 20
0
 30
0.0
 70
     1
 40
0
 41
0
  0
VERTEX
  8
0
 10
0.504069
 20
0.349718
 30
0.0
 40
0
 41
0
  0
VERTEX
  8
0
 10
0.504069
 20
0.284885
 30
0.0
 40
0
 41
0
  0
VERTEX
  8
0
 10
0.521918
 20
0.284885
 30
0.0
 40
0
 41
0
  0
VERTEX
  8
0
 10
0.521972
 20
0.289117
 30
0.0
 40
0
 41
0
  0
VERTEX
  8
0
 10
0.529351
 20
0.319444
 30
0.0
 40
0
 41
0
  0
VERTEX
  8
0
 10
0.530817
 20
0.321289
 30
0.0
 40
0
 41
0
  0
VERTEX
  8
0
 10
0.532226
 20
0.323188
 30
0.0
 40
0
 41
0
  0
VERTEX
  8
0
 10
0.55165
 20
0.332519
 30
0.0
 40
0
 41
0
  0
VERTEX
  8
0
 10
0.55816
 20
0.332519
 30
0.0
 40
0
 41
0
  0
VERTEX
  8
0
 10
0.561253
 20
0.332519
 30
0.0
 40
0
 41
0
  0
VERTEX
  8
0
 10
0.561253
 20
0.225424
 30
0.0
 40
0
 41
0
  0
VERTEX
  8
0
 10
0.561253
 20
0.222439
 30
0.0
 40
0
 41
0
  0
VERTEX
  8
0
 10
0.559136
 20
0.213812
 30
0.0
 40
0
 41
0
  0
VERTEX
  8
0
 10
0.558757
 20
0.213379
 30
0.0
 40
0
 41
0
  0
VERTEX
  8
0
 10
0.558322
 20
0.212999
 30
0.0
 40
0
 41
0
  0
VERTEX
  8
0
 10
0.548936
 20
0.210938
 30
0.0
 40
0
 41
0
  0
VERTEX
  8
0
 10
0.545844
 20
0.210938
 30
0.0
 40
0
 41
0
  0
VERTEX
  8
0
 10
0.532281
 20
0.210938
 30
0.0
 40
0
 41
0
  0
VERTEX
  8
0
 10
0.532281
 20
0.193143
 30
0.0
 40
0
 41
0
  0
VERTEX
  8
0
 10
0.623101
 20
0.193143
 30
0.0
 40
0
 41
0
  0
VERTEX
  8
0
 10
0.623101
 20
0.210938
 30
0.0
 40
0
 41
0
  0
VERTEX
  8
0
 10
0.609754
 20
0.210938
 30
0.0
 40
0
 41
0
  0
VERTEX
  8
0
 10
0.6065
 20
0.210938
 30
0.0
 40
0
 41
0
  0
VERTEX
  8
0
 10
0.597114
 20
0.212999
 30
0.0
 40
0
 41
0
  0
VERTEX
  8
0
 10
0.596733
 20
0.213379
 30
0.0
 40
0
 41
0
  0
VERTEX
  8
0
 10
0.5963
 20
0.213812
 30
0.0
 40
0
 41
0
  0
VERTEX
  8
0
 10
0.594185
 20
0.222547
 30
0.0
 40
0
 41
0
  0
VERTEX
  8
0
 10
0.594185
 20
0.225424
 30
0.0
 40
0
 41
0
  0
VERTEX
  8
0
 10
0.594185
 20
0.332519
 30
0.0
 40
0
 41
0
  0
VERTEX
  8
0
 10
0.597601
 20
0.332519
 30
0.0
 40
0
 41
0
  0
VERTEX
  8
0
 10
0.604383
 20
0.332519
 30
0.0
 40
0
 41
0
  0
VERTEX
  8
0
 10
0.623372
 20
0.322971
 30
0.0
 40
0
 41
0
  0
VERTEX
  8
0
 10
0.624838
 20
0.321072
 30
0.0
 40
0
 41
0
  0
VERTEX
  8
0
 10
0.626247
 20
0.319174
 30
0.0
 40
0
 41
0
  0
VERTEX
  8
0
 10
0.633518
 20
0.289008
 30
0.0
 40
0
 41
0
  0
VERTEX
  8
0
 10
0.633572
 20
0.284885
 30
0.0
 40
0
 41
0
  0
VERTEX
  8
0
 10
0.651476
 20
0.284885
 30
0.0
 40
0
 41
0
  0
VERTEX
  8
0
 10
0.651476
 20
0.349718
 30
0.0
 40
0
 41
0
  0
VERTEX
  8
0
 10
0.504069
 20
0.349718
 30
0.0
 40
0
 41
0
  0
SEQEND
 8
0
  0
POLYLINE
  8
0
 62
     187
 66
     1
 10
0
 20
0
 30
0.0
 70
     1
 40
0
 41
0
  0
VERTEX
  8
0
 10
0.709853
 20
0.307563
 30
0.0
 40
0
 41
0
  0
VERTEX
  8
0
 10
0.699274
 20
0.307563
 30
0.0
 40
0
 41
0
  0
VERTEX
  8
0
 10
0.670193
 20
0.293946
 30
0.0
 40
0
 41
0
  0
VERTEX
  8
0
 10
0.667535
 20
0.291233
 30
0.0
 40
0
 41
0
  0
VERTEX
  8
0
 10
0.664822
 20
0.288519
 30
0.0
 40
0
 41
0
  0
VERTEX
  8
0
 10
0.651531
 20
0.258247
 30
0.0
 40
0
 41
0
  0
VERTEX
  8
0
 10
0.651531
 20
0.248156
 30
0.0
 40
0
 41
0
  0
VERTEX
  8
0
 10
0.651531
 20
0.237414
 30
0.0
 40
0
 41
0
  0
VERTEX
  8
0
 10
0.664714
 20
0.20779
 30
0.0
 40
0
 41
0
  0
VERTEX
  8
0
 10
0.667372
 20
0.205078
 30
0.0
 40
0
 41
0
  0
VERTEX
  8
0
 10
0.669976
 20
0.202419
 30
0.0
 40
0
 41
0
  0
VERTEX
  8
0
 10
0.699869
 20
0.188965
 30
0.0
 40
0
 41
0
  0
VERTEX
  8
0
 10
0.709853
 20
0.188965
 30
0.0
 40
0
 41
0
  0
VERTEX
  8
0
 10
0.718642
 20
0.188965
 30
0.0
 40
0
 41
0
  0
VERTEX
  8
0
 10
0.742676
 20
0.198731
 30
0.0
 40
0
 41
0
  0
VERTEX
  8
0
 10
0.745008
 20
0.200629
 30
0.0
 40
0
 41
0
  0
VERTEX
  8
0
 10
0.747287
 20
0.202582
 30
0.0
 40
0
 41
0
  0
VERTEX
  8
0
 10
0.760796
 20
0.229167
 30
0.0
 40
0
 41
0
  0
VERTEX
  8
0
 10
0.761231
 20
0.232531
 30
0.0
 40
0
 41
0
  0
VERTEX
  8
0
 10
0.741644
 20
0.232531
 30
0.0
 40
0
 41
0
  0
VERTEX
  8
0
 10
0.741157
 20
0.230306
 30
0.0
 40
0
 41
0
  0
VERTEX
  8
0
 10
0.733074
 20
0.214356
 30
0.0
 40
0
 41
0
  0
VERTEX
  8
0
 10
0.731933
 20
0.213379
 30
0.0
 40
0
 41
0
  0
VERTEX
  8
0
 10
0.73074
 20
0.212457
 30
0.0
 40
0
 41
0
  0
VERTEX
  8
0
 10
0.716362
 20
0.207574
 30
0.0
 40
0
 41
0
  0
VERTEX
  8
0
 10
0.711589
 20
0.207574
 30
0.0
 40
0
 41
0
  0
VERTEX
  8
0
 10
0.706489
 20
0.207574
 30
0.0
 40
0
 41
0
  0
VERTEX
  8
0
 10
0.692437
 20
0.215821
 30
0.0
 40
0
 41
0
  0
VERTEX
  8
0
 10
0.691243
 20
0.217449
 30
0.0
 40
0
 41
0
  0
VERTEX
  8
0
 10
0.689996
 20
0.219075
 30
0.0
 40
0
 41
0
  0
VERTEX
  8
0
 10
0.683431
 20
0.242785
 30
0.0
 40
0
 41
0
  0
VERTEX
  8
0
 10
0.683322
 20
0.245876
 30
0.0
 40
0
 41
0
  0
VERTEX
  8
0
 10
0.761936
 20
0.245876
 30
0.0
 40
0
 41
0
  0
VERTEX
  8
0
 10
0.761936
 20
0.25255
 30
0.0
 40
0
 41
0
  0
VERTEX
  8
0
 10
0.758572
 20
0.272407
 30
0.0
 40
0
 41
0
  0
VERTEX
  8
0
 10
0.750814
 20
0.289171
 30
0.0
 40
0
 41
0
  0
VERTEX
  8
0
 10
0.748589
 20
0.291775
 30
0.0
 40
0
 41
0
  0
VERTEX
  8
0
 10
0.746365
 20
0.294433
 30
0.0
 40
0
 41
0
  0
VERTEX
  8
0
 10
0.732206
 20
0.303657
 30
0.0
 40
0
 41
0
  0
VERTEX
  8
0
 10
0.71544
 20
0.307563
 30
0.0
 40
0
 41
0
  0
VERTEX
  8
0
 10
0.709853
 20
0.307563
 30
0.0
 40
0
 41
0
  0
SEQEND
 8
0
  0
POLYLINE
  8
0
 62
     187
 66
     1
 10
0
 20
0
 30
0.0
 70
     1
 40
0
 41
0
  0
VERTEX
  8
0
 10
1.1256
 20
0.307563
 30
0.0
 40
0
 41
0
  0
VERTEX
  8
0
 10
1.11502
 20
0.307563
 30
0.0
 40
0
 41
0
  0
VERTEX
  8
0
 10
1.08594
 20
0.293946
 30
0.0
 40
0
 41
0
  0
VERTEX
  8
0
 10
1.08328
 20
0.291233
 30
0.0
 40
0
 41
0
  0
VERTEX
  8
0
 10
1.08057
 20
0.288519
 30
0.0
 40
0
 41
0
  0
VERTEX
  8
0
 10
1.06728
 20
0.258247
 30
0.0
 40
0
 41
0
  0
VERTEX
  8
0
 10
1.06728
 20
0.248156
 30
0.0
 40
0
 41
0
  0
VERTEX
  8
0
 10
1.06728
 20
0.237414
 30
0.0
 40
0
 41
0
  0
VERTEX
  8
0
 10
1.08046
 20
0.20779
 30
0.0
 40
0
 41
0
  0
VERTEX
  8
0
 10
1.08312
 20
0.205078
 30
0.0
 40
0
 41
0
  0
VERTEX
  8
0
 10
1.08572
 20
0.202419
 30
0.0
 40
0
 41
0
  0
VERTEX
  8
0
 10
1.11561
 20
0.188965
 30
0.0
 40
0
 41
0
  0
VERTEX
  8
0
 10
1.1256
 20
0.188965
 30
0.0
 40
0
 41
0
  0
VERTEX
  8
0
 10
1.13439
 20
0.188965
 30
0.0
 40
0
 41
0
  0
VERTEX
  8
0
 10
1.15842
 20
0.198731
 30
0.0
 40
0
 41
0
  0
VERTEX
  8
0
 10
1.16075
 20
0.200629
 30
0.0
 40
0
 41
0
  0
VERTEX
  8
0
 10
1.16303
 20
0.202582
 30
0.0
 40
0
 41
0
  0
VERTEX
  8
0
 10
1.17654
 20
0.229167
 30
0.0
 40
0
 41
0
  0
VERTEX
  8
0
 10
1.17698
 20
0.232531
 30
0.0
 40
0
 41
0
  0
VERTEX
  8
0
 10
1.15739
 20
0.232531
 30
0.0
 40
0
 41
0
  0
VERTEX
  8
0
 10
1.1569
 20
0.230306
 30
0.0
 40
0
 41
0
  0
VERTEX
  8
0
 10
1.14876
 20
0.214356
 30
0.0
 40
0
 41
0
  0
VERTEX
  8
0
 10
1.14762
 20
0.213379
 30
0.0
 40
0
 41
0
  0
VERTEX
  8
0
 10
1.14648
 20
0.212457
 30
0.0
 40
0
 41
0
  0
VERTEX
  8
0
 10
1.13205
 20
0.207574
 30
0.0
 40
0
 41
0
  0
VERTEX
  8
0
 10
1.12728
 20
0.207574
 30
0.0
 40
0
 41
0
  0
VERTEX
  8
0
 10
1.12218
 20
0.207574
 30
0.0
 40
0
 41
0
  0
VERTEX
  8
0
 10
1.10818
 20
0.215821
 30
0.0
 40
0
 41
0
  0
VERTEX
  8
0
 10
1.10699
 20
0.217449
 30
0.0
 40
0
 41
0
  0
VERTEX
  8
0
 10
1.10574
 20
0.219075
 30
0.0
 40
0
 41
0
  0
VERTEX
  8
0
 10
1.09918
 20
0.242785
 30
0.0
 40
0
 41
0
  0
VERTEX
  8
0
 10
1.09907
 20
0.245876
 30
0.0
 40
0
 41
0
  0
VERTEX
  8
0
 10
1.17768
 20
0.245876
 30
0.0
 40
0
 41
0
  0
VERTEX
  8
0
 10
1.17768
 20
0.25255
 30
0.0
 40
0
 41
0
  0
VERTEX
  8
0
 10
1.17432
 20
0.272407
 30
0.0
 40
0
 41
0
  0
VERTEX
  8
0
 10
1.16656
 20
0.289171
 30
0.0
 40
0
 41
0
  0
VERTEX
  8
0
 10
1.16433
 20
0.291775
 30
0.0
 40
0
 41
0
  0
VERTEX
  8
0
 10
1.16211
 20
0.294433
 30
0.0
 40
0
 41
0
  0
VERTEX
  8
0
 10
1.14795
 20
0.303657
 30
0.0
 40
0
 41
0
  0
VERTEX
  8
0
 10
1.13118
 20
0.307563
 30
0.0
 40
0
 41
0
  0
VERTEX
  8
0
 10
1.1256
 20
0.307563
 30
0.0
 40
0
 41
0
  0
SEQEND
 8
0
  0
POLYLINE
  8
0
 62
     187
 66
     1
 10
0
 20
0
 30
0.0
 70
     1
 40
0
 41
0
  0
VERTEX
  8
0
 10
1.23378
 20
0.307563
 30
0.0
 40
0
 41
0
  0
VERTEX
  8
0
 10
1.22602
 20
0.307563
 30
0.0
 40
0
 41
0
  0
VERTEX
  8
0
 10
1.20475
 20
0.299533
 30
0.0
 40
0
 41
0
  0
VERTEX
  8
0
 10
1.2028
 20
0.297906
 30
0.0
 40
0
 41
0
  0
VERTEX
  8
0
 10
1.20079
 20
0.296332
 30
0.0
 40
0
 41
0
  0
VERTEX
  8
0
 10
1.19103
 20
0.278808
 30
0.0
 40
0
 41
0
  0
VERTEX
  8
0
 10
1.19103
 20
0.272949
 30
0.0
 40
0
 41
0
  0
VERTEX
  8
0
 10
1.19103
 20
0.267632
 30
0.0
 40
0
 41
0
  0
VERTEX
  8
0
 10
1.19835
 20
0.253039
 30
0.0
 40
0
 41
0
  0
VERTEX
  8
0
 10
1.19982
 20
0.251628
 30
0.0
 40
0
 41
0
  0
VERTEX
  8
0
 10
1.20128
 20
0.250271
 30
0.0
 40
0
 41
0
  0
VERTEX
  8
0
 10
1.22369
 20
0.239583
 30
0.0
 40
0
 41
0
  0
VERTEX
  8
0
 10
1.22673
 20
0.238824
 30
0.0
 40
0
 41
0
  0
VERTEX
  8
0
 10
1.24403
 20
0.234754
 30
0.0
 40
0
 41
0
  0
VERTEX
  8
0
 10
1.24582
 20
0.234321
 30
0.0
 40
0
 41
0
  0
VERTEX
  8
0
 10
1.25852
 20
0.229329
 30
0.0
 40
0
 41
0
  0
VERTEX
  8
0
 10
1.25928
 20
0.228788
 30
0.0
 40
0
 41
0
  0
VERTEX
  8
0
 10
1.25998
 20
0.228244
 30
0.0
 40
0
 41
0
  0
VERTEX
  8
0
 10
1.26362
 20
0.222276
 30
0.0
 40
0
 41
0
  0
VERTEX
  8
0
 10
1.26362
 20
0.220269
 30
0.0
 40
0
 41
0
  0
VERTEX
  8
0
 10
1.26362
 20
0.217665
 30
0.0
 40
0
 41
0
  0
VERTEX
  8
0
 10
1.25912
 20
0.210394
 30
0.0
 40
0
 41
0
  0
VERTEX
  8
0
 10
1.25825
 20
0.209744
 30
0.0
 40
0
 41
0
  0
VERTEX
  8
0
 10
1.25732
 20
0.209093
 30
0.0
 40
0
 41
0
  0
VERTEX
  8
0
 10
1.24734
 20
0.205838
 30
0.0
 40
0
 41
0
  0
VERTEX
  8
0
 10
1.24403
 20
0.205838
 30
0.0
 40
0
 41
0
  0
VERTEX
  8
0
 10
1.23796
 20
0.205838
 30
0.0
 40
0
 41
0
  0
VERTEX
  8
0
 10
1.22141
 20
0.212511
 30
0.0
 40
0
 41
0
  0
VERTEX
  8
0
 10
1.21983
 20
0.213812
 30
0.0
 40
0
 41
0
  0
VERTEX
  8
0
 10
1.21821
 20
0.215169
 30
0.0
 40
0
 41
0
  0
VERTEX
  8
0
 10
1.20741
 20
0.234321
 30
0.0
 40
0
 41
0
  0
VERTEX
  8
0
 10
1.20687
 20
0.236817
 30
0.0
 40
0
 41
0
  0
VERTEX
  8
0
 10
1.18978
 20
0.236817
 30
0.0
 40
0
 41
0
  0
VERTEX
  8
0
 10
1.18978
 20
0.191786
 30
0.0
 40
0
 41
0
  0
VERTEX
  8
0
 10
1.2053
 20
0.191786
 30
0.0
 40
0
 41
0
  0
VERTEX
  8
0
 10
1.20953
 20
0.201606
 30
0.0
 40
0
 41
0
  0
VERTEX
  8
0
 10
1.21105
 20
0.200521
 30
0.0
 40
0
 41
0
  0
VERTEX
  8
0
 10
1.22613
 20
0.192546
 30
0.0
 40
0
 41
0
  0
VERTEX
  8
0
 10
1.22759
 20
0.192057
 30
0.0
 40
0
 41
0
  0
VERTEX
  8
0
 10
1.22906
 20
0.191624
 30
0.0
 40
0
 41
0
  0
VERTEX
  8
0
 10
1.2423
 20
0.189128
 30
0.0
 40
0
 41
0
  0
VERTEX
  8
0
 10
1.24674
 20
0.189128
 30
0.0
 40
0
 41
0
  0
VERTEX
  8
0
 10
1.25488
 20
0.189128
 30
0.0
 40
0
 41
0
  0
VERTEX
  8
0
 10
1.27745
 20
0.197211
 30
0.0
 40
0
 41
0
  0
VERTEX
  8
0
 10
1.27946
 20
0.198785
 30
0.0
 40
0
 41
0
  0
VERTEX
  8
0
 10
1.28141
 20
0.200413
 30
0.0
 40
0
 41
0
  0
VERTEX
  8
0
 10
1.29129
 20
0.218804
 30
0.0
 40
0
 41
0
  0
VERTEX
  8
0
 10
1.29129
 20
0.224935
 30
0.0
 40
0
 41
0
  0
VERTEX
  8
0
 10
1.29129
 20
0.230578
 30
0.0
 40
0
 41
0
  0
VERTEX
  8
0
 10
1.28348
 20
0.246094
 30
0.0
 40
0
 41
0
  0
VERTEX
  8
0
 10
1.28196
 20
0.247504
 30
0.0
 40
0
 41
0
  0
VERTEX
  8
0
 10
1.28038
 20
0.248969
 30
0.0
 40
0
 41
0
  0
VERTEX
  8
0
 10
1.25553
 20
0.260254
 30
0.0
 40
0
 41
0
  0
VERTEX
  8
0
 10
1.25212
 20
0.261068
 30
0.0
 40
0
 41
0
  0
VERTEX
  8
0
 10
1.2309
 20
0.26595
 30
0.0
 40
0
 41
0
  0
VERTEX
  8
0
 10
1.22976
 20
0.266222
 30
0.0
 40
0
 41
0
  0
VERTEX
  8
0
 10
1.22152
 20
0.270019
 30
0.0
 40
0
 41
0
  0
VERTEX
  8
0
 10
1.22103
 20
0.270454
 30
0.0
 40
0
 41
0
  0
VERTEX
  8
0
 10
1.22049
 20
0.270942
 30
0.0
 40
0
 41
0
  0
VERTEX
  8
0
 10
1.21783
 20
0.27615
 30
0.0
 40
0
 41
0
  0
VERTEX
  8
0
 10
1.21783
 20
0.277832
 30
0.0
 40
0
 41
0
  0
VERTEX
  8
0
 10
1.21783
 20
0.280274
 30
0.0
 40
0
 41
0
  0
VERTEX
  8
0
 10
1.22173
 20
0.286893
 30
0.0
 40
0
 41
0
  0
VERTEX
  8
0
 10
1.22255
 20
0.287435
 30
0.0
 40
0
 41
0
  0
VERTEX
  8
0
 10
1.22331
 20
0.288032
 30
0.0
 40
0
 41
0
  0
VERTEX
  8
0
 10
1.23248
 20
0.290907
 30
0.0
 40
0
 41
0
  0
VERTEX
  8
0
 10
1.23557
 20
0.290907
 30
0.0
 40
0
 41
0
  0
VERTEX
  8
0
 10
1.24094
 20
0.290907
 30
0.0
 40
0
 41
0
  0
VERTEX
  8
0
 10
1.25559
 20
0.285047
 30
0.0
 40
0
 41
0
  0
VERTEX
  8
0
 10
1.25711
 20
0.283854
 30
0.0
 40
0
 41
0
  0
VERTEX
  8
0
 10
1.25857
 20
0.282715
 30
0.0
 40
0
 41
0
  0
VERTEX
  8
0
 10
1.26904
 20
0.266276
 30
0.0
 40
0
 41
0
  0
VERTEX
  8
0
 10
1.26964
 20
0.26416
 30
0.0
 40
0
 41
0
  0
VERTEX
  8
0
 10
1.28548
 20
0.26416
 30
0.0
 40
0
 41
0
  0
VERTEX
  8
0
 10
1.28548
 20
0.304904
 30
0.0
 40
0
 41
0
  0
VERTEX
  8
0
 10
1.27214
 20
0.304904
 30
0.0
 40
0
 41
0
  0
VERTEX
  8
0
 10
1.26704
 20
0.296224
 30
0.0
 40
0
 41
0
  0
VERTEX
  8
0
 10
1.26573
 20
0.2972
 30
0.0
 40
0
 41
0
  0
VERTEX
  8
0
 10
1.25244
 20
0.304308
 30
0.0
 40
0
 41
0
  0
VERTEX
  8
0
 10
1.25108
 20
0.304742
 30
0.0
 40
0
 41
0
  0
VERTEX
  8
0
 10
1.24968
 20
0.305231
 30
0.0
 40
0
 41
0
  0
VERTEX
  8
0
 10
1.23774
 20
0.307563
 30
0.0
 40
0
 41
0
  0
VERTEX
  8
0
 10
1.23378
 20
0.307563
 30
0.0
 40
0
 41
0
  0
SEQEND
 8
0
  0
POLYLINE
  8
0
 62
     187
 66
     1
 10
0
 20
0
 30
0.0
 70
     1
 40
0
 41
0
  0
VERTEX
  8
0
 10
1.34603
 20
0.307563
 30
0.0
 40
0
 41
0
  0
VERTEX
  8
0
 10
1.33827
 20
0.307563
 30
0.0
 40
0
 41
0
  0
VERTEX
  8
0
 10
1.317
 20
0.299533
 30
0.0
 40
0
 41
0
  0
VERTEX
  8
0
 10
1.31505
 20
0.297906
 30
0.0
 40
0
 41
0
  0
VERTEX
  8
0
 10
1.31304
 20
0.296332
 30
0.0
 40
0
 41
0
  0
VERTEX
  8
0
 10
1.30328
 20
0.278808
 30
0.0
 40
0
 41
0
  0
VERTEX
  8
0
 10
1.30328
 20
0.272949
 30
0.0
 40
0
 41
0
  0
VERTEX
  8
0
 10
1.30328
 20
0.267632
 30
0.0
 40
0
 41
0
  0
VERTEX
  8
0
 10
1.3106
 20
0.253039
 30
0.0
 40
0
 41
0
  0
VERTEX
  8
0
 10
1.31207
 20
0.251628
 30
0.0
 40
0
 41
0
  0
VERTEX
  8
0
 10
1.31353
 20
0.250271
 30
0.0
 40
0
 41
0
  0
VERTEX
  8
0
 10
1.33588
 20
0.239583
 30
0.0
 40
0
 41
0
  0
VERTEX
  8
0
 10
1.33892
 20
0.238824
 30
0.0
 40
0
 41
0
  0
VERTEX
  8
0
 10
1.35628
 20
0.234754
 30
0.0
 40
0
 41
0
  0
VERTEX
  8
0
 10
1.35807
 20
0.234321
 30
0.0
 40
0
 41
0
  0
VERTEX
  8
0
 10
1.37077
 20
0.229329
 30
0.0
 40
0
 41
0
  0
VERTEX
  8
0
 10
1.37153
 20
0.228788
 30
0.0
 40
0
 41
0
  0
VERTEX
  8
0
 10
1.37223
 20
0.228244
 30
0.0
 40
0
 41
0
  0
VERTEX
  8
0
 10
1.37587
 20
0.222276
 30
0.0
 40
0
 41
0
  0
VERTEX
  8
0
 10
1.37587
 20
0.220269
 30
0.0
 40
0
 41
0
  0
VERTEX
  8
0
 10
1.37587
 20
0.217665
 30
0.0
 40
0
 41
0
  0
VERTEX
  8
0
 10
1.37137
 20
0.210394
 30
0.0
 40
0
 41
0
  0
VERTEX
  8
0
 10
1.3705
 20
0.209744
 30
0.0
 40
0
 41
0
  0
VERTEX
  8
0
 10
1.36957
 20
0.209093
 30
0.0
 40
0
 41
0
  0
VERTEX
  8
0
 10
1.35959
 20
0.205838
 30
0.0
 40
0
 41
0
  0
VERTEX
  8
0
 10
1.35628
 20
0.205838
 30
0.0
 40
0
 41
0
  0
VERTEX
  8
0
 10
1.35021
 20
0.205838
 30
0.0
 40
0
 41
0
  0
VERTEX
  8
0
 10
1.3336
 20
0.212511
 30
0.0
 40
0
 41
0
  0
VERTEX
  8
0
 10
1.33203
 20
0.213812
 30
0.0
 40
0
 41
0
  0
VERTEX
  8
0
 10
1.3304
 20
0.215169
 30
0.0
 40
0
 41
0
  0
VERTEX
  8
0
 10
1.31966
 20
0.234321
 30
0.0
 40
0
 41
0
  0
VERTEX
  8
0
 10
1.31912
 20
0.236817
 30
0.0
 40
0
 41
0
  0
VERTEX
  8
0
 10
1.30203
 20
0.236817
 30
0.0
 40
0
 41
0
  0
VERTEX
  8
0
 10
1.30203
 20
0.191786
 30
0.0
 40
0
 41
0
  0
VERTEX
  8
0
 10
1.31755
 20
0.191786
 30
0.0
 40
0
 41
0
  0
VERTEX
  8
0
 10
1.32172
 20
0.201606
 30
0.0
 40
0
 41
0
  0
VERTEX
  8
0
 10
1.32324
 20
0.200521
 30
0.0
 40
0
 41
0
  0
VERTEX
  8
0
 10
1.33838
 20
0.192546
 30
0.0
 40
0
 41
0
  0
VERTEX
  8
0
 10
1.33984
 20
0.192057
 30
0.0
 40
0
 41
0
  0
VERTEX
  8
0
 10
1.34131
 20
0.191624
 30
0.0
 40
0
 41
0
  0
VERTEX
  8
0
 10
1.35455
 20
0.189128
 30
0.0
 40
0
 41
0
  0
VERTEX
  8
0
 10
1.359
 20
0.189128
 30
0.0
 40
0
 41
0
  0
VERTEX
  8
0
 10
1.36713
 20
0.189128
 30
0.0
 40
0
 41
0
  0
VERTEX
  8
0
 10
1.38971
 20
0.197211
 30
0.0
 40
0
 41
0
  0
VERTEX
  8
0
 10
1.39171
 20
0.198785
 30
0.0
 40
0
 41
0
  0
VERTEX
  8
0
 10
1.39367
 20
0.200413
 30
0.0
 40
0
 41
0
  0
VERTEX
  8
0
 10
1.40354
 20
0.218804
 30
0.0
 40
0
 41
0
  0
VERTEX
  8
0
 10
1.40354
 20
0.224935
 30
0.0
 40
0
 41
0
  0
VERTEX
  8
0
 10
1.40354
 20
0.230578
 30
0.0
 40
0
 41
0
  0
VERTEX
  8
0
 10
1.39572
 20
0.246094
 30
0.0
 40
0
 41
0
  0
VERTEX
  8
0
 10
1.39421
 20
0.247504
 30
0.0
 40
0
 41
0
  0
VERTEX
  8
0
 10
1.39264
 20
0.248969
 30
0.0
 40
0
 41
0
  0
VERTEX
  8
0
 10
1.36778
 20
0.260254
 30
0.0
 40
0
 41
0
  0
VERTEX
  8
0
 10
1.36437
 20
0.261068
 30
0.0
 40
0
 41
0
  0
VERTEX
  8
0
 10
1.34315
 20
0.26595
 30
0.0
 40
0
 41
0
  0
VERTEX
  8
0
 10
1.34201
 20
0.266222
 30
0.0
 40
0
 41
0
  0
VERTEX
  8
0
 10
1.33377
 20
0.270019
 30
0.0
 40
0
 41
0
  0
VERTEX
  8
0
 10
1.33328
 20
0.270454
 30
0.0
 40
0
 41
0
  0
VERTEX
  8
0
 10
1.33274
 20
0.270942
 30
0.0
 40
0
 41
0
  0
VERTEX
  8
0
 10
1.33008
 20
0.27615
 30
0.0
 40
0
 41
0
  0
VERTEX
  8
0
 10
1.33008
 20
0.277832
 30
0.0
 40
0
 41
0
  0
VERTEX
  8
0
 10
1.33008
 20
0.280274
 30
0.0
 40
0
 41
0
  0
VERTEX
  8
0
 10
1.33398
 20
0.286893
 30
0.0
 40
0
 41
0
  0
VERTEX
  8
0
 10
1.3348
 20
0.287435
 30
0.0
 40
0
 41
0
  0
VERTEX
  8
0
 10
1.33556
 20
0.288032
 30
0.0
 40
0
 41
0
  0
VERTEX
  8
0
 10
1.34473
 20
0.290907
 30
0.0
 40
0
 41
0
  0
VERTEX
  8
0
 10
1.34782
 20
0.290907
 30
0.0
 40
0
 41
0
  0
VERTEX
  8
0
 10
1.35319
 20
0.290907
 30
0.0
 40
0
 41
0
  0
VERTEX
  8
0
 10
1.36784
 20
0.285047
 30
0.0
 40
0
 41
0
  0
VERTEX
  8
0
 10
1.36936
 20
0.283854
 30
0.0
 40
0
 41
0
  0
VERTEX
  8
0
 10
1.37082
 20
0.282715
 30
0.0
 40
0
 41
0
  0
VERTEX
  8
0
 10
1.38129
 20
0.266276
 30
0.0
 40
0
 41
0
  0
VERTEX
  8
0
 10
1.38189
 20
0.26416
 30
0.0
 40
0
 41
0
  0
VERTEX
  8
0
 10
1.39774
 20
0.26416
 30
0.0
 40
0
 41
0
  0
VERTEX
  8
0
 10
1.39774
 20
0.304904
 30
0.0
 40
0
 41
0
  0
VERTEX
  8
0
 10
1.38439
 20
0.304904
 30
0.0
 40
0
 41
0
  0
VERTEX
  8
0
 10
1.37929
 20
0.296224
 30
0.0
 40
0
 41
0
  0
VERTEX
  8
0
 10
1.37798
 20
0.2972
 30
0.0
 40
0
 41
0
  0
VERTEX
  8
0
 10
1.36469
 20
0.304308
 30
0.0
 40
0
 41
0
  0
VERTEX
  8
0
 10
1.36334
 20
0.304742
 30
0.0
 40
0
 41
0
  0
VERTEX
  8
0
 10
1.36193
 20
0.305231
 30
0.0
 40
0
 41
0
  0
VERTEX
  8
0
 10
1.34999
 20
0.307563
 30
0.0
 40
0
 41
0
  0
VERTEX
  8
0
 10
1.34603
 20
0.307563
 30
0.0
 40
0
 41
0
  0
SEQEND
 8
0
  0
POLYLINE
  8
0
 62
     187
 66
     1
 10
0
 20
0
 30
0.0
 70
     1
 40
0
 41
0
  0
VERTEX
  8
0
 10
1.47194
 20
0.307563
 30
0.0
 40
0
 41
0
  0
VERTEX
  8
0
 10
1.46132
 20
0.307563
 30
0.0
 40
0
 41
0
  0
VERTEX
  8
0
 10
1.43224
 20
0.293946
 30
0.0
 40
0
 41
0
  0
VERTEX
  8
0
 10
1.42958
 20
0.291233
 30
0.0
 40
0
 41
0
  0
VERTEX
  8
0
 10
1.42692
 20
0.288519
 30
0.0
 40
0
 41
0
  0
VERTEX
  8
0
 10
1.41357
 20
0.258247
 30
0.0
 40
0
 41
0
  0
VERTEX
  8
0
 10
1.41357
 20
0.248156
 30
0.0
 40
0
 41
0
  0
VERTEX
  8
0
 10
1.41357
 20
0.237414
 30
0.0
 40
0
 41
0
  0
VERTEX
  8
0
 10
1.42676
 20
0.20779
 30
0.0
 40
0
 41
0
  0
VERTEX
  8
0
 10
1.42942
 20
0.205078
 30
0.0
 40
0
 41
0
  0
VERTEX
  8
0
 10
1.43201
 20
0.202419
 30
0.0
 40
0
 41
0
  0
VERTEX
  8
0
 10
1.46197
 20
0.188965
 30
0.0
 40
0
 41
0
  0
VERTEX
  8
0
 10
1.47194
 20
0.188965
 30
0.0
 40
0
 41
0
  0
VERTEX
  8
0
 10
1.48068
 20
0.188965
 30
0.0
 40
0
 41
0
  0
VERTEX
  8
0
 10
1.50478
 20
0.198731
 30
0.0
 40
0
 41
0
  0
VERTEX
  8
0
 10
1.50706
 20
0.200629
 30
0.0
 40
0
 41
0
  0
VERTEX
  8
0
 10
1.50933
 20
0.202582
 30
0.0
 40
0
 41
0
  0
VERTEX
  8
0
 10
1.52289
 20
0.229167
 30
0.0
 40
0
 41
0
  0
VERTEX
  8
0
 10
1.52333
 20
0.232531
 30
0.0
 40
0
 41
0
  0
VERTEX
  8
0
 10
1.50369
 20
0.232531
 30
0.0
 40
0
 41
0
  0
VERTEX
  8
0
 10
1.50319
 20
0.230306
 30
0.0
 40
0
 41
0
  0
VERTEX
  8
0
 10
1.49511
 20
0.214356
 30
0.0
 40
0
 41
0
  0
VERTEX
  8
0
 10
1.49397
 20
0.213379
 30
0.0
 40
0
 41
0
  0
VERTEX
  8
0
 10
1.49278
 20
0.212457
 30
0.0
 40
0
 41
0
  0
VERTEX
  8
0
 10
1.4784
 20
0.207574
 30
0.0
 40
0
 41
0
  0
VERTEX
  8
0
 10
1.47364
 20
0.207574
 30
0.0
 40
0
 41
0
  0
VERTEX
  8
0
 10
1.46853
 20
0.207574
 30
0.0
 40
0
 41
0
  0
VERTEX
  8
0
 10
1.45449
 20
0.215821
 30
0.0
 40
0
 41
0
  0
VERTEX
  8
0
 10
1.45329
 20
0.217449
 30
0.0
 40
0
 41
0
  0
VERTEX
  8
0
 10
1.45204
 20
0.219075
 30
0.0
 40
0
 41
0
  0
VERTEX
  8
0
 10
1.44547
 20
0.242785
 30
0.0
 40
0
 41
0
  0
VERTEX
  8
0
 10
1.44536
 20
0.245876
 30
0.0
 40
0
 41
0
  0
VERTEX
  8
0
 10
1.52399
 20
0.245876
 30
0.0
 40
0
 41
0
  0
VERTEX
  8
0
 10
1.52399
 20
0.25255
 30
0.0
 40
0
 41
0
  0
VERTEX
  8
0
 10
1.52061
 20
0.272407
 30
0.0
 40
0
 41
0
  0
VERTEX
  8
0
 10
1.51286
 20
0.289171
 30
0.0
 40
0
 41
0
  0
VERTEX
  8
0
 10
1.51069
 20
0.291775
 30
0.0
 40
0
 41
0
  0
VERTEX
  8
0
 10
1.50846
 20
0.294433
 30
0.0
 40
0
 41
0
  0
VERTEX
  8
0
 10
1.49431
 20
0.303657
 30
0.0
 40
0
 41
0
  0
VERTEX
  8
0
 10
1.47754
 20
0.307563
 30
0.0
 40
0
 41
0
  0
VERTEX
  8
0
 10
1.47194
 20
0.307563
 30
0.0
 40
0
 41
0
  0
SEQEND
 8
0
  0
POLYLINE
  8
0
 62
     187
 66
     1
 10
0
 20
0
 30
0.0
 70
     1
 40
0
 41
0
  0
VERTEX
  8
0
 10
1.59375
 20
0.307563
 30
0.0
 40
0
 41
0
  0
VERTEX
  8
0
 10
1.58317
 20
0.307563
 30
0.0
 40
0
 41
0
  0
VERTEX
  8
0
 10
1.5541
 20
0.293946
 30
0.0
 40
0
 41
0
  0
VERTEX
  8
0
 10
1.55143
 20
0.291233
 30
0.0
 40
0
 41
0
  0
VERTEX
  8
0
 10
1.54878
 20
0.288519
 30
0.0
 40
0
 41
0
  0
VERTEX
  8
0
 10
1.53543
 20
0.258247
 30
0.0
 40
0
 41
0
  0
VERTEX
  8
0
 10
1.53543
 20
0.248156
 30
0.0
 40
0
 41
0
  0
VERTEX
  8
0
 10
1.53543
 20
0.237414
 30
0.0
 40
0
 41
0
  0
VERTEX
  8
0
 10
1.54861
 20
0.20779
 30
0.0
 40
0
 41
0
  0
VERTEX
  8
0
 10
1.55126
 20
0.205078
 30
0.0
 40
0
 41
0
  0
VERTEX
  8
0
 10
1.55387
 20
0.202419
 30
0.0
 40
0
 41
0
  0
VERTEX
  8
0
 10
1.58376
 20
0.188965
 30
0.0
 40
0
 41
0
  0
VERTEX
  8
0
 10
1.59375
 20
0.188965
 30
0.0
 40
0
 41
0
  0
VERTEX
  8
0
 10
1.60254
 20
0.188965
 30
0.0
 40
0
 41
0
  0
VERTEX
  8
0
 10
1.62662
 20
0.198731
 30
0.0
 40
0
 41
0
  0
VERTEX
  8
0
 10
1.6289
 20
0.200629
 30
0.0
 40
0
 41
0
  0
VERTEX
  8
0
 10
1.63118
 20
0.202582
 30
0.0
 40
0
 41
0
  0
VERTEX
  8
0
 10
1.64469
 20
0.229167
 30
0.0
 40
0
 41
0
  0
VERTEX
  8
0
 10
1.64512
 20
0.232531
 30
0.0
 40
0
 41
0
  0
VERTEX
  8
0
 10
1.62554
 20
0.232531
 30
0.0
 40
0
 41
0
  0
VERTEX
  8
0
 10
1.62506
 20
0.230306
 30
0.0
 40
0
 41
0
  0
VERTEX
  8
0
 10
1.61697
 20
0.214356
 30
0.0
 40
0
 41
0
  0
VERTEX
  8
0
 10
1.61583
 20
0.213379
 30
0.0
 40
0
 41
0
  0
VERTEX
  8
0
 10
1.61464
 20
0.212457
 30
0.0
 40
0
 41
0
  0
VERTEX
  8
0
 10
1.60026
 20
0.207574
 30
0.0
 40
0
 41
0
  0
VERTEX
  8
0
 10
1.59549
 20
0.207574
 30
0.0
 40
0
 41
0
  0
VERTEX
  8
0
 10
1.59039
 20
0.207574
 30
0.0
 40
0
 41
0
  0
VERTEX
  8
0
 10
1.57633
 20
0.215821
 30
0.0
 40
0
 41
0
  0
VERTEX
  8
0
 10
1.57514
 20
0.217449
 30
0.0
 40
0
 41
0
  0
VERTEX
  8
0
 10
1.57389
 20
0.219075
 30
0.0
 40
0
 41
0
  0
VERTEX
  8
0
 10
1.56733
 20
0.242785
 30
0.0
 40
0
 41
0
  0
VERTEX
  8
0
 10
1.56722
 20
0.245876
 30
0.0
 40
0
 41
0
  0
VERTEX
  8
0
 10
1.64583
 20
0.245876
 30
0.0
 40
0
 41
0
  0
VERTEX
  8
0
 10
1.64583
 20
0.25255
 30
0.0
 40
0
 41
0
  0
VERTEX
  8
0
 10
1.64247
 20
0.272407
 30
0.0
 40
0
 41
0
  0
VERTEX
  8
0
 10
1.63471
 20
0.289171
 30
0.0
 40
0
 41
0
  0
VERTEX
  8
0
 10
1.63249
 20
0.291775
 30
0.0
 40
0
 41
0
  0
VERTEX
  8
0
 10
1.63026
 20
0.294433
 30
0.0
 40
0
 41
0
  0
VERTEX
  8
0
 10
1.61615
 20
0.303657
 30
0.0
 40
0
 41
0
  0
VERTEX
  8
0
 10
1.59933
 20
0.307563
 30
0.0
 40
0
 41
0
  0
VERTEX
  8
0
 10
1.59375
 20
0.307563
 30
0.0
 40
0
 41
0
  0
SEQEND
 8
0
  0
POLYLINE
  8
0
 62
     187
 66
     1
 10
0
 20
0
 30
0.0
 70
     1
 40
0
 41
0
  0
VERTEX
  8
0
 10
0.85905
 20
0.306749
 30
0.0
 40
0
 41
0
  0
VERTEX
  8
0
 10
0.854167
 20
0.306749
 30
0.0
 40
0
 41
0
  0
VERTEX
  8
0
 10
0.841092
 20
0.302029
 30
0.0
 40
0
 41
0
  0
VERTEX
  8
0
 10
0.839518
 20
0.301053
 30
0.0
 40
0
 41
0
  0
VERTEX
  8
0
 10
0.83789
 20
0.300131
 30
0.0
 40
0
 41
0
  0
VERTEX
  8
0
 10
0.822265
 20
0.285861
 30
0.0
 40
0
 41
0
  0
VERTEX
  8
0
 10
0.820747
 20
0.283962
 30
0.0
 40
0
 41
0
  0
VERTEX
  8
0
 10
0.820747
 20
0.303331
 30
0.0
 40
0
 41
0
  0
VERTEX
  8
0
 10
0.771539
 20
0.303331
 30
0.0
 40
0
 41
0
  0
VERTEX
  8
0
 10
0.771539
 20
0.287543
 30
0.0
 40
0
 41
0
  0
VERTEX
  8
0
 10
0.779297
 20
0.287543
 30
0.0
 40
0
 41
0
  0
VERTEX
  8
0
 10
0.781901
 20
0.287543
 30
0.0
 40
0
 41
0
  0
VERTEX
  8
0
 10
0.789442
 20
0.28559
 30
0.0
 40
0
 41
0
  0
VERTEX
  8
0
 10
0.789876
 20
0.285157
 30
0.0
 40
0
 41
0
  0
VERTEX
  8
0
 10
0.79031
 20
0.284776
 30
0.0
 40
0
 41
0
  0
VERTEX
  8
0
 10
0.792481
 20
0.276476
 30
0.0
 40
0
 41
0
  0
VERTEX
  8
0
 10
0.792481
 20
0.273654
 30
0.0
 40
0
 41
0
  0
VERTEX
  8
0
 10
0.792481
 20
0.222765
 30
0.0
 40
0
 41
0
  0
VERTEX
  8
0
 10
0.792481
 20
0.219943
 30
0.0
 40
0
 41
0
  0
VERTEX
  8
0
 10
0.79031
 20
0.211751
 30
0.0
 40
0
 41
0
  0
VERTEX
  8
0
 10
0.789876
 20
0.211317
 30
0.0
 40
0
 41
0
  0
VERTEX
  8
0
 10
0.789442
 20
0.210938
 30
0.0
 40
0
 41
0
  0
VERTEX
  8
0
 10
0.781793
 20
0.208768
 30
0.0
 40
0
 41
0
  0
VERTEX
  8
0
 10
0.779297
 20
0.208768
 30
0.0
 40
0
 41
0
  0
VERTEX
  8
0
 10
0.771539
 20
0.208768
 30
0.0
 40
0
 41
0
  0
VERTEX
  8
0
 10
0.771539
 20
0.193143
 30
0.0
 40
0
 41
0
  0
VERTEX
  8
0
 10
0.838758
 20
0.193143
 30
0.0
 40
0
 41
0
  0
VERTEX
  8
0
 10
0.838758
 20
0.208768
 30
0.0
 40
0
 41
0
  0
VERTEX
  8
0
 10
0.834093
 20
0.208768
 30
0.0
 40
0
 41
0
  0
VERTEX
  8
0
 10
0.831381
 20
0.208768
 30
0.0
 40
0
 41
0
  0
VERTEX
  8
0
 10
0.823839
 20
0.210938
 30
0.0
 40
0
 41
0
  0
VERTEX
  8
0
 10
0.823406
 20
0.211317
 30
0.0
 40
0
 41
0
  0
VERTEX
  8
0
 10
0.822971
 20
0.211751
 30
0.0
 40
0
 41
0
  0
VERTEX
  8
0
 10
0.820747
 20
0.220053
 30
0.0
 40
0
 41
0
  0
VERTEX
  8
0
 10
0.820747
 20
0.222765
 30
0.0
 40
0
 41
0
  0
VERTEX
  8
0
 10
0.820747
 20
0.251303
 30
0.0
 40
0
 41
0
  0
VERTEX
  8
0
 10
0.820747
 20
0.258192
 30
0.0
 40
0
 41
0
  0
VERTEX
  8
0
 10
0.827094
 20
0.277181
 30
0.0
 40
0
 41
0
  0
VERTEX
  8
0
 10
0.828396
 20
0.278808
 30
0.0
 40
0
 41
0
  0
VERTEX
  8
0
 10
0.829644
 20
0.28049
 30
0.0
 40
0
 41
0
  0
VERTEX
  8
0
 10
0.844293
 20
0.288846
 30
0.0
 40
0
 41
0
  0
VERTEX
  8
0
 10
0.849229
 20
0.288846
 30
0.0
 40
0
 41
0
  0
VERTEX
  8
0
 10
0.852539
 20
0.288846
 30
0.0
 40
0
 41
0
  0
VERTEX
  8
0
 10
0.861817
 20
0.284506
 30
0.0
 40
0
 41
0
  0
VERTEX
  8
0
 10
0.862522
 20
0.283637
 30
0.0
 40
0
 41
0
  0
VERTEX
  8
0
 10
0.863172
 20
0.282769
 30
0.0
 40
0
 41
0
  0
VERTEX
  8
0
 10
0.866536
 20
0.270344
 30
0.0
 40
0
 41
0
  0
VERTEX
  8
0
 10
0.866536
 20
0.266168
 30
0.0
 40
0
 41
0
  0
VERTEX
  8
0
 10
0.866536
 20
0.222765
 30
0.0
 40
0
 41
0
  0
VERTEX
  8
0
 10
0.866536
 20
0.219943
 30
0.0
 40
0
 41
0
  0
VERTEX
  8
0
 10
0.864312
 20
0.211751
 30
0.0
 40
0
 41
0
  0
VERTEX
  8
0
 10
0.863878
 20
0.211317
 30
0.0
 40
0
 41
0
  0
VERTEX
  8
0
 10
0.86339
 20
0.210938
 30
0.0
 40
0
 41
0
  0
VERTEX
  8
0
 10
0.85574
 20
0.208768
 30
0.0
 40
0
 41
0
  0
VERTEX
  8
0
 10
0.853244
 20
0.208768
 30
0.0
 40
0
 41
0
  0
VERTEX
  8
0
 10
0.848525
 20
0.208768
 30
0.0
 40
0
 41
0
  0
VERTEX
  8
0
 10
0.848525
 20
0.193143
 30
0.0
 40
0
 41
0
  0
VERTEX
  8
0
 10
0.914876
 20
0.193143
 30
0.0
 40
0
 41
0
  0
VERTEX
  8
0
 10
0.914876
 20
0.208768
 30
0.0
 40
0
 41
0
  0
VERTEX
  8
0
 10
0.90804
 20
0.208768
 30
0.0
 40
0
 41
0
  0
VERTEX
  8
0
 10
0.905328
 20
0.208768
 30
0.0
 40
0
 41
0
  0
VERTEX
  8
0
 10
0.897786
 20
0.210938
 30
0.0
 40
0
 41
0
  0
VERTEX
  8
0
 10
0.897353
 20
0.211317
 30
0.0
 40
0
 41
0
  0
VERTEX
  8
0
 10
0.896864
 20
0.211751
 30
0.0
 40
0
 41
0
  0
VERTEX
  8
0
 10
0.894694
 20
0.220053
 30
0.0
 40
0
 41
0
  0
VERTEX
  8
0
 10
0.894694
 20
0.222765
 30
0.0
 40
0
 41
0
  0
VERTEX
  8
0
 10
0.894694
 20
0.266168
 30
0.0
 40
0
 41
0
  0
VERTEX
  8
0
 10
0.894694
 20
0.273981
 30
0.0
 40
0
 41
0
  0
VERTEX
  8
0
 10
0.88775
 20
0.295844
 30
0.0
 40
0
 41
0
  0
VERTEX
  8
0
 10
0.886393
 20
0.297364
 30
0.0
 40
0
 41
0
  0
VERTEX
  8
0
 10
0.884983
 20
0.298936
 30
0.0
 40
0
 41
0
  0
VERTEX
  8
0
 10
0.865506
 20
0.306749
 30
0.0
 40
0
 41
0
  0
VERTEX
  8
0
 10
0.85905
 20
0.306749
 30
0.0
 40
0
 41
0
  0
SEQEND
 8
0
  0
POLYLINE
  8
0
 62
     187
 66
     1
 10
0
 20
0
 30
0.0
 70
     1
 40
0
 41
0
  0
VERTEX
  8
0
 10
1.00971
 20
0.306749
 30
0.0
 40
0
 41
0
  0
VERTEX
  8
0
 10
1.00483
 20
0.306749
 30
0.0
 40
0
 41
0
  0
VERTEX
  8
0
 10
0.991754
 20
0.302029
 30
0.0
 40
0
 41
0
  0
VERTEX
  8
0
 10
0.990181
 20
0.301053
 30
0.0
 40
0
 41
0
  0
VERTEX
  8
0
 10
0.988553
 20
0.300131
 30
0.0
 40
0
 41
0
  0
VERTEX
  8
0
 10
0.972928
 20
0.285861
 30
0.0
 40
0
 41
0
  0
VERTEX
  8
0
 10
0.971408
 20
0.283962
 30
0.0
 40
0
 41
0
  0
VERTEX
  8
0
 10
0.971408
 20
0.303331
 30
0.0
 40
0
 41
0
  0
VERTEX
  8
0
 10
0.9222
 20
0.303331
 30
0.0
 40
0
 41
0
  0
VERTEX
  8
0
 10
0.9222
 20
0.287543
 30
0.0
 40
0
 41
0
  0
VERTEX
  8
0
 10
0.929958
 20
0.287543
 30
0.0
 40
0
 41
0
  0
VERTEX
  8
0
 10
0.932563
 20
0.287543
 30
0.0
 40
0
 41
0
  0
VERTEX
  8
0
 10
0.940104
 20
0.28559
 30
0.0
 40
0
 41
0
  0
VERTEX
  8
0
 10
0.940539
 20
0.285157
 30
0.0
 40
0
 41
0
  0
VERTEX
  8
0
 10
0.940972
 20
0.284776
 30
0.0
 40
0
 41
0
  0
VERTEX
  8
0
 10
0.943197
 20
0.276476
 30
0.0
 40
0
 41
0
  0
VERTEX
  8
0
 10
0.943197
 20
0.273654
 30
0.0
 40
0
 41
0
  0
VERTEX
  8
0
 10
0.943197
 20
0.222765
 30
0.0
 40
0
 41
0
  0
VERTEX
  8
0
 10
0.943197
 20
0.219943
 30
0.0
 40
0
 41
0
  0
VERTEX
  8
0
 10
0.940972
 20
0.211751
 30
0.0
 40
0
 41
0
  0
VERTEX
  8
0
 10
0.940539
 20
0.211317
 30
0.0
 40
0
 41
0
  0
VERTEX
  8
0
 10
0.940104
 20
0.210938
 30
0.0
 40
0
 41
0
  0
VERTEX
  8
0
 10
0.932454
 20
0.208768
 30
0.0
 40
0
 41
0
  0
VERTEX
  8
0
 10
0.929958
 20
0.208768
 30
0.0
 40
0
 41
0
  0
VERTEX
  8
0
 10
0.9222
 20
0.208768
 30
0.0
 40
0
 41
0
  0
VERTEX
  8
0
 10
0.9222
 20
0.193143
 30
0.0
 40
0
 41
0
  0
VERTEX
  8
0
 10
0.989421
 20
0.193143
 30
0.0
 40
0
 41
0
  0
VERTEX
  8
0
 10
0.989421
 20
0.208768
 30
0.0
 40
0
 41
0
  0
VERTEX
  8
0
 10
0.984754
 20
0.208768
 30
0.0
 40
0
 41
0
  0
VERTEX
  8
0
 10
0.982096
 20
0.208768
 30
0.0
 40
0
 41
0
  0
VERTEX
  8
0
 10
0.974556
 20
0.210938
 30
0.0
 40
0
 41
0
  0
VERTEX
  8
0
 10
0.974121
 20
0.211317
 30
0.0
 40
0
 41
0
  0
VERTEX
  8
0
 10
0.973633
 20
0.211751
 30
0.0
 40
0
 41
0
  0
VERTEX
  8
0
 10
0.971408
 20
0.220053
 30
0.0
 40
0
 41
0
  0
VERTEX
  8
0
 10
0.971408
 20
0.222765
 30
0.0
 40
0
 41
0
  0
VERTEX
  8
0
 10
0.971408
 20
0.251303
 30
0.0
 40
0
 41
0
  0
VERTEX
  8
0
 10
0.971408
 20
0.258192
 30
0.0
 40
0
 41
0
  0
VERTEX
  8
0
 10
0.977756
 20
0.277181
 30
0.0
 40
0
 41
0
  0
VERTEX
  8
0
 10
0.979058
 20
0.278808
 30
0.0
 40
0
 41
0
  0
VERTEX
  8
0
 10
0.980306
 20
0.28049
 30
0.0
 40
0
 41
0
  0
VERTEX
  8
0
 10
0.994954
 20
0.288846
 30
0.0
 40
0
 41
0
  0
VERTEX
  8
0
 10
0.999892
 20
0.288846
 30
0.0
 40
0
 41
0
  0
VERTEX
  8
0
 10
1.0032
 20
0.288846
 30
0.0
 40
0
 41
0
  0
VERTEX
  8
0
 10
1.01248
 20
0.284506
 30
0.0
 40
0
 41
0
  0
VERTEX
  8
0
 10
1.01318
 20
0.283637
 30
0.0
 40
0
 41
0
  0
VERTEX
  8
0
 10
1.01383
 20
0.282769
 30
0.0
 40
0
 41
0
  0
VERTEX
  8
0
 10
1.0172
 20
0.270344
 30
0.0
 40
0
 41
0
  0
VERTEX
  8
0
 10
1.0172
 20
0.266168
 30
0.0
 40
0
 41
0
  0
VERTEX
  8
0
 10
1.0172
 20
0.222765
 30
0.0
 40
0
 41
0
  0
VERTEX
  8
0
 10
1.0172
 20
0.219943
 30
0.0
 40
0
 41
0
  0
VERTEX
  8
0
 10
1.01497
 20
0.211751
 30
0.0
 40
0
 41
0
  0
VERTEX
  8
0
 10
1.01454
 20
0.211317
 30
0.0
 40
0
 41
0
  0
VERTEX
  8
0
 10
1.01405
 20
0.210938
 30
0.0
 40
0
 41
0
  0
VERTEX
  8
0
 10
1.0064
 20
0.208768
 30
0.0
 40
0
 41
0
  0
VERTEX
  8
0
 10
1.00391
 20
0.208768
 30
0.0
 40
0
 41
0
  0
VERTEX
  8
0
 10
0.99924
 20
0.208768
 30
0.0
 40
0
 41
0
  0
VERTEX
  8
0
 10
0.99924
 20
0.193143
 30
0.0
 40
0
 41
0
  0
VERTEX
  8
0
 10
1.06554
 20
0.193143
 30
0.0
 40
0
 41
0
  0
VERTEX
  8
0
 10
1.06554
 20
0.208768
 30
0.0
 40
0
 41
0
  0
VERTEX
  8
0
 10
1.0587
 20
0.208768
 30
0.0
 40
0
 41
0
  0
VERTEX
  8
0
 10
1.05599
 20
0.208768
 30
0.0
 40
0
 41
0
  0
VERTEX
  8
0
 10
1.04845
 20
0.210938
 30
0.0
 40
0
 41
0
  0
VERTEX
  8
0
 10
1.04801
 20
0.211317
 30
0.0
 40
0
 41
0
  0
VERTEX
  8
0
 10
1.04758
 20
0.211751
 30
0.0
 40
0
 41
0
  0
VERTEX
  8
0
 10
1.04536
 20
0.220053
 30
0.0
 40
0
 41
0
  0
VERTEX
  8
0
 10
1.04536
 20
0.222765
 30
0.0
 40
0
 41
0
  0
VERTEX
  8
0
 10
1.04536
 20
0.266168
 30
0.0
 40
0
 41
0
  0
VERTEX
  8
0
 10
1.04536
 20
0.273981
 30
0.0
 40
0
 41
0
  0
VERTEX
  8
0
 10
1.03841
 20
0.295844
 30
0.0
 40
0
 41
0
  0
VERTEX
  8
0
 10
1.03706
 20
0.297364
 30
0.0
 40
0
 41
0
  0
VERTEX
  8
0
 10
1.03564
 20
0.298936
 30
0.0
 40
0
 41
0
  0
VERTEX
  8
0
 10
1.01617
 20
0.306749
 30
0.0
 40
0
 41
0
  0
VERTEX
  8
0
 10
1.00971
 20
0.306749
 30
0.0
 40
0
 41
0
  0
SEQEND
 8
0
  0
POLYLINE
  8
0
 62
     187
 66
     1
 10
0
 20
0
 30
0.0
 70
     1
 40
0
 41
0
  0
VERTEX
  8
0
 10
0.709636
 20
0.291829
 30
0.0
 40
0
 41
0
  0
VERTEX
  8
0
 10
0.713433
 20
0.291829
 30
0.0
 40
0
 41
0
  0
VERTEX
  8
0
 10
0.723958
 20
0.285969
 30
0.0
 40
0
 41
0
  0
VERTEX
  8
0
 10
0.724826
 20
0.284776
 30
0.0
 40
0
 41
0
  0
VERTEX
  8
0
 10
0.725694
 20
0.283583
 30
0.0
 40
0
 41
0
  0
VERTEX
  8
0
 10
0.730849
 20
0.264974
 30
0.0
 40
0
 41
0
  0
VERTEX
  8
0
 10
0.731065
 20
0.262424
 30
0.0
 40
0
 41
0
  0
VERTEX
  8
0
 10
0.684462
 20
0.262424
 30
0.0
 40
0
 41
0
  0
VERTEX
  8
0
 10
0.684787
 20
0.264865
 30
0.0
 40
0
 41
0
  0
VERTEX
  8
0
 10
0.69184
 20
0.283149
 30
0.0
 40
0
 41
0
  0
VERTEX
  8
0
 10
0.692925
 20
0.284397
 30
0.0
 40
0
 41
0
  0
VERTEX
  8
0
 10
0.693956
 20
0.285644
 30
0.0
 40
0
 41
0
  0
VERTEX
  8
0
 10
0.705675
 20
0.291829
 30
0.0
 40
0
 41
0
  0
VERTEX
  8
0
 10
0.709636
 20
0.291829
 30
0.0
 40
0
 41
0
  0
SEQEND
 8
0
  0
POLYLINE
  8
0
 62
     187
 66
     1
 10
0
 20
0
 30
0.0
 70
     1
 40
0
 41
0
  0
VERTEX
  8
0
 10
1.12538
 20
0.291829
 30
0.0
 40
0
 41
0
  0
VERTEX
  8
0
 10
1.12918
 20
0.291829
 30
0.0
 40
0
 41
0
  0
VERTEX
  8
0
 10
1.1397
 20
0.285969
 30
0.0
 40
0
 41
0
  0
VERTEX
  8
0
 10
1.14057
 20
0.284776
 30
0.0
 40
0
 41
0
  0
VERTEX
  8
0
 10
1.14144
 20
0.283583
 30
0.0
 40
0
 41
0
  0
VERTEX
  8
0
 10
1.14659
 20
0.264974
 30
0.0
 40
0
 41
0
  0
VERTEX
  8
0
 10
1.14676
 20
0.262424
 30
0.0
 40
0
 41
0
  0
VERTEX
  8
0
 10
1.10021
 20
0.262424
 30
0.0
 40
0
 41
0
  0
VERTEX
  8
0
 10
1.10053
 20
0.264865
 30
0.0
 40
0
 41
0
  0
VERTEX
  8
0
 10
1.10758
 20
0.283149
 30
0.0
 40
0
 41
0
  0
VERTEX
  8
0
 10
1.10867
 20
0.284397
 30
0.0
 40
0
 41
0
  0
VERTEX
  8
0
 10
1.1097
 20
0.285644
 30
0.0
 40
0
 41
0
  0
VERTEX
  8
0
 10
1.12142
 20
0.291829
 30
0.0
 40
0
 41
0
  0
VERTEX
  8
0
 10
1.12538
 20
0.291829
 30
0.0
 40
0
 41
0
  0
SEQEND
 8
0
  0
POLYLINE
  8
0
 62
     187
 66
     1
 10
0
 20
0
 30
0.0
 70
     1
 40
0
 41
0
  0
VERTEX
  8
0
 10
1.47168
 20
0.291829
 30
0.0
 40
0
 41
0
  0
VERTEX
  8
0
 10
1.47547
 20
0.291829
 30
0.0
 40
0
 41
0
  0
VERTEX
  8
0
 10
1.486
 20
0.285969
 30
0.0
 40
0
 41
0
  0
VERTEX
  8
0
 10
1.48688
 20
0.284776
 30
0.0
 40
0
 41
0
  0
VERTEX
  8
0
 10
1.48774
 20
0.283583
 30
0.0
 40
0
 41
0
  0
VERTEX
  8
0
 10
1.49289
 20
0.264974
 30
0.0
 40
0
 41
0
  0
VERTEX
  8
0
 10
1.49311
 20
0.262424
 30
0.0
 40
0
 41
0
  0
VERTEX
  8
0
 10
1.4465
 20
0.262424
 30
0.0
 40
0
 41
0
  0
VERTEX
  8
0
 10
1.44683
 20
0.264865
 30
0.0
 40
0
 41
0
  0
VERTEX
  8
0
 10
1.45389
 20
0.283149
 30
0.0
 40
0
 41
0
  0
VERTEX
  8
0
 10
1.45497
 20
0.284397
 30
0.0
 40
0
 41
0
  0
VERTEX
  8
0
 10
1.456
 20
0.285644
 30
0.0
 40
0
 41
0
  0
VERTEX
  8
0
 10
1.46772
 20
0.291829
 30
0.0
 40
0
 41
0
  0
VERTEX
  8
0
 10
1.47168
 20
0.291829
 30
0.0
 40
0
 41
0
  0
SEQEND
 8
0
  0
POLYLINE
  8
0
 62
     187
 66
     1
 10
0
 20
0
 30
0.0
 70
     1
 40
0
 41
0
  0
VERTEX
  8
0
 10
1.59353
 20
0.291829
 30
0.0
 40
0
 41
0
  0
VERTEX
  8
0
 10
1.59733
 20
0.291829
 30
0.0
 40
0
 41
0
  0
VERTEX
  8
0
 10
1.60786
 20
0.285969
 30
0.0
 40
0
 41
0
  0
VERTEX
  8
0
 10
1.60872
 20
0.284776
 30
0.0
 40
0
 41
0
  0
VERTEX
  8
0
 10
1.6096
 20
0.283583
 30
0.0
 40
0
 41
0
  0
VERTEX
  8
0
 10
1.61475
 20
0.264974
 30
0.0
 40
0
 41
0
  0
VERTEX
  8
0
 10
1.61496
 20
0.262424
 30
0.0
 40
0
 41
0
  0
VERTEX
  8
0
 10
1.56836
 20
0.262424
 30
0.0
 40
0
 41
0
  0
VERTEX
  8
0
 10
1.56868
 20
0.264865
 30
0.0
 40
0
 41
0
  0
VERTEX
  8
0
 10
1.57574
 20
0.283149
 30
0.0
 40
0
 41
0
  0
VERTEX
  8
0
 10
1.57682
 20
0.284397
 30
0.0
 40
0
 41
0
  0
VERTEX
  8
0
 10
1.57785
 20
0.285644
 30
0.0
 40
0
 41
0
  0
VERTEX
  8
0
 10
1.58957
 20
0.291829
 30
0.0
 40
0
 41
0
  0
VERTEX
  8
0
 10
1.59353
 20
0.291829
 30
0.0
 40
0
 41
0
  0
SEQEND
 8
0
  0
POLYLINE
  8
0
 62
     187
 66
     1
 10
0
 20
0
 30
0.0
 70
     1
 40
0
 41
0
  0
VERTEX
  8
0
 10
0.0650499
 20
0.247558
 30
0.0
 40
0
 41
0
  0
VERTEX
  8
0
 10
0.0649414
 20
0.246365
 30
0.0
 40
0
 41
0
  0
VERTEX
  8
0
 10
0.0646701
 20
0.233561
 30
0.0
 40
0
 41
0
  0
VERTEX
  8
0
 10
0.0647244
 20
0.232206
 30
0.0
 40
0
 41
0
  0
VERTEX
  8
0
 10
0.0647244
 20
0.225586
 30
0.0
 40
0
 41
0
  0
VERTEX
  8
0
 10
0.0674914
 20
0.205567
 30
0.0
 40
0
 41
0
  0
VERTEX
  8
0
 10
0.0757379
 20
0.173828
 30
0.0
 40
0
 41
0
  0
VERTEX
  8
0
 10
0.0897894
 20
0.139594
 30
0.0
 40
0
 41
0
  0
VERTEX
  8
0
 10
0.104112
 20
0.113553
 30
0.0
 40
0
 41
0
  0
VERTEX
  8
0
 10
0.109755
 20
0.105469
 30
0.0
 40
0
 41
0
  0
VERTEX
  8
0
 10
0.111437
 20
0.103082
 30
0.0
 40
0
 41
0
  0
VERTEX
  8
0
 10
0.117079
 20
0.0961372
 30
0.0
 40
0
 41
0
  0
VERTEX
  8
0
 10
0.127441
 20
0.0857747
 30
0.0
 40
0
 41
0
  0
VERTEX
  8
0
 10
0.138455
 20
0.0789931
 30
0.0
 40
0
 41
0
  0
VERTEX
  8
0
 10
0.146322
 20
0.0790474
 30
0.0
 40
0
 41
0
  0
VERTEX
  8
0
 10
0.147786
 20
0.0803494
 30
0.0
 40
0
 41
0
  0
VERTEX
  8
0
 10
0.147678
 20
0.0794814
 30
0.0
 40
0
 41
0
  0
VERTEX
  8
0
 10
0.144586
 20
0.0707465
 30
0.0
 40
0
 41
0
  0
VERTEX
  8
0
 10
0.144151
 20
0.0698785
 30
0.0
 40
0
 41
0
  0
VERTEX
  8
0
 10
0.126194
 20
0.0347765
 30
0.0
 40
0
 41
0
  0
VERTEX
  8
0
 10
0.126194
 20
0.0635851
 30
0.0
 40
0
 41
0
  0
VERTEX
  8
0
 10
0.125488
 20
0.0635308
 30
0.0
 40
0
 41
0
  0
VERTEX
  8
0
 10
0.118218
 20
0.0626628
 30
0.0
 40
0
 41
0
  0
VERTEX
  8
0
 10
0.117459
 20
0.0625543
 30
0.0
 40
0
 41
0
  0
VERTEX
  8
0
 10
0.11518
 20
0.0623372
 30
0.0
 40
0
 41
0
  0
VERTEX
  8
0
 10
0.0928819
 20
0.0611979
 30
0.0
 40
0
 41
0
  0
VERTEX
  8
0
 10
0.0855035
 20
0.0611979
 30
0.0
 40
0
 41
0
  0
VERTEX
  8
0
 10
0.0855035
 20
0.0103624
 30
0.0
 40
0
 41
0
  0
VERTEX
  8
0
 10
0.320801
 20
0.0103624
 30
0.0
 40
0
 41
0
  0
VERTEX
  8
0
 10
0.320801
 20
0.0611979
 30
0.0
 40
0
 41
0
  0
VERTEX
  8
0
 10
0.316407
 20
0.0613064
 30
0.0
 40
0
 41
0
  0
VERTEX
  8
0
 10
0.285807
 20
0.0628256
 30
0.0
 40
0
 41
0
  0
VERTEX
  8
0
 10
0.284125
 20
0.0629883
 30
0.0
 40
0
 41
0
  0
VERTEX
  8
0
 10
0.2838
 20
0.0630425
 30
0.0
 40
0
 41
0
  0
VERTEX
  8
0
 10
0.280761
 20
0.0634765
 30
0.0
 40
0
 41
0
  0
VERTEX
  8
0
 10
0.28049
 20
0.0634765
 30
0.0
 40
0
 41
0
  0
VERTEX
  8
0
 10
0.28049
 20
0.0347765
 30
0.0
 40
0
 41
0
  0
VERTEX
  8
0
 10
0.261936
 20
0.0710178
 30
0.0
 40
0
 41
0
  0
VERTEX
  8
0
 10
0.261556
 20
0.0717774
 30
0.0
 40
0
 41
0
  0
VERTEX
  8
0
 10
0.259332
 20
0.0788846
 30
0.0
 40
0
 41
0
  0
VERTEX
  8
0
 10
0.259224
 20
0.0796983
 30
0.0
 40
0
 41
0
  0
VERTEX
  8
0
 10
0.260796
 20
0.0786133
 30
0.0
 40
0
 41
0
  0
VERTEX
  8
0
 10
0.2685
 20
0.0793186
 30
0.0
 40
0
 41
0
  0
VERTEX
  8
0
 10
0.279243
 20
0.0862631
 30
0.0
 40
0
 41
0
  0
VERTEX
  8
0
 10
0.289279
 20
0.0964085
 30
0.0
 40
0
 41
0
  0
VERTEX
  8
0
 10
0.29476
 20
0.103136
 30
0.0
 40
0
 41
0
  0
VERTEX
  8
0
 10
0.296442
 20
0.105469
 30
0.0
 40
0
 41
0
  0
VERTEX
  8
0
 10
0.302029
 20
0.113553
 30
0.0
 40
0
 41
0
  0
VERTEX
  8
0
 10
0.316351
 20
0.139594
 30
0.0
 40
0
 41
0
  0
VERTEX
  8
0
 10
0.330404
 20
0.173828
 30
0.0
 40
0
 41
0
  0
VERTEX
  8
0
 10
0.338704
 20
0.205567
 30
0.0
 40
0
 41
0
  0
VERTEX
  8
0
 10
0.341471
 20
0.225586
 30
0.0
 40
0
 41
0
  0
VERTEX
  8
0
 10
0.341525
 20
0.232206
 30
0.0
 40
0
 41
0
  0
VERTEX
  8
0
 10
0.341525
 20
0.236057
 30
0.0
 40
0
 41
0
  0
VERTEX
  8
0
 10
0.341254
 20
0.246365
 30
0.0
 40
0
 41
0
  0
VERTEX
  8
0
 10
0.3412
 20
0.247558
 30
0.0
 40
0
 41
0
  0
VERTEX
  8
0
 10
0.340603
 20
0.239746
 30
0.0
 40
0
 41
0
  0
VERTEX
  8
0
 10
0.328504
 20
0.191732
 30
0.0
 40
0
 41
0
  0
VERTEX
  8
0
 10
0.30344
 20
0.139051
 30
0.0
 40
0
 41
0
  0
VERTEX
  8
0
 10
0.296442
 20
0.128906
 30
0.0
 40
0
 41
0
  0
VERTEX
  8
0
 10
0.294706
 20
0.126465
 30
0.0
 40
0
 41
0
  0
VERTEX
  8
0
 10
0.287924
 20
0.120171
 30
0.0
 40
0
 41
0
  0
VERTEX
  8
0
 10
0.276476
 20
0.113824
 30
0.0
 40
0
 41
0
  0
VERTEX
  8
0
 10
0.265192
 20
0.114312
 30
0.0
 40
0
 41
0
  0
VERTEX
  8
0
 10
0.258137
 20
0.122938
 30
0.0
 40
0
 41
0
  0
VERTEX
  8
0
 10
0.257269
 20
0.126194
 30
0.0
 40
0
 41
0
  0
VERTEX
  8
0
 10
0.248264
 20
0.0962999
 30
0.0
 40
0
 41
0
  0
VERTEX
  8
0
 10
0.247504
 20
0.093316
 30
0.0
 40
0
 41
0
  0
VERTEX
  8
0
 10
0.238553
 20
0.0688476
 30
0.0
 40
0
 41
0
  0
VERTEX
  8
0
 10
0.237522
 20
0.0668946
 30
0.0
 40
0
 41
0
  0
VERTEX
  8
0
 10
0.220432
 20
0.0920682
 30
0.0
 40
0
 41
0
  0
VERTEX
  8
0
 10
0.229438
 20
0.054796
 30
0.0
 40
0
 41
0
  0
VERTEX
  8
0
 10
0.228136
 20
0.0533311
 30
0.0
 40
0
 41
0
  0
VERTEX
  8
0
 10
0.214572
 20
0.0439453
 30
0.0
 40
0
 41
0
  0
VERTEX
  8
0
 10
0.213163
 20
0.0434571
 30
0.0
 40
0
 41
0
  0
VERTEX
  8
0
 10
0.204101
 20
0.0884874
 30
0.0
 40
0
 41
0
  0
VERTEX
  8
0
 10
0.19591
 20
0.0426432
 30
0.0
 40
0
 41
0
  0
VERTEX
  8
0
 10
0.194336
 20
0.0430231
 30
0.0
 40
0
 41
0
  0
VERTEX
  8
0
 10
0.179362
 20
0.052029
 30
0.0
 40
0
 41
0
  0
VERTEX
  8
0
 10
0.178006
 20
0.0534939
 30
0.0
 40
0
 41
0
  0
VERTEX
  8
0
 10
0.187338
 20
0.0920682
 30
0.0
 40
0
 41
0
  0
VERTEX
  8
0
 10
0.169379
 20
0.0655925
 30
0.0
 40
0
 41
0
  0
VERTEX
  8
0
 10
0.168294
 20
0.0675999
 30
0.0
 40
0
 41
0
  0
VERTEX
  8
0
 10
0.158692
 20
0.0931532
 30
0.0
 40
0
 41
0
  0
VERTEX
  8
0
 10
0.157932
 20
0.0962999
 30
0.0
 40
0
 41
0
  0
VERTEX
  8
0
 10
0.148926
 20
0.126194
 30
0.0
 40
0
 41
0
  0
VERTEX
  8
0
 10
0.148004
 20
0.122938
 30
0.0
 40
0
 41
0
  0
VERTEX
  8
0
 10
0.14095
 20
0.114312
 30
0.0
 40
0
 41
0
  0
VERTEX
  8
0
 10
0.129666
 20
0.113824
 30
0.0
 40
0
 41
0
  0
VERTEX
  8
0
 10
0.118218
 20
0.120171
 30
0.0
 40
0
 41
0
  0
VERTEX
  8
0
 10
0.111437
 20
0.126465
 30
0.0
 40
0
 41
0
  0
VERTEX
  8
0
 10
0.109755
 20
0.128906
 30
0.0
 40
0
 41
0
  0
VERTEX
  8
0
 10
0.102702
 20
0.139051
 30
0.0
 40
0
 41
0
  0
VERTEX
  8
0
 10
0.077691
 20
0.191732
 30
0.0
 40
0
 41
0
  0
VERTEX
  8
0
 10
0.0655925
 20
0.239746
 30
0.0
 40
0
 41
0
  0
VERTEX
  8
0
 10
0.0650499
 20
0.247558
 30
0.0
 40
0
 41
0
  0
SEQEND
 8
0
  0
POLYLINE
  8
0
 62
     187
 66
     1
 10
0
 20
0
 30
0.0
 70
     1
 40
0
 41
0
  0
VERTEX
  8
0
 10
0.813531
 20
0.162651
 30
0.0
 40
0
 41
0
  0
VERTEX
  8
0
 10
0.808974
 20
0.162651
 30
0.0
 40
0
 41
0
  0
VERTEX
  8
0
 10
0.796767
 20
0.159776
 30
0.0
 40
0
 41
0
  0
VERTEX
  8
0
 10
0.79541
 20
0.159179
 30
0.0
 40
0
 41
0
  0
VERTEX
  8
0
 10
0.794
 20
0.158583
 30
0.0
 40
0
 41
0
  0
VERTEX
  8
0
 10
0.781304
 20
0.150011
 30
0.0
 40
0
 41
0
  0
VERTEX
  8
0
 10
0.780165
 20
0.148872
 30
0.0
 40
0
 41
0
  0
VERTEX
  8
0
 10
0.778917
 20
0.147624
 30
0.0
 40
0
 41
0
  0
VERTEX
  8
0
 10
0.769532
 20
0.133626
 30
0.0
 40
0
 41
0
  0
VERTEX
  8
0
 10
0.768935
 20
0.132053
 30
0.0
 40
0
 41
0
  0
VERTEX
  8
0
 10
0.768283
 20
0.130534
 30
0.0
 40
0
 41
0
  0
VERTEX
  8
0
 10
0.765192
 20
0.116319
 30
0.0
 40
0
 41
0
  0
VERTEX
  8
0
 10
0.765192
 20
0.111545
 30
0.0
 40
0
 41
0
  0
VERTEX
  8
0
 10
0.765192
 20
0.106391
 30
0.0
 40
0
 41
0
  0
VERTEX
  8
0
 10
0.768392
 20
0.0924479
 30
0.0
 40
0
 41
0
  0
VERTEX
  8
0
 10
0.769043
 20
0.0908203
 30
0.0
 40
0
 41
0
  0
VERTEX
  8
0
 10
0.76964
 20
0.0892469
 30
0.0
 40
0
 41
0
  0
VERTEX
  8
0
 10
0.779025
 20
0.0750868
 30
0.0
 40
0
 41
0
  0
VERTEX
  8
0
 10
0.780274
 20
0.073839
 30
0.0
 40
0
 41
0
  0
VERTEX
  8
0
 10
0.781358
 20
0.0726997
 30
0.0
 40
0
 41
0
  0
VERTEX
  8
0
 10
0.794162
 20
0.0642904
 30
0.0
 40
0
 41
0
  0
VERTEX
  8
0
 10
0.795628
 20
0.0637478
 30
0.0
 40
0
 41
0
  0
VERTEX
  8
0
 10
0.797038
 20
0.0632053
 30
0.0
 40
0
 41
0
  0
VERTEX
  8
0
 10
0.810331
 20
0.0604383
 30
0.0
 40
0
 41
0
  0
VERTEX
  8
0
 10
0.814779
 20
0.0604383
 30
0.0
 40
0
 41
0
  0
VERTEX
  8
0
 10
0.821832
 20
0.0604383
 30
0.0
 40
0
 41
0
  0
VERTEX
  8
0
 10
0.8412
 20
0.0691732
 30
0.0
 40
0
 41
0
  0
VERTEX
  8
0
 10
0.84299
 20
0.0709093
 30
0.0
 40
0
 41
0
  0
VERTEX
  8
0
 10
0.844726
 20
0.0726997
 30
0.0
 40
0
 41
0
  0
VERTEX
  8
0
 10
0.854546
 20
0.097385
 30
0.0
 40
0
 41
0
  0
VERTEX
  8
0
 10
0.854818
 20
0.100586
 30
0.0
 40
0
 41
0
  0
VERTEX
  8
0
 10
0.842449
 20
0.100586
 30
0.0
 40
0
 41
0
  0
VERTEX
  8
0
 10
0.842068
 20
0.0984158
 30
0.0
 40
0
 41
0
  0
VERTEX
  8
0
 10
0.834799
 20
0.08176
 30
0.0
 40
0
 41
0
  0
VERTEX
  8
0
 10
0.833713
 20
0.0805664
 30
0.0
 40
0
 41
0
  0
VERTEX
  8
0
 10
0.832574
 20
0.0794271
 30
0.0
 40
0
 41
0
  0
VERTEX
  8
0
 10
0.820529
 20
0.0736219
 30
0.0
 40
0
 41
0
  0
VERTEX
  8
0
 10
0.816515
 20
0.0736219
 30
0.0
 40
0
 41
0
  0
VERTEX
  8
0
 10
0.811199
 20
0.0736219
 30
0.0
 40
0
 41
0
  0
VERTEX
  8
0
 10
0.796658
 20
0.0817057
 30
0.0
 40
0
 41
0
  0
VERTEX
  8
0
 10
0.79541
 20
0.083279
 30
0.0
 40
0
 41
0
  0
VERTEX
  8
0
 10
0.794108
 20
0.084961
 30
0.0
 40
0
 41
0
  0
VERTEX
  8
0
 10
0.787869
 20
0.104438
 30
0.0
 40
0
 41
0
  0
VERTEX
  8
0
 10
0.787869
 20
0.110894
 30
0.0
 40
0
 41
0
  0
VERTEX
  8
0
 10
0.787869
 20
0.118273
 30
0.0
 40
0
 41
0
  0
VERTEX
  8
0
 10
0.794162
 20
0.138509
 30
0.0
 40
0
 41
0
  0
VERTEX
  8
0
 10
0.79541
 20
0.140246
 30
0.0
 40
0
 41
0
  0
VERTEX
  8
0
 10
0.796658
 20
0.142036
 30
0.0
 40
0
 41
0
  0
VERTEX
  8
0
 10
0.811307
 20
0.150879
 30
0.0
 40
0
 41
0
  0
VERTEX
  8
0
 10
0.816243
 20
0.150879
 30
0.0
 40
0
 41
0
  0
VERTEX
  8
0
 10
0.820856
 20
0.150879
 30
0.0
 40
0
 41
0
  0
VERTEX
  8
0
 10
0.833604
 20
0.144586
 30
0.0
 40
0
 41
0
  0
VERTEX
  8
0
 10
0.834799
 20
0.143283
 30
0.0
 40
0
 41
0
  0
VERTEX
  8
0
 10
0.835992
 20
0.142036
 30
0.0
 40
0
 41
0
  0
VERTEX
  8
0
 10
0.843371
 20
0.124186
 30
0.0
 40
0
 41
0
  0
VERTEX
  8
0
 10
0.843696
 20
0.121853
 30
0.0
 40
0
 41
0
  0
VERTEX
  8
0
 10
0.854818
 20
0.121853
 30
0.0
 40
0
 41
0
  0
VERTEX
  8
0
 10
0.854818
 20
0.16135
 30
0.0
 40
0
 41
0
  0
VERTEX
  8
0
 10
0.844401
 20
0.16135
 30
0.0
 40
0
 41
0
  0
VERTEX
  8
0
 10
0.841525
 20
0.152724
 30
0.0
 40
0
 41
0
  0
VERTEX
  8
0
 10
0.840386
 20
0.153592
 30
0.0
 40
0
 41
0
  0
VERTEX
  8
0
 10
0.82921
 20
0.159776
 30
0.0
 40
0
 41
0
  0
VERTEX
  8
0
 10
0.828071
 20
0.160157
 30
0.0
 40
0
 41
0
  0
VERTEX
  8
0
 10
0.826932
 20
0.16059
 30
0.0
 40
0
 41
0
  0
VERTEX
  8
0
 10
0.81684
 20
0.162651
 30
0.0
 40
0
 41
0
  0
VERTEX
  8
0
 10
0.813531
 20
0.162651
 30
0.0
 40
0
 41
0
  0
SEQEND
 8
0
  0
POLYLINE
  8
0
 62
     187
 66
     1
 10
0
 20
0
 30
0.0
 70
     1
 40
0
 41
0
  0
VERTEX
  8
0
 10
0.532335
 20
0.159776
 30
0.0
 40
0
 41
0
  0
VERTEX
  8
0
 10
0.532335
 20
0.119846
 30
0.0
 40
0
 41
0
  0
VERTEX
  8
0
 10
0.543403
 20
0.119846
 30
0.0
 40
0
 41
0
  0
VERTEX
  8
0
 10
0.543403
 20
0.12245
 30
0.0
 40
0
 41
0
  0
VERTEX
  8
0
 10
0.54796
 20
0.14106
 30
0.0
 40
0
 41
0
  0
VERTEX
  8
0
 10
0.548882
 20
0.142199
 30
0.0
 40
0
 41
0
  0
VERTEX
  8
0
 10
0.54975
 20
0.143392
 30
0.0
 40
0
 41
0
  0
VERTEX
  8
0
 10
0.561686
 20
0.149143
 30
0.0
 40
0
 41
0
  0
VERTEX
  8
0
 10
0.565701
 20
0.149143
 30
0.0
 40
0
 41
0
  0
VERTEX
  8
0
 10
0.5676
 20
0.149143
 30
0.0
 40
0
 41
0
  0
VERTEX
  8
0
 10
0.5676
 20
0.0831706
 30
0.0
 40
0
 41
0
  0
VERTEX
  8
0
 10
0.5676
 20
0.081326
 30
0.0
 40
0
 41
0
  0
VERTEX
  8
0
 10
0.566297
 20
0.0760092
 30
0.0
 40
0
 41
0
  0
VERTEX
  8
0
 10
0.566081
 20
0.0757379
 30
0.0
 40
0
 41
0
  0
VERTEX
  8
0
 10
0.56581
 20
0.0755208
 30
0.0
 40
0
 41
0
  0
VERTEX
  8
0
 10
0.560004
 20
0.0742731
 30
0.0
 40
0
 41
0
  0
VERTEX
  8
0
 10
0.558106
 20
0.0742731
 30
0.0
 40
0
 41
0
  0
VERTEX
  8
0
 10
0.54975
 20
0.0742731
 30
0.0
 40
0
 41
0
  0
VERTEX
  8
0
 10
0.54975
 20
0.0633137
 30
0.0
 40
0
 41
0
  0
VERTEX
  8
0
 10
0.60574
 20
0.0633137
 30
0.0
 40
0
 41
0
  0
VERTEX
  8
0
 10
0.60574
 20
0.0742731
 30
0.0
 40
0
 41
0
  0
VERTEX
  8
0
 10
0.597493
 20
0.0742731
 30
0.0
 40
0
 41
0
  0
VERTEX
  8
0
 10
0.595486
 20
0.0742731
 30
0.0
 40
0
 41
0
  0
VERTEX
  8
0
 10
0.589735
 20
0.0755208
 30
0.0
 40
0
 41
0
  0
VERTEX
  8
0
 10
0.589464
 20
0.0757379
 30
0.0
 40
0
 41
0
  0
VERTEX
  8
0
 10
0.589193
 20
0.0760092
 30
0.0
 40
0
 41
0
  0
VERTEX
  8
0
 10
0.58789
 20
0.0813803
 30
0.0
 40
0
 41
0
  0
VERTEX
  8
0
 10
0.58789
 20
0.0831706
 30
0.0
 40
0
 41
0
  0
VERTEX
  8
0
 10
0.58789
 20
0.149143
 30
0.0
 40
0
 41
0
  0
VERTEX
  8
0
 10
0.590007
 20
0.149143
 30
0.0
 40
0
 41
0
  0
VERTEX
  8
0
 10
0.594185
 20
0.149143
 30
0.0
 40
0
 41
0
  0
VERTEX
  8
0
 10
0.605849
 20
0.143338
 30
0.0
 40
0
 41
0
  0
VERTEX
  8
0
 10
0.606771
 20
0.142144
 30
0.0
 40
0
 41
0
  0
VERTEX
  8
0
 10
0.607639
 20
0.141004
 30
0.0
 40
0
 41
0
  0
VERTEX
  8
0
 10
0.612142
 20
0.122396
 30
0.0
 40
0
 41
0
  0
VERTEX
  8
0
 10
0.612196
 20
0.119846
 30
0.0
 40
0
 41
0
  0
VERTEX
  8
0
 10
0.62321
 20
0.119846
 30
0.0
 40
0
 41
0
  0
VERTEX
  8
0
 10
0.62321
 20
0.159776
 30
0.0
 40
0
 41
0
  0
VERTEX
  8
0
 10
0.532335
 20
0.159776
 30
0.0
 40
0
 41
0
  0
SEQEND
 8
0
  0
POLYLINE
  8
0
 62
     187
 66
     1
 10
0
 20
0
 30
0.0
 70
     1
 40
0
 41
0
  0
VERTEX
  8
0
 10
0.646972
 20
0.159776
 30
0.0
 40
0
 41
0
  0
VERTEX
  8
0
 10
0.646972
 20
0.148872
 30
0.0
 40
0
 41
0
  0
VERTEX
  8
0
 10
0.652615
 20
0.148872
 30
0.0
 40
0
 41
0
  0
VERTEX
  8
0
 10
0.654568
 20
0.148872
 30
0.0
 40
0
 41
0
  0
VERTEX
  8
0
 10
0.660265
 20
0.147678
 30
0.0
 40
0
 41
0
  0
VERTEX
  8
0
 10
0.660536
 20
0.147407
 30
0.0
 40
0
 41
0
  0
VERTEX
  8
0
 10
0.660753
 20
0.147136
 30
0.0
 40
0
 41
0
  0
VERTEX
  8
0
 10
0.66211
 20
0.141764
 30
0.0
 40
0
 41
0
  0
VERTEX
  8
0
 10
0.66211
 20
0.139919
 30
0.0
 40
0
 41
0
  0
VERTEX
  8
0
 10
0.66211
 20
0.0831706
 30
0.0
 40
0
 41
0
  0
VERTEX
  8
0
 10
0.66211
 20
0.081326
 30
0.0
 40
0
 41
0
  0
VERTEX
  8
0
 10
0.660753
 20
0.0760092
 30
0.0
 40
0
 41
0
  0
VERTEX
  8
0
 10
0.660536
 20
0.0757379
 30
0.0
 40
0
 41
0
  0
VERTEX
  8
0
 10
0.660265
 20
0.0755208
 30
0.0
 40
0
 41
0
  0
VERTEX
  8
0
 10
0.654514
 20
0.0742731
 30
0.0
 40
0
 41
0
  0
VERTEX
  8
0
 10
0.652615
 20
0.0742731
 30
0.0
 40
0
 41
0
  0
VERTEX
  8
0
 10
0.646972
 20
0.0742731
 30
0.0
 40
0
 41
0
  0
VERTEX
  8
0
 10
0.646972
 20
0.0633137
 30
0.0
 40
0
 41
0
  0
VERTEX
  8
0
 10
0.741917
 20
0.0633137
 30
0.0
 40
0
 41
0
  0
VERTEX
  8
0
 10
0.741917
 20
0.104112
 30
0.0
 40
0
 41
0
  0
VERTEX
  8
0
 10
0.730957
 20
0.104112
 30
0.0
 40
0
 41
0
  0
VERTEX
  8
0
 10
0.73074
 20
0.101128
 30
0.0
 40
0
 41
0
  0
VERTEX
  8
0
 10
0.725749
 20
0.0811089
 30
0.0
 40
0
 41
0
  0
VERTEX
  8
0
 10
0.724989
 20
0.0801324
 30
0.0
 40
0
 41
0
  0
VERTEX
  8
0
 10
0.724175
 20
0.0791558
 30
0.0
 40
0
 41
0
  0
VERTEX
  8
0
 10
0.711806
 20
0.0742731
 30
0.0
 40
0
 41
0
  0
VERTEX
  8
0
 10
0.707682
 20
0.0742731
 30
0.0
 40
0
 41
0
  0
VERTEX
  8
0
 10
0.6824
 20
0.0742731
 30
0.0
 40
0
 41
0
  0
VERTEX
  8
0
 10
0.6824
 20
0.108127
 30
0.0
 40
0
 41
0
  0
VERTEX
  8
0
 10
0.687989
 20
0.108127
 30
0.0
 40
0
 41
0
  0
VERTEX
  8
0
 10
0.690918
 20
0.108127
 30
0.0
 40
0
 41
0
  0
VERTEX
  8
0
 10
0.699328
 20
0.105143
 30
0.0
 40
0
 41
0
  0
VERTEX
  8
0
 10
0.699815
 20
0.104546
 30
0.0
 40
0
 41
0
  0
VERTEX
  8
0
 10
0.70025
 20
0.10395
 30
0.0
 40
0
 41
0
  0
VERTEX
  8
0
 10
0.703125
 20
0.090549
 30
0.0
 40
0
 41
0
  0
VERTEX
  8
0
 10
0.703233
 20
0.0884332
 30
0.0
 40
0
 41
0
  0
VERTEX
  8
0
 10
0.714193
 20
0.0883789
 30
0.0
 40
0
 41
0
  0
VERTEX
  8
0
 10
0.714193
 20
0.136827
 30
0.0
 40
0
 41
0
  0
VERTEX
  8
0
 10
0.703233
 20
0.136773
 30
0.0
 40
0
 41
0
  0
VERTEX
  8
0
 10
0.703071
 20
0.134928
 30
0.0
 40
0
 41
0
  0
VERTEX
  8
0
 10
0.700142
 20
0.122938
 30
0.0
 40
0
 41
0
  0
VERTEX
  8
0
 10
0.699707
 20
0.122396
 30
0.0
 40
0
 41
0
  0
VERTEX
  8
0
 10
0.699219
 20
0.121908
 30
0.0
 40
0
 41
0
  0
VERTEX
  8
0
 10
0.690701
 20
0.119249
 30
0.0
 40
0
 41
0
  0
VERTEX
  8
0
 10
0.687879
 20
0.119249
 30
0.0
 40
0
 41
0
  0
VERTEX
  8
0
 10
0.6824
 20
0.119249
 30
0.0
 40
0
 41
0
  0
VERTEX
  8
0
 10
0.6824
 20
0.148926
 30
0.0
 40
0
 41
0
  0
VERTEX
  8
0
 10
0.705567
 20
0.148926
 30
0.0
 40
0
 41
0
  0
VERTEX
  8
0
 10
0.710558
 20
0.148926
 30
0.0
 40
0
 41
0
  0
VERTEX
  8
0
 10
0.724718
 20
0.144314
 30
0.0
 40
0
 41
0
  0
VERTEX
  8
0
 10
0.725586
 20
0.143338
 30
0.0
 40
0
 41
0
  0
VERTEX
  8
0
 10
0.7264
 20
0.142469
 30
0.0
 40
0
 41
0
  0
VERTEX
  8
0
 10
0.730849
 20
0.124132
 30
0.0
 40
0
 41
0
  0
VERTEX
  8
0
 10
0.730957
 20
0.121365
 30
0.0
 40
0
 41
0
  0
VERTEX
  8
0
 10
0.741917
 20
0.121365
 30
0.0
 40
0
 41
0
  0
VERTEX
  8
0
 10
0.741917
 20
0.159776
 30
0.0
 40
0
 41
0
  0
VERTEX
  8
0
 10
0.646972
 20
0.159776
 30
0.0
 40
0
 41
0
  0
SEQEND
 8
0
  0
POLYLINE
  8
0
 62
     187
 66
     1
 10
0
 20
0
 30
0.0
 70
     1
 40
0
 41
0
  0
VERTEX
  8
0
 10
0.872017
 20
0.159776
 30
0.0
 40
0
 41
0
  0
VERTEX
  8
0
 10
0.872017
 20
0.148872
 30
0.0
 40
0
 41
0
  0
VERTEX
  8
0
 10
0.877658
 20
0.148872
 30
0.0
 40
0
 41
0
  0
VERTEX
  8
0
 10
0.879611
 20
0.148872
 30
0.0
 40
0
 41
0
  0
VERTEX
  8
0
 10
0.885308
 20
0.147678
 30
0.0
 40
0
 41
0
  0
VERTEX
  8
0
 10
0.885579
 20
0.147407
 30
0.0
 40
0
 41
0
  0
VERTEX
  8
0
 10
0.885796
 20
0.147136
 30
0.0
 40
0
 41
0
  0
VERTEX
  8
0
 10
0.887099
 20
0.141764
 30
0.0
 40
0
 41
0
  0
VERTEX
  8
0
 10
0.887099
 20
0.139919
 30
0.0
 40
0
 41
0
  0
VERTEX
  8
0
 10
0.887099
 20
0.0831706
 30
0.0
 40
0
 41
0
  0
VERTEX
  8
0
 10
0.887099
 20
0.081326
 30
0.0
 40
0
 41
0
  0
VERTEX
  8
0
 10
0.885796
 20
0.0760092
 30
0.0
 40
0
 41
0
  0
VERTEX
  8
0
 10
0.885579
 20
0.0757379
 30
0.0
 40
0
 41
0
  0
VERTEX
  8
0
 10
0.885308
 20
0.0755208
 30
0.0
 40
0
 41
0
  0
VERTEX
  8
0
 10
0.879557
 20
0.0742731
 30
0.0
 40
0
 41
0
  0
VERTEX
  8
0
 10
0.877658
 20
0.0742731
 30
0.0
 40
0
 41
0
  0
VERTEX
  8
0
 10
0.872017
 20
0.0742731
 30
0.0
 40
0
 41
0
  0
VERTEX
  8
0
 10
0.872017
 20
0.0633137
 30
0.0
 40
0
 41
0
  0
VERTEX
  8
0
 10
0.923774
 20
0.0633137
 30
0.0
 40
0
 41
0
  0
VERTEX
  8
0
 10
0.923774
 20
0.0742731
 30
0.0
 40
0
 41
0
  0
VERTEX
  8
0
 10
0.917046
 20
0.0742731
 30
0.0
 40
0
 41
0
  0
VERTEX
  8
0
 10
0.914985
 20
0.0742731
 30
0.0
 40
0
 41
0
  0
VERTEX
  8
0
 10
0.909233
 20
0.0755208
 30
0.0
 40
0
 41
0
  0
VERTEX
  8
0
 10
0.908962
 20
0.0757379
 30
0.0
 40
0
 41
0
  0
VERTEX
  8
0
 10
0.908692
 20
0.0760092
 30
0.0
 40
0
 41
0
  0
VERTEX
  8
0
 10
0.907389
 20
0.0813803
 30
0.0
 40
0
 41
0
  0
VERTEX
  8
0
 10
0.907389
 20
0.0831706
 30
0.0
 40
0
 41
0
  0
VERTEX
  8
0
 10
0.907389
 20
0.106988
 30
0.0
 40
0
 41
0
  0
VERTEX
  8
0
 10
0.94911
 20
0.106988
 30
0.0
 40
0
 41
0
  0
VERTEX
  8
0
 10
0.94911
 20
0.0831706
 30
0.0
 40
0
 41
0
  0
VERTEX
  8
0
 10
0.94911
 20
0.081326
 30
0.0
 40
0
 41
0
  0
VERTEX
  8
0
 10
0.947808
 20
0.0760092
 30
0.0
 40
0
 41
0
  0
VERTEX
  8
0
 10
0.947592
 20
0.0757379
 30
0.0
 40
0
 41
0
  0
VERTEX
  8
0
 10
0.947319
 20
0.0755208
 30
0.0
 40
0
 41
0
  0
VERTEX
  8
0
 10
0.941515
 20
0.0742731
 30
0.0
 40
0
 41
0
  0
VERTEX
  8
0
 10
0.939615
 20
0.0742731
 30
0.0
 40
0
 41
0
  0
VERTEX
  8
0
 10
0.932835
 20
0.0742731
 30
0.0
 40
0
 41
0
  0
VERTEX
  8
0
 10
0.932835
 20
0.0633137
 30
0.0
 40
0
 41
0
  0
VERTEX
  8
0
 10
0.984646
 20
0.0633137
 30
0.0
 40
0
 41
0
  0
VERTEX
  8
0
 10
0.984646
 20
0.0742731
 30
0.0
 40
0
 41
0
  0
VERTEX
  8
0
 10
0.979004
 20
0.0742731
 30
0.0
 40
0
 41
0
  0
VERTEX
  8
0
 10
0.976997
 20
0.0742731
 30
0.0
 40
0
 41
0
  0
VERTEX
  8
0
 10
0.971246
 20
0.0755208
 30
0.0
 40
0
 41
0
  0
VERTEX
  8
0
 10
0.970975
 20
0.0757379
 30
0.0
 40
0
 41
0
  0
VERTEX
  8
0
 10
0.970703
 20
0.0760092
 30
0.0
 40
0
 41
0
  0
VERTEX
  8
0
 10
0.969401
 20
0.0813803
 30
0.0
 40
0
 41
0
  0
VERTEX
  8
0
 10
0.969401
 20
0.0831706
 30
0.0
 40
0
 41
0
  0
VERTEX
  8
0
 10
0.969401
 20
0.139919
 30
0.0
 40
0
 41
0
  0
VERTEX
  8
0
 10
0.969401
 20
0.141818
 30
0.0
 40
0
 41
0
  0
VERTEX
  8
0
 10
0.970703
 20
0.147081
 30
0.0
 40
0
 41
0
  0
VERTEX
  8
0
 10
0.970975
 20
0.147353
 30
0.0
 40
0
 41
0
  0
VERTEX
  8
0
 10
0.971246
 20
0.147624
 30
0.0
 40
0
 41
0
  0
VERTEX
  8
0
 10
0.977051
 20
0.148872
 30
0.0
 40
0
 41
0
  0
VERTEX
  8
0
 10
0.979004
 20
0.148872
 30
0.0
 40
0
 41
0
  0
VERTEX
  8
0
 10
0.984646
 20
0.148872
 30
0.0
 40
0
 41
0
  0
VERTEX
  8
0
 10
0.984646
 20
0.159776
 30
0.0
 40
0
 41
0
  0
VERTEX
  8
0
 10
0.932835
 20
0.159776
 30
0.0
 40
0
 41
0
  0
VERTEX
  8
0
 10
0.932835
 20
0.148872
 30
0.0
 40
0
 41
0
  0
VERTEX
  8
0
 10
0.939615
 20
0.148872
 30
0.0
 40
0
 41
0
  0
VERTEX
  8
0
 10
0.941569
 20
0.148872
 30
0.0
 40
0
 41
0
  0
VERTEX
  8
0
 10
0.947319
 20
0.147678
 30
0.0
 40
0
 41
0
  0
VERTEX
  8
0
 10
0.947592
 20
0.147407
 30
0.0
 40
0
 41
0
  0
VERTEX
  8
0
 10
0.947808
 20
0.147136
 30
0.0
 40
0
 41
0
  0
VERTEX
  8
0
 10
0.94911
 20
0.141764
 30
0.0
 40
0
 41
0
  0
VERTEX
  8
0
 10
0.94911
 20
0.139919
 30
0.0
 40
0
 41
0
  0
VERTEX
  8
0
 10
0.94911
 20
0.118598
 30
0.0
 40
0
 41
0
  0
VERTEX
  8
0
 10
0.907389
 20
0.118598
 30
0.0
 40
0
 41
0
  0
VERTEX
  8
0
 10
0.907389
 20
0.139919
 30
0.0
 40
0
 41
0
  0
VERTEX
  8
0
 10
0.907389
 20
0.141818
 30
0.0
 40
0
 41
0
  0
VERTEX
  8
0
 10
0.908692
 20
0.147081
 30
0.0
 40
0
 41
0
  0
VERTEX
  8
0
 10
0.908962
 20
0.147353
 30
0.0
 40
0
 41
0
  0
VERTEX
  8
0
 10
0.909233
 20
0.147624
 30
0.0
 40
0
 41
0
  0
VERTEX
  8
0
 10
0.915093
 20
0.148872
 30
0.0
 40
0
 41
0
  0
VERTEX
  8
0
 10
0.917046
 20
0.148872
 30
0.0
 40
0
 41
0
  0
VERTEX
  8
0
 10
0.923774
 20
0.148872
 30
0.0
 40
0
 41
0
  0
VERTEX
  8
0
 10
0.923774
 20
0.159776
 30
0.0
 40
0
 41
0
  0
VERTEX
  8
0
 10
0.872017
 20
0.159776
 30
0.0
 40
0
 41
0
  0
SEQEND
 8
0
  0
ENDSEC
  0
EOF
