<?xml version="1.0" encoding="UTF-8" standalone="no"?>
<svg xmlns:rdf="http://www.w3.org/1999/02/22-rdf-syntax-ns#" xmlns="http://www.w3.org/2000/svg" xml:space="preserve" height="40.081" viewBox="0 0 159.00343 40.081021" width="159" version="1.1" xmlns:cc="http://creativecommons.org/ns#" xmlns:dc="http://purl.org/dc/elements/1.1/"><g transform="matrix(1.25 0 0 -1.25 -304 516.04)"><path d="m244 412.03v-11.759h4.0863c0 0.93975 0.0653 1.792 0.19531 2.5562l2.0211-3.5106-1.4125 5.8543c0.43275 1.0042 1.0696 1.7108 1.9363 2.166l1.5723-4.8684 0.0641 5.3988c0.64625 0.11175 1.3728 0.14896 2.1848 0.12071l-0.01-14.408c0-0.84275 0.40449-1.6629 1.2152-1.4476 0.29325 0.078 0.38981 0.27843 0.28281 0.75468-0.711 3.16 2.0084 5.9857 4.727 4.2895 0.86725-0.0325 1.465-0.35372 1.3062-1.4805l-0.3668 0.21094-0.67578-0.12735c-0.87125-0.66525-0.70945-1.9051-0.0145-2.3703 0.8505-0.569 1.844 0.11303 1.843 1.3195l-0.008 13.259c0.81175 0.0282 1.5385-0.009 2.1848-0.12032l0.0637-5.3992 1.5723 4.8688c0.86675-0.4555 1.5046-1.1616 1.9371-2.1656l-1.4129-5.8551 2.0309 3.5277c0.12875-0.76775 0.19336-1.6257 0.19336-2.5734h4.1316v11.759h-29.648zm37.912-4.4066v-4.9789h1.3742c0.0173 1.289 0.24453 2.2212 0.68203 2.7957s1.1375 0.86211 2.1 0.86211h0.23633v-8.225c0-0.49-0.0643-0.79755-0.19258-0.92305-0.1285-0.1255-0.45792-0.18828-0.98867-0.18828h-1.0414v-1.3648h6.9738v1.3648h-1.0238c-0.53675 0-0.8707 0.0643-1.002 0.19258-0.13125 0.12825-0.19648 0.4345-0.19648 0.91875v8.225h0.26249c0.9565 0 1.6535-0.29175 2.091-0.875 0.43775-0.5835 0.66169-1.5111 0.67344-2.7828h1.3738v4.9789h-11.322zm15.807-3.2375c-1.3472 0-2.4309-0.41847-3.2504-1.2555-0.81975-0.837-1.2293-1.9381-1.2293-3.3031 0-1.3825 0.40551-2.4865 1.216-3.3117 0.81075-0.8255 1.8989-1.2383 3.2637-1.2383 1.0968 0 1.9962 0.29912 2.6992 0.89687 0.703 0.598 1.1184 1.4162 1.2469 2.4547h-1.5047c-0.146-0.6885-0.3953-1.1801-0.74805-1.4746-0.35325-0.29475-0.87386-0.44218-1.5621-0.44218-0.67075 0-1.1915 0.25123-1.5617 0.75273-0.3705 0.50175-0.57281 1.2308-0.60781 2.1875h6.0371c0 1.54-0.34133 2.7139-1.0238 3.5219-0.6825 0.808-1.6742 1.2117-2.975 1.2117zm31.929 0c-1.3475 0-2.431-0.41847-3.2508-1.2555-0.8195-0.837-1.2293-1.9381-1.2293-3.3031 0-1.3825 0.40566-2.4865 1.2164-3.3117 0.81076-0.8255 1.8987-1.2383 3.2637-1.2383 1.0965 0 1.9962 0.29912 2.6992 0.89687 0.703 0.598 1.1184 1.4162 1.2469 2.4547h-1.5051c-0.14575-0.6885-0.39529-1.1801-0.74804-1.4746-0.353-0.29475-0.87361-0.44218-1.5621-0.44218-0.67075 0-1.1912 0.25123-1.5617 0.75273-0.3705 0.50175-0.57281 1.2308-0.60781 2.1875h6.0375c0 1.54-0.34172 2.7139-1.0242 3.5219-0.68225 0.808-1.6739 1.2117-2.9746 1.2117zm8.3074 0c-0.98575 0-1.7789-0.24515-2.3797-0.73515-0.601-0.49-0.90117-1.1316-0.90117-1.9246 0-0.6595 0.22458-1.2033 0.67383-1.632 0.449-0.42875 1.1376-0.75688 2.0648-0.98438l1.3297-0.31484c0.56-0.14 0.95091-0.29313 1.1726-0.45938 0.22176-0.16625 0.33243-0.3837 0.33243-0.65195 0-0.3385-0.13708-0.60813-0.41133-0.80938s-0.63875-0.30195-1.0938-0.30195c-0.7465 0-1.366 0.20425-1.859 0.6125s-0.82397 0.99758-0.99297 1.7676h-1.3125v-3.4562h1.1898l0.32383 0.75273c0.47825-0.3385 0.94151-0.58171 1.391-0.73046 0.449-0.14875 0.93918-0.22344 1.4699-0.22344 1.0675 0 1.9046 0.24515 2.5113 0.73515 0.6065 0.49 0.90977 1.1608 0.90977 2.0125 0 0.7115-0.23894 1.2888-0.71719 1.732-0.4785 0.4435-1.2428 0.79065-2.2926 1.0414l-1.6273 0.37617c-0.3445 0.0817-0.59833 0.19696-0.76133 0.34571-0.1635 0.14875-0.24492 0.33695-0.24492 0.56445 0 0.315 0.12064 0.56145 0.36289 0.73945 0.242 0.17775 0.5762 0.2668 1.002 0.2668 0.64175 0 1.1928-0.18083 1.6535-0.54258 0.46075-0.36175 0.78175-0.86617 0.9625-1.5137h1.2164v3.1324h-1.0238l-0.39375-0.66523c-0.39675 0.29175-0.805 0.5087-1.225 0.65195-0.41975 0.14275-0.86333 0.21445-1.3301 0.21445zm8.6207 0c-0.98575 0-1.7789-0.24515-2.3797-0.73515-0.601-0.49-0.90157-1.1316-0.90157-1.9246 0-0.6595 0.22458-1.2033 0.67383-1.632 0.449-0.42875 1.1376-0.75688 2.0648-0.98438l1.3301-0.31484c0.56-0.14 0.95052-0.29313 1.1723-0.45938 0.22175-0.16625 0.33281-0.3837 0.33281-0.65195 0-0.3385-0.13708-0.60813-0.41133-0.80938s-0.63875-0.30195-1.0938-0.30195c-0.7465 0-1.3664 0.20425-1.8594 0.6125s-0.82397 0.99758-0.99297 1.7676h-1.3125v-3.4562h1.1898l0.32383 0.75273c0.47825-0.3385 0.94191-0.58171 1.3914-0.73046 0.449-0.14875 0.93878-0.22344 1.4695-0.22344 1.0675 0 1.9046 0.24515 2.5113 0.73515 0.6065 0.49 0.91015 1.1608 0.91015 2.0125 0 0.7115-0.23932 1.2888-0.71757 1.732-0.4785 0.4435-1.2424 0.79065-2.2922 1.0414l-1.6277 0.37617c-0.3445 0.0817-0.59793 0.19696-0.76093 0.34571-0.1635 0.14875-0.24532 0.33695-0.24532 0.56445 0 0.315 0.12103 0.56145 0.36328 0.73945 0.242 0.17775 0.57581 0.2668 1.0016 0.2668 0.64175 0 1.1932-0.18083 1.6539-0.54258 0.46075-0.36175 0.78175-0.86617 0.9625-1.5137h1.216v3.1324h-1.0234l-0.39375-0.66523c-0.39675 0.29175-0.805 0.5087-1.225 0.65195-0.42 0.14275-0.86333 0.21445-1.3301 0.21445zm9.6703 0c-1.3475 0-2.4309-0.41847-3.2504-1.2555-0.81975-0.837-1.2293-1.9381-1.2293-3.3031 0-1.3825 0.40526-2.4865 1.216-3.3117 0.81075-0.8255 1.8989-1.2383 3.2637-1.2383 1.0965 0 1.9962 0.29912 2.6992 0.89687 0.703 0.598 1.1188 1.4162 1.2473 2.4547h-1.5051c-0.146-0.6885-0.39529-1.1801-0.74804-1.4746-0.35325-0.29475-0.87386-0.44218-1.5621-0.44218-0.67075 0-1.1915 0.25123-1.5617 0.75273-0.3705 0.50175-0.57296 1.2308-0.60821 2.1875h6.0375c0 1.54-0.34107 2.7139-1.0238 3.5219-0.68225 0.808-1.6742 1.2117-2.975 1.2117zm9.3578 0c-1.3475 0-2.4309-0.41847-3.2504-1.2555-0.81975-0.837-1.2293-1.9381-1.2293-3.3031 0-1.3825 0.40527-2.4865 1.216-3.3117 0.81075-0.8255 1.8989-1.2383 3.2637-1.2383 1.0965 0 1.9965 0.29912 2.6992 0.89687 0.703 0.598 1.1184 1.4162 1.2469 2.4547h-1.5051c-0.146-0.6885-0.3949-1.1801-0.74765-1.4746-0.35325-0.29475-0.87386-0.44218-1.5621-0.44218-0.67075 0-1.1915 0.25123-1.5617 0.75273-0.3705 0.50175-0.57295 1.2308-0.6082 2.1875h6.0375c0 1.54-0.34147 2.7139-1.0242 3.5219-0.68225 0.808-1.6739 1.2117-2.9746 1.2117zm-56.429-0.0613c-0.5075 0-1.0076-0.14575-1.5004-0.4375-0.493-0.29175-0.97295-0.72925-1.4394-1.3125v1.4875h-3.7801v-1.2074h0.59531c0.40825 0 0.67943-0.0626 0.81368-0.18789 0.13425-0.12575 0.20117-0.41893 0.20117-0.87968v-3.9109c0-0.461-0.0669-0.75535-0.20117-0.8836-0.13425-0.1285-0.40543-0.19257-0.81368-0.19257h-0.59531v-1.1988h5.1625v1.1988h-0.35859c-0.4085 0-0.68136 0.0641-0.81836 0.19257-0.137 0.12825-0.20547 0.4226-0.20547 0.8836v2.1871c0 0.8985 0.19533 1.6043 0.58633 2.1176 0.3905 0.51325 0.92442 0.76992 1.6012 0.76992 0.47275 0 0.81189-0.1341 1.0191-0.40235 0.207-0.26825 0.31055-0.71442 0.31055-1.3387v-3.3336c0-0.461-0.0685-0.75535-0.20547-0.8836-0.13725-0.1285-0.40972-0.19257-0.81797-0.19257h-0.35899v-1.1988h5.0926v1.1988h-0.525c-0.40825 0-0.68111 0.0641-0.81836 0.19257-0.137 0.12825-0.20547 0.4226-0.20547 0.8836v3.3336c0 1.12-0.21292 1.919-0.63867 2.3973-0.42575 0.47825-1.1258 0.71758-2.1 0.71758zm11.572 0c-0.5075 0-1.008-0.14575-1.5008-0.4375-0.493-0.29175-0.97257-0.72925-1.4391-1.3125v1.4875h-3.7801v-1.2074h0.59492c0.40825 0 0.67942-0.0626 0.81367-0.18789 0.13425-0.12575 0.20156-0.41893 0.20156-0.87968v-3.9109c0-0.461-0.0673-0.75535-0.20156-0.8836-0.13425-0.1285-0.40542-0.19257-0.81367-0.19257h-0.59492v-1.1988h5.1625v1.1988h-0.3586c-0.4085 0-0.68136 0.0641-0.81836 0.19257-0.137 0.12825-0.20547 0.4226-0.20547 0.8836v2.1871c0 0.8985 0.19533 1.6043 0.58633 2.1176 0.3905 0.51325 0.92403 0.76992 1.6008 0.76992 0.47275 0 0.81229-0.1341 1.0195-0.40235 0.207-0.26825 0.31054-0.71442 0.31054-1.3387v-3.3336c0-0.461-0.0685-0.75535-0.20547-0.8836-0.13725-0.1285-0.41011-0.19257-0.81836-0.19257h-0.35859v-1.1988h5.0926v1.1988h-0.525c-0.40825 0-0.68111 0.0641-0.81836 0.19257-0.137 0.12825-0.20547 0.4226-0.20547 0.8836v3.3336c0 1.12-0.21292 1.919-0.63867 2.3973-0.42575 0.47825-1.1258 0.71758-2.1 0.71758zm-23.046-1.1461c0.51301 0 0.90247-0.18108 1.168-0.54258 0.26525-0.36175 0.42407-0.93334 0.47657-1.7148h-3.5781c0.105 0.74075 0.32181 1.3024 0.65156 1.6844 0.3295 0.382 0.75679 0.57305 1.282 0.57305zm31.928 0c0.513 0 0.90247-0.18108 1.168-0.54258 0.2655-0.36175 0.42459-0.93334 0.47734-1.7148h-3.5789c0.10501 0.74075 0.32221 1.3024 0.65196 1.6844 0.32925 0.382 0.75664 0.57305 1.2816 0.57305zm26.598 0c0.51325 0 0.90261-0.18108 1.1684-0.54258 0.26525-0.36175 0.42445-0.93334 0.47695-1.7148h-3.5785c0.10475 0.74075 0.32207 1.3024 0.65157 1.6844s0.75664 0.57305 1.2816 0.57305zm9.3578 0c0.51325 0 0.90261-0.18108 1.1684-0.54258 0.26525-0.36175 0.42406-0.93334 0.47656-1.7148h-3.5785c0.10475 0.74075 0.32245 1.3024 0.65195 1.6844s0.75664 0.57305 1.2816 0.57305zm-117.39-3.3965c-0.018-0.375-0.0265-0.76853-0.025-1.182 0.009-2.3718 1.1049-6.3417 3.4609-9.7367 0.521-0.7505 2.1362-2.636 2.9207-1.923-0.0362-0.27575-0.14901-0.54898-0.27851-0.80273l-1.3801-2.7035v2.2191c-0.20975-0.0333-0.43419-0.0613-0.67344-0.0848-0.68875-0.0683-1.5058-0.0984-2.4516-0.0984v-3.9047h18.07v3.9047c-1.347 0.0302-2.2855 0.0758-2.8152 0.13633-0.0972 0.01-0.19083 0.0207-0.28008 0.0332v-2.2055l-1.425 2.791c-0.11575 0.22725-0.17394 0.40493-0.21094 0.66718 0.8045-0.57075 2.3522 1.2394 2.8602 1.9711 2.3562 3.395 3.4519 7.365 3.4609 9.7367 0.002 0.4135-0.007 0.80703-0.025 1.182-0.175-2.4045-1.2754-5.9998-3.4359-9.1125-0.60701-0.875-2.4735-2.1611-3.007-0.21211l-0.69179-2.2965c-0.23275-0.92375-0.51122-1.6685-0.82422-2.259l-1.3129 1.934 0.6914-2.8613c-0.38775-0.44925-0.80956-0.72891-1.2516-0.87266l-0.69687 3.4637-0.62735-3.5203c-0.48475 0.10975-0.94868 0.37206-1.3734 0.82656l0.7164 2.9641-1.3801-2.0324c-0.33625 0.6055-0.63382 1.3819-0.88007 2.3574l-0.69141 2.2965c-0.5335-1.949-2.4-0.66289-3.007 0.21211-2.1605 3.1125-3.2609 6.708-3.4359 9.1125zm57.484-6.525c-0.49625 0-0.96016-0.089-1.3914-0.2668-0.4315-0.178-0.82117-0.44148-1.1699-0.79023-0.38475-0.38475-0.67239-0.81491-0.86289-1.2914-0.19076-0.47625-0.28594-1.0004-0.28594-1.5719 0-0.568 0.0978-1.0991 0.29375-1.5934 0.196-0.49425 0.48437-0.93032 0.86562-1.3078 0.345-0.34875 0.73689-0.60756 1.1754-0.77656 0.43875-0.169 0.92952-0.25352 1.4723-0.25352 0.90925 0 1.6315 0.26875 2.1652 0.80625 0.53375 0.5375 0.83685 1.299 0.9086 2.284h-0.94922c-0.10775-0.67575-0.33061-1.1907-0.66836-1.5449-0.338-0.354-0.77873-0.53125-1.3215-0.53125-0.69751 0-1.2386 0.24887-1.623 0.74687-0.385 0.498-0.57695 1.2032-0.57695 2.1164 0 0.95975 0.19343 1.7112 0.57968 2.2539 0.3865 0.543 0.91958 0.81446 1.5988 0.81446 0.5825 0 1.0574-0.19442 1.4262-0.58242 0.3685-0.3885 0.59578-0.93629 0.68203-1.6445h0.85235v3.0359h-0.79805l-0.22109-0.66328c-0.338 0.25875-0.68231 0.45022-1.0328 0.57422s-0.7235 0.18594-1.1187 0.18594zm-21.593-0.2211v-3.068h0.84649c0.0107 0.7945 0.15095 1.3687 0.4207 1.7227 0.2695 0.35425 0.70114 0.53125 1.2941 0.53125h0.14571v-5.0688c0-0.30225-0.0396-0.49189-0.11836-0.56914-0.0793-0.0775-0.28277-0.11602-0.60977-0.11602h-0.6418v-0.84101h4.298v0.84101h-0.63086c-0.331 0-0.53682 0.0395-0.61757 0.11875-0.081 0.079-0.1211 0.26791-0.1211 0.56641v5.0688h0.16172c0.58925 0 1.0189-0.17995 1.2887-0.53945 0.2695-0.3595 0.40774-0.93071 0.41524-1.7145h0.84648v3.068h-6.9777zm8.8043 0v-0.83593h0.43125c0.32725 0 0.53013-0.0384 0.60938-0.11563 0.079-0.0775 0.11836-0.26714 0.11836-0.56914v-4.3625c0-0.302-0.0394-0.49175-0.11836-0.56875-0.0793-0.0775-0.28213-0.11602-0.60938-0.11602h-0.43125v-0.84101h7.2902v3.1383h-0.84102c-0.0648-0.931-0.21745-1.5469-0.4582-1.8469-0.241-0.30025-0.68503-0.4504-1.332-0.4504h-1.9414v2.6047h0.43164c0.46 0 0.76211-0.0925 0.90586-0.27773 0.14375-0.18525 0.23181-0.59578 0.26406-1.232l0.84141-0.005v3.7152l-0.84141-0.005c-0.036-0.57525-0.12578-0.94273-0.26953-1.1027-0.14375-0.16-0.44733-0.23984-0.91133-0.23984h-0.4207v2.2754h1.7797c0.77275 0 1.286-0.1408 1.5394-0.42305 0.2535-0.28225 0.391-0.84588 0.4125-1.6906h0.84102v2.9496h-7.2902zm17.282 0v-0.83593h0.43125c0.32725 0 0.53013-0.0384 0.60938-0.11563 0.079-0.0775 0.11875-0.26714 0.11875-0.56914v-4.3625c0-0.302-0.0397-0.49175-0.11875-0.56875-0.0793-0.0775-0.28213-0.11602-0.60938-0.11602h-0.43125v-0.84101h3.9742v0.84101h-0.51757c-0.33075 0-0.53658 0.0395-0.61758 0.11875-0.0807 0.079-0.1211 0.26752-0.1211 0.56602v1.8336h3.2027v-1.8336c0-0.302-0.0394-0.49175-0.11836-0.56875-0.0793-0.0775-0.28238-0.11602-0.60938-0.11602h-0.52304v-0.84101h3.9793v0.84101h-0.43125c-0.33075 0-0.53643 0.0395-0.61718 0.11875-0.081 0.079-0.12149 0.26752-0.12149 0.56602v4.3625c0 0.29825 0.0405 0.48716 0.12149 0.56641 0.0808 0.079 0.28643 0.11836 0.61718 0.11836h0.43125v0.83593h-3.9793v-0.83593h0.52304c0.327 0 0.53013-0.0384 0.60938-0.11563 0.079-0.0775 0.11836-0.26714 0.11836-0.56914v-1.6391h-3.2027v1.6391c0 0.29825 0.0403 0.48716 0.1211 0.56641 0.081 0.079 0.28683 0.11836 0.61758 0.11836h0.51757v0.83593h-3.9742z" fill="#4f2984"/></g></svg>
